<svg width="623" height="357" viewBox="0 0 623 357" fill="none" xmlns="http://www.w3.org/2000/svg">
<path d="M290.007 242.018L251.288 219.618C249.377 218.512 249.387 216.737 251.311 215.653L308.03 183.707C309.954 182.623 309.965 180.848 308.053 179.742L269.334 157.342" stroke="#E6E8EB" stroke-width="1.5"/>
<path d="M269.334 157.342L308.053 179.742C309.965 180.848 313.074 180.866 314.998 179.782L371.718 147.836C373.642 146.752 376.751 146.77 378.663 147.876L417.382 170.276" stroke="#52525B" stroke-width="1.5"/>
<path d="M278.465 154.607C282.318 156.836 282.298 160.413 278.42 162.598C274.542 164.782 268.273 164.746 264.421 162.517C260.568 160.288 260.59 156.71 264.468 154.526C268.346 152.342 274.612 152.378 278.465 154.607Z" fill="#E6E8EB" stroke="#52525B" stroke-width="1.5"/>
<path d="M311.5 127.665C314.726 129.531 314.708 132.527 311.461 134.356L228.506 181.079C225.259 182.908 220.011 182.878 216.786 181.012L75.321 99.1699C72.0953 97.3037 72.1126 94.3083 75.3597 92.4794L158.315 45.756L158.626 45.5899C161.889 43.9309 166.911 44.0158 170.035 45.8236L311.5 127.665Z" fill="#E6E8EB" stroke="#52525B" stroke-width="1.5"/>
<ellipse cx="7.31197" cy="7.31184" rx="7.31197" ry="7.31184" transform="matrix(0.865293 0.500599 -0.871015 0.490585 271.485 151.315)" fill="#E6E8EB"/>
<path d="M611.395 228.448C614.621 230.314 614.604 233.31 611.356 235.139L528.401 281.862C525.154 283.691 519.906 283.661 516.681 281.794L375.216 199.953C371.99 198.087 372.008 195.091 375.255 193.262L458.211 146.539L458.521 146.373C461.784 144.714 466.806 144.799 469.931 146.606L611.395 228.448Z" fill="#E6E8EB" stroke="#52525B" stroke-width="1.5"/>
<rect width="175.487" height="107.24" rx="6" transform="matrix(0.865293 0.500599 -0.871015 0.490585 336.711 215.712)" fill="#E6E8EB" stroke="#52525B" stroke-width="1.5" stroke-linecap="round" stroke-dasharray="3 3"/>
<path d="M311.5 120.349C314.726 122.215 314.708 125.21 311.461 127.039L228.506 173.762C225.259 175.591 220.011 175.561 216.786 173.695L75.321 91.8533C72.0953 89.9871 72.1126 86.9917 75.3597 85.1628L158.315 38.4394L158.626 38.2732C161.889 36.6142 166.911 36.6992 170.035 38.507L311.5 120.349Z" fill="#FAFAFA" stroke="#52525B" stroke-width="1.5"/>
<path d="M273.747 118.644C269.095 115.953 261.503 115.909 256.82 118.546C252.136 121.184 252.111 125.518 256.764 128.21C261.416 130.901 269.008 130.945 273.692 128.307C278.375 125.67 278.4 121.336 273.747 118.644ZM271.461 124.512L261.577 125.258C261.148 125.291 260.716 125.215 260.388 125.051C260.36 125.037 260.334 125.024 260.309 125.009C260.031 124.848 259.872 124.63 259.874 124.403L259.883 121.985C259.885 121.514 260.558 121.135 261.385 121.139C262.212 121.144 262.881 121.53 262.878 122.003L262.873 123.438L271.05 122.82C271.867 122.758 272.625 123.085 272.737 123.555C272.85 124.023 272.279 124.451 271.461 124.512Z" fill="#52525B"/>
<rect width="29.2479" height="29.2474" rx="3" transform="matrix(0.865293 0.500599 -0.871015 0.490585 164.107 50.3662)" fill="#F4F4F5"/>
<path d="M117.459 67.0082L260.871 149.976L226.142 169.537C224.218 170.62 221.109 170.602 219.197 169.497L82.7074 90.533C80.7959 89.4272 80.8061 87.6521 82.7303 86.5683L117.459 67.0082Z" fill="#F4F4F5"/>
<rect width="41.4345" height="7.31184" rx="3.65592" transform="matrix(0.865293 0.500599 -0.871015 0.490585 197.823 74.7198)" fill="#E6E8EB"/>
<rect width="29.2479" height="7.31184" rx="3.65592" transform="matrix(0.865293 0.500599 -0.871015 0.490585 187.209 80.6982)" fill="#E6E8EB"/>
<path d="M154.71 65.8446C153.847 65.3452 153.326 64.7927 153.147 64.1871C152.975 63.5816 153.14 62.9479 153.642 62.2862C154.15 61.6246 154.994 60.9618 156.173 60.298C157.355 59.6363 158.523 59.1676 159.679 58.892C160.841 58.6164 161.948 58.5337 162.999 58.6439C164.054 58.7561 165.011 59.0609 165.871 59.5583C166.731 60.0557 167.252 60.6062 167.434 61.2098C167.617 61.8134 167.457 62.444 166.955 63.1017C166.457 63.7615 165.62 64.4222 164.445 65.0841C163.263 65.7498 162.087 66.2225 160.918 66.502C159.756 66.7815 158.645 66.8662 157.587 66.756C156.532 66.6478 155.573 66.344 154.71 65.8446ZM156.362 64.9143C157.033 65.3025 157.895 65.4216 158.947 65.2715C160.007 65.1215 161.186 64.6809 162.485 63.9497C163.343 63.4662 163.975 63.0085 164.381 62.5764C164.787 62.1444 164.975 61.7511 164.945 61.3966C164.919 61.0401 164.684 60.7335 164.24 60.4767C163.573 60.0905 162.711 59.9734 161.654 60.1255C160.602 60.2756 159.43 60.7122 158.138 61.4354C157.273 61.9188 156.634 62.3766 156.221 62.8086C155.812 63.2426 155.62 63.6379 155.646 63.9943C155.676 64.3488 155.914 64.6555 156.362 64.9143Z" fill="#52525B"/>
<path d="M175.968 65.5687L165.161 71.6559L163.216 70.5306L172.118 65.5165L172.056 65.4801L167.93 64.9368L169.724 63.9262L174.118 64.4981L175.968 65.5687Z" fill="#52525B"/>
<path d="M278.465 147.29C282.317 149.519 282.297 153.097 278.42 155.281C274.541 157.466 268.273 157.429 264.421 155.201C260.568 152.972 260.59 149.394 264.468 147.21C268.346 145.026 274.612 145.062 278.465 147.29Z" fill="#FAFAFA" stroke="#52525B" stroke-width="1.5"/>
<path d="M422.294 165.101C426.147 167.33 426.127 170.907 422.249 173.092C418.371 175.276 412.103 175.24 408.25 173.011C404.398 170.782 404.419 167.204 408.297 165.02C412.175 162.836 418.442 162.872 422.294 165.101Z" fill="#FAFAFA" stroke="#52525B" stroke-width="1.5"/>
<path d="M611.395 221.131C614.621 222.998 614.604 225.993 611.356 227.822L528.401 274.545C525.154 276.374 519.906 276.344 516.681 274.478L375.216 192.636C371.99 190.77 372.008 187.774 375.255 185.946L458.211 139.222L458.521 139.056C461.784 137.397 466.806 137.482 469.931 139.29L611.395 221.131Z" fill="#FAFAFA" stroke="#52525B" stroke-width="1.5"/>
<path d="M573.642 219.427L570.714 221.076" stroke="#52525B" stroke-width="1.5" stroke-linecap="round" stroke-linejoin="round"/>
<path opacity="0.88" d="M577.121 224.279L572.993 224.255" stroke="#52525B" stroke-width="1.5" stroke-linecap="round" stroke-linejoin="round"/>
<path opacity="0.75" d="M573.587 229.09L570.678 227.407" stroke="#52525B" stroke-width="1.5" stroke-linecap="round" stroke-linejoin="round"/>
<path opacity="0.63" d="M565.111 231.043L565.125 228.687" stroke="#52525B" stroke-width="1.5" stroke-linecap="round" stroke-linejoin="round"/>
<path opacity="0.5" d="M556.659 228.993L559.587 227.343" stroke="#52525B" stroke-width="1.5" stroke-linecap="round" stroke-linejoin="round"/>
<path opacity="0.38" d="M553.18 224.141L557.308 224.164" stroke="#52525B" stroke-width="1.5" stroke-linecap="round" stroke-linejoin="round"/>
<path opacity="0.25" d="M556.715 219.329L559.624 221.012" stroke="#52525B" stroke-width="1.5" stroke-linecap="round" stroke-linejoin="round"/>
<path opacity="0.13" d="M565.19 217.376L565.176 219.733" stroke="#52525B" stroke-width="1.5" stroke-linecap="round" stroke-linejoin="round"/>
<rect width="29.2479" height="7.31184" rx="3.65592" transform="matrix(0.865293 0.500599 -0.871015 0.490585 487.104 181.481)" fill="#E6E8EB"/>
<rect width="38.9972" height="7.31184" rx="3.65592" transform="matrix(0.865293 0.500599 -0.871015 0.490585 497.719 175.503)" fill="#E6E8EB"/>
<rect width="14.6239" height="7.31184" rx="3.65592" transform="matrix(0.865293 0.500599 -0.871015 0.490585 516.63 198.563)" fill="#E6E8EB"/>
<rect width="29.2479" height="29.2474" rx="3" transform="matrix(0.865293 0.500599 -0.871015 0.490585 464.002 151.149)" fill="#F4F4F5"/>
<path d="M417.354 167.791L560.766 250.759L526.037 270.319C524.113 271.403 521.004 271.385 519.092 270.279L382.603 191.316C380.691 190.21 380.701 188.435 382.625 187.351L417.354 167.791Z" fill="#F4F4F5"/>
<path d="M453.373 165.914C452.509 165.415 451.988 164.863 451.81 164.257C451.638 163.651 451.803 163.018 452.304 162.356C452.813 161.694 453.657 161.032 454.835 160.368C456.017 159.706 457.186 159.237 458.341 158.962C459.504 158.686 460.611 158.604 461.662 158.714C462.717 158.826 463.674 159.131 464.534 159.628C465.394 160.126 465.915 160.676 466.097 161.28C466.279 161.883 466.12 162.514 465.618 163.172C465.12 163.831 464.283 164.492 463.108 165.154C461.926 165.82 460.75 166.292 459.581 166.572C458.419 166.851 457.308 166.936 456.25 166.826C455.195 166.718 454.236 166.414 453.373 165.914ZM455.024 164.984C455.696 165.372 456.557 165.491 457.61 165.341C458.67 165.191 459.849 164.751 461.147 164.02C462.006 163.536 462.638 163.078 463.044 162.646C463.449 162.214 463.638 161.821 463.608 161.467C463.582 161.11 463.347 160.803 462.903 160.547C462.236 160.16 461.374 160.043 460.317 160.195C459.264 160.345 458.092 160.782 456.801 161.505C455.936 161.989 455.297 162.446 454.884 162.878C454.475 163.312 454.283 163.708 454.309 164.064C454.339 164.419 454.577 164.725 455.024 164.984Z" fill="#52525B"/>
<path d="M459.457 169.199L460.871 168.403L468.277 168.488C468.995 168.49 469.614 168.48 470.134 168.459C470.653 168.438 471.104 168.388 471.486 168.308C471.869 168.228 472.21 168.104 472.509 167.935C472.85 167.743 473.065 167.534 473.154 167.309C473.247 167.081 473.225 166.852 473.09 166.621C472.954 166.39 472.715 166.175 472.373 165.977C472.02 165.773 471.637 165.635 471.223 165.565C470.813 165.492 470.401 165.489 469.987 165.555C469.577 165.622 469.186 165.76 468.817 165.968L466.966 164.898C467.653 164.511 468.404 164.265 469.222 164.16C470.04 164.055 470.86 164.081 471.683 164.24C472.51 164.401 473.278 164.687 473.987 165.097C474.707 165.514 475.205 165.956 475.479 166.424C475.753 166.892 475.805 167.346 475.634 167.785C475.467 168.227 475.081 168.618 474.475 168.959C474.071 169.187 473.596 169.366 473.052 169.497C472.508 169.628 471.804 169.715 470.941 169.758C470.082 169.803 468.967 169.815 467.596 169.793L463.851 169.789L463.777 169.831L468.453 172.536L466.817 173.458L459.457 169.199Z" fill="#52525B"/>
<path d="M422.294 157.784C426.147 160.013 426.127 163.591 422.249 165.775C418.371 167.959 412.103 167.923 408.25 165.694C404.398 163.465 404.419 159.888 408.297 157.703C412.175 155.519 418.442 155.555 422.294 157.784Z" fill="#FAFAFA" stroke="#52525B" stroke-width="1.5"/>
<path d="M294.92 236.842C298.772 239.071 298.752 242.649 294.874 244.833C290.996 247.017 284.728 246.981 280.875 244.752C277.023 242.524 277.044 238.946 280.922 236.762C284.8 234.577 291.067 234.614 294.92 236.842Z" fill="#FAFAFA" stroke="#E6E8EB" stroke-width="1.5"/>
<rect width="175.487" height="107.24" rx="6" transform="matrix(0.865293 0.500599 -0.871015 0.490585 336.711 208.396)" fill="#FAFAFA" stroke="#52525B" stroke-width="1.5" stroke-linecap="round" stroke-dasharray="3 3"/>
<path d="M359.154 261.373L347.554 254.662C344.355 252.811 339.137 252.781 335.916 254.595L324.24 261.172C321.02 262.985 321.003 265.964 324.202 267.815L335.802 274.526C339.001 276.377 344.219 276.407 347.439 274.593L359.115 268.017C362.336 266.203 362.353 263.224 359.154 261.373ZM344.831 268.236L341.667 266.406L338.483 268.199C337.604 268.694 336.182 268.686 335.309 268.181C334.436 267.676 334.441 266.864 335.319 266.369L338.504 264.576L335.34 262.746C334.467 262.24 334.472 261.429 335.351 260.934C336.23 260.439 337.652 260.447 338.525 260.952L341.688 262.782L344.873 260.989C345.751 260.494 347.173 260.502 348.046 261.007C348.92 261.512 348.915 262.324 348.036 262.819L344.852 264.612L348.015 266.443C348.888 266.948 348.884 267.759 348.005 268.254C347.126 268.749 345.704 268.741 344.831 268.236Z" fill="#E6E8EB"/>
<rect width="41.4345" height="7.31184" rx="3.65592" transform="matrix(0.865293 0.500599 -0.871015 0.490585 374.423 273.843)" fill="#E6E8EB"/>
<rect width="29.2479" height="7.31184" rx="3.65592" transform="matrix(0.865293 0.500599 -0.871015 0.490585 363.808 279.821)" fill="#E6E8EB"/>
<path d="M294.92 229.526C298.772 231.754 298.752 235.332 294.874 237.516C290.996 239.701 284.728 239.665 280.875 237.436C277.023 235.207 277.044 231.629 280.922 229.445C284.8 227.261 291.067 227.297 294.92 229.526Z" fill="#FAFAFA" stroke="#E6E8EB" stroke-width="1.5"/>
</svg>
