<svg
  width="1607"
  height="214"
  viewBox="0 0 1607 214"
  fill="none"
  xmlns="http://www.w3.org/2000/svg"
>
<path
    d="M0 0L21.15 20.9473L42.2918 0L63.4337 20.9473L84.5755 0L105.725 20.9473L126.867 0L148.009 20.9473L169.159 0L190.301 20.9473L211.451 0L232.593 20.9473L253.735 0L274.885 20.9473L296.027 0L317.168 20.9473L338.318 0L359.46 20.9473L380.61 0L401.752 20.9473L422.894 0L444.036 20.9473L465.178 0L486.328 20.9473L507.469 0L528.619 20.9473L549.761 0L570.903 20.9473L592.053 0L613.195 20.9473L634.345 0L655.495 20.9473L676.637 0L697.779 20.9473L718.929 0L740.078 20.9473L761.22 0L782.37 20.9473L803.52 0L824.662 20.9473L845.812 0L866.954 20.9473L888.096 0L909.238 20.9473L930.388 0L951.529 20.9473L972.671 0L993.813 20.9473L1014.96 0L1036.11 20.9473L1057.25 0L1078.39 20.9473L1099.53 0L1120.68 20.9473L1141.82 0L1162.96 20.9473L1184.11 0L1205.26 20.9473L1226.4 0L1247.55 20.9473L1268.69 0L1289.83 20.9473L1310.98 0L1332.12 20.9473L1353.27 0L1374.42 20.9473L1395.56 0L1416.71 20.9473L1437.85 0L1458.99 20.9473L1480.14 0L1501.28 20.9473L1522.42 0L1543.57 20.9473L1564.72 0L1585.86 20.9473L1607 0M1607 21.9305L1585.86 42.8696L1564.72 21.9305L1543.57 42.8696L1522.42 21.9305L1501.28 42.8696L1480.14 21.9305L1458.99 42.8696L1437.85 21.9305L1416.71 42.8696L1395.56 21.9305L1374.42 42.8696L1353.27 21.9305L1332.12 42.8696L1310.98 21.9305L1289.83 42.8696L1268.69 21.9305L1247.55 42.8696L1226.4 21.9305L1205.26 42.8696L1184.11 21.9305L1162.96 42.8696L1141.82 21.9305L1120.68 42.8696L1099.53 21.9305L1078.39 42.8696L1057.25 21.9305L1036.11 42.8696L1014.96 21.9305L993.813 42.8696L972.671 21.9305L951.529 42.8696L930.388 21.9305L909.238 42.8696L888.096 21.9305L866.954 42.8696L845.812 21.9305L824.662 42.8696L803.52 21.9305L782.37 42.8696L761.22 21.9305L740.078 42.8696L718.929 21.9305L697.779 42.8696L676.637 21.9305L655.495 42.8696L634.345 21.9305L613.195 42.8696L592.053 21.9305L570.903 42.8696L549.761 21.9305L528.619 42.8696L507.469 21.9305L486.328 42.8696L465.178 21.9305L444.036 42.8696L422.894 21.9305L401.752 42.8696L380.61 21.9305L359.46 42.8696L338.318 21.9305L317.168 42.8696L296.027 21.9305L274.885 42.8696L253.735 21.9305L232.593 42.8696L211.451 21.9305L190.301 42.8696L169.159 21.9305L148.009 42.8696L126.867 21.9305L105.725 42.8696L84.5755 21.9305L63.4337 42.8696L42.2918 21.9305L21.15 42.8696L0 21.9305M0 43.8528L21.15 64.792L42.2918 43.8528L63.4337 64.792L84.5755 43.8528L105.725 64.792L126.867 43.8528L148.009 64.792L169.159 43.8528L190.301 64.792L211.451 43.8528L232.593 64.792L253.735 43.8528L274.885 64.792L296.027 43.8528L317.168 64.792L338.318 43.8528L359.46 64.792L380.61 43.8528L401.752 64.792L422.894 43.8528L444.036 64.792L465.178 43.8528L486.328 64.792L507.469 43.8528L528.619 64.792L549.761 43.8528L570.903 64.792L592.053 43.8528L613.195 64.792L634.345 43.8528L655.495 64.792L676.637 43.8528L697.779 64.792L718.929 43.8528L740.078 64.792L761.22 43.8528L782.37 64.792L803.52 43.8528L824.662 64.792L845.812 43.8528L866.954 64.792L888.096 43.8528L909.238 64.792L930.388 43.8528L951.529 64.792L972.671 43.8528L993.813 64.792L1014.96 43.8528L1036.11 64.792L1057.25 43.8528L1078.39 64.792L1099.53 43.8528L1120.68 64.792L1141.82 43.8528L1162.96 64.792L1184.11 43.8528L1205.26 64.792L1226.4 43.8528L1247.55 64.792L1268.69 43.8528L1289.83 64.792L1310.98 43.8528L1332.12 64.792L1353.27 43.8528L1374.42 64.792L1395.56 43.8528L1416.71 64.792L1437.85 43.8528L1458.99 64.792L1480.14 43.8528L1501.28 64.792L1522.42 43.8528L1543.57 64.792L1564.72 43.8528L1585.86 64.792L1607 43.8528M1607 65.7752L1585.86 86.7225L1564.72 65.7752L1543.57 86.7225L1522.42 65.7752L1501.28 86.7225L1480.14 65.7752L1458.99 86.7225L1437.85 65.7752L1416.71 86.7225L1395.56 65.7752L1374.42 86.7225L1353.27 65.7752L1332.12 86.7225L1310.98 65.7752L1289.83 86.7225L1268.69 65.7752L1247.55 86.7225L1226.4 65.7752L1205.26 86.7225L1184.11 65.7752L1162.96 86.7225L1141.82 65.7752L1120.68 86.7225L1099.53 65.7752L1078.39 86.7225L1057.25 65.7752L1036.11 86.7225L1014.96 65.7752L993.813 86.7225L972.671 65.7752L951.529 86.7225L930.388 65.7752L909.238 86.7225L888.096 65.7752L866.954 86.7225L845.812 65.7752L824.662 86.7225L803.52 65.7752L782.37 86.7225L761.22 65.7752L740.078 86.7225L718.929 65.7752L697.779 86.7225L676.637 65.7752L655.495 86.7225L634.345 65.7752L613.195 86.7225L592.053 65.7752L570.903 86.7225L549.761 65.7752L528.619 86.7225L507.469 65.7752L486.328 86.7225L465.178 65.7752L444.036 86.7225L422.894 65.7752L401.752 86.7225L380.61 65.7752L359.46 86.7225L338.318 65.7752L317.168 86.7225L296.027 65.7752L274.885 86.7225L253.735 65.7752L232.593 86.7225L211.451 65.7752L190.301 86.7225L169.159 65.7752L148.009 86.7225L126.867 65.7752L105.725 86.7225L84.5755 65.7752L63.4337 86.7225L42.2918 65.7752L21.15 86.7225L0 65.7752M0 87.6975L21.15 108.645L42.2918 87.6975L63.4337 108.645L84.5755 87.6975L105.725 108.645L126.867 87.6975L148.009 108.645L169.159 87.6975L190.301 108.645L211.451 87.6975L232.593 108.645L253.735 87.6975L274.885 108.645L296.027 87.6975L317.168 108.645L338.318 87.6975L359.46 108.645L380.61 87.6975L401.752 108.645L422.894 87.6975L444.036 108.645L465.178 87.6975L486.328 108.645L507.469 87.6975L528.619 108.645L549.761 87.6975L570.903 108.645L592.053 87.6975L613.195 108.645L634.345 87.6975L655.495 108.645L676.637 87.6975L697.779 108.645L718.929 87.6975L740.078 108.645L761.22 87.6975L782.37 108.645L803.52 87.6975L824.662 108.645L845.812 87.6975L866.954 108.645L888.096 87.6975L909.238 108.645L930.388 87.6975L951.529 108.645L972.671 87.6975L993.813 108.645L1014.96 87.6975L1036.11 108.645L1057.25 87.6975L1078.39 108.645L1099.53 87.6975L1120.68 108.645L1141.82 87.6975L1162.96 108.645L1184.11 87.6975L1205.26 108.645L1226.4 87.6975L1247.55 108.645L1268.69 87.6975L1289.83 108.645L1310.98 87.6975L1332.12 108.645L1353.27 87.6975L1374.42 108.645L1395.56 87.6975L1416.71 108.645L1437.85 87.6975L1458.99 108.645L1480.14 87.6975L1501.28 108.645L1522.42 87.6975L1543.57 108.645L1564.72 87.6975L1585.86 108.645L1607 87.6975M1607 109.628L1585.86 130.567L1564.72 109.628L1543.57 130.567L1522.42 109.628L1501.28 130.567L1480.14 109.628L1458.99 130.567L1437.85 109.628L1416.71 130.567L1395.56 109.628L1374.42 130.567L1353.27 109.628L1332.12 130.567L1310.98 109.628L1289.83 130.567L1268.69 109.628L1247.55 130.567L1226.4 109.628L1205.26 130.567L1184.11 109.628L1162.96 130.567L1141.82 109.628L1120.68 130.567L1099.53 109.628L1078.39 130.567L1057.25 109.628L1036.11 130.567L1014.96 109.628L993.813 130.567L972.671 109.628L951.529 130.567L930.388 109.628L909.238 130.567L888.096 109.628L866.954 130.567L845.812 109.628L824.662 130.567L803.52 109.628L782.37 130.567L761.22 109.628L740.078 130.567L718.929 109.628L697.779 130.567L676.637 109.628L655.495 130.567L634.345 109.628L613.195 130.567L592.053 109.628L570.903 130.567L549.761 109.628L528.619 130.567L507.469 109.628L486.328 130.567L465.178 109.628L444.036 130.567L422.894 109.628L401.752 130.567L380.61 109.628L359.46 130.567L338.318 109.628L317.168 130.567L296.027 109.628L274.885 130.567L253.735 109.628L232.593 130.567L211.451 109.628L190.301 130.567L169.159 109.628L148.009 130.567L126.867 109.628L105.725 130.567L84.5755 109.628L63.4337 130.567L42.2918 109.628L21.15 130.567L0 109.628M0 131.55L21.15 152.489L42.2918 131.55L63.4337 152.489L84.5755 131.55L105.725 152.489L126.867 131.55L148.009 152.489L169.159 131.55L190.301 152.489L211.451 131.55L232.593 152.489L253.735 131.55L274.885 152.489L296.027 131.55L317.168 152.489L338.318 131.55L359.46 152.489L380.61 131.55L401.752 152.489L422.894 131.55L444.036 152.489L465.178 131.55L486.328 152.489L507.469 131.55L528.619 152.489L549.761 131.55L570.903 152.489L592.053 131.55L613.195 152.489L634.345 131.55L655.495 152.489L676.637 131.55L697.779 152.489L718.929 131.55L740.078 152.489L761.22 131.55L782.37 152.489L803.52 131.55L824.662 152.489L845.812 131.55L866.954 152.489L888.096 131.55L909.238 152.489L930.388 131.55L951.529 152.489L972.671 131.55L993.813 152.489L1014.96 131.55L1036.11 152.489L1057.25 131.55L1078.39 152.489L1099.53 131.55L1120.68 152.489L1141.82 131.55L1162.96 152.489L1184.11 131.55L1205.26 152.489L1226.4 131.55L1247.55 152.489L1268.69 131.55L1289.83 152.489L1310.98 131.55L1332.12 152.489L1353.27 131.55L1374.42 152.489L1395.56 131.55L1416.71 152.489L1437.85 131.55L1458.99 152.489L1480.14 131.55L1501.28 152.489L1522.42 131.55L1543.57 152.489L1564.72 131.55L1585.86 152.489L1607 131.55M1607 153.473L1585.86 174.42L1564.72 153.473L1543.57 174.42L1522.42 153.473L1501.28 174.42L1480.14 153.473L1458.99 174.42L1437.85 153.473L1416.71 174.42L1395.56 153.473L1374.42 174.42L1353.27 153.473L1332.12 174.42L1310.98 153.473L1289.83 174.42L1268.69 153.473L1247.55 174.42L1226.4 153.473L1205.26 174.42L1184.11 153.473L1162.96 174.42L1141.82 153.473L1120.68 174.42L1099.53 153.473L1078.39 174.42L1057.25 153.473L1036.11 174.42L1014.96 153.473L993.813 174.42L972.671 153.473L951.529 174.42L930.388 153.473L909.238 174.42L888.096 153.473L866.954 174.42L845.812 153.473L824.662 174.42L803.52 153.473L782.37 174.42L761.22 153.473L740.078 174.42L718.929 153.473L697.779 174.42L676.637 153.473L655.495 174.42L634.345 153.473L613.195 174.42L592.053 153.473L570.903 174.42L549.761 153.473L528.619 174.42L507.469 153.473L486.328 174.42L465.178 153.473L444.036 174.42L422.894 153.473L401.752 174.42L380.61 153.473L359.46 174.42L338.318 153.473L317.168 174.42L296.027 153.473L274.885 174.42L253.735 153.473L232.593 174.42L211.451 153.473L190.301 174.42L169.159 153.473L148.009 174.42L126.867 153.473L105.725 174.42L84.5755 153.473L63.4337 174.42L42.2918 153.473L21.15 174.42L0 153.473M0 175.395L21.15 196.342L42.2918 175.395L63.4337 196.342L84.5755 175.395L105.725 196.342L126.867 175.395L148.009 196.342L169.159 175.395L190.301 196.342L211.451 175.395L232.593 196.342L253.735 175.395L274.885 196.342L296.027 175.395L317.168 196.342L338.318 175.395L359.46 196.342L380.61 175.395L401.752 196.342L422.894 175.395L444.036 196.342L465.178 175.395L486.328 196.342L507.469 175.395L528.619 196.342L549.761 175.395L570.903 196.342L592.053 175.395L613.195 196.342L634.345 175.395L655.495 196.342L676.637 175.395L697.779 196.342L718.929 175.395L740.078 196.342L761.22 175.395L782.37 196.342L803.52 175.395L824.662 196.342L845.812 175.395L866.954 196.342L888.096 175.395L909.238 196.342L930.388 175.395L951.529 196.342L972.671 175.395L993.813 196.342L1014.96 175.395L1036.11 196.342L1057.25 175.395L1078.39 196.342L1099.53 175.395L1120.68 196.342L1141.82 175.395L1162.96 196.342L1184.11 175.395L1205.26 196.342L1226.4 175.395L1247.55 196.342L1268.69 175.395L1289.83 196.342L1310.98 175.395L1332.12 196.342L1353.27 175.395L1374.42 196.342L1395.56 175.395L1416.71 196.342L1437.85 175.395L1458.99 196.342L1480.14 175.395L1501.28 196.342L1522.42 175.395L1543.57 196.342L1564.72 175.395L1585.86 196.342L1607 175.395M1607 197.325L1585.86 218.265L1564.72 197.325L1543.57 218.265L1522.42 197.325L1501.28 218.265L1480.14 197.325L1458.99 218.265L1437.85 197.325L1416.71 218.265L1395.56 197.325L1374.42 218.265L1353.27 197.325L1332.12 218.265L1310.98 197.325L1289.83 218.265L1268.69 197.325L1247.55 218.265L1226.4 197.325L1205.26 218.265L1184.11 197.325L1162.96 218.265L1141.82 197.325L1120.68 218.265L1099.53 197.325L1078.39 218.265L1057.25 197.325L1036.11 218.265L1014.96 197.325L993.813 218.265L972.671 197.325L951.529 218.265L930.388 197.325L909.238 218.265L888.096 197.325L866.954 218.265L845.812 197.325L824.662 218.265L803.52 197.325L782.37 218.265L761.22 197.325L740.078 218.265L718.929 197.325L697.779 218.265L676.637 197.325L655.495 218.265L634.345 197.325L613.195 218.265L592.053 197.325L570.903 218.265L549.761 197.325L528.619 218.265L507.469 197.325L486.328 218.265L465.178 197.325L444.036 218.265L422.894 197.325L401.752 218.265L380.61 197.325L359.46 218.265L338.318 197.325L317.168 218.265L296.027 197.325L274.885 218.265L253.735 197.325L232.593 218.265L211.451 197.325L190.301 218.265L169.159 197.325L148.009 218.265L126.867 197.325L105.725 218.265L84.5755 197.325L63.4337 218.265L42.2918 197.325L21.15 218.265L0 197.325M0 306.945L21.15 327.884L42.2918 306.945L63.4337 327.884L84.5755 306.945L105.725 327.884L126.867 306.945L148.009 327.884L169.159 306.945L190.301 327.884L211.451 306.945L232.593 327.884L253.735 306.945L274.885 327.884L296.027 306.945L317.168 327.884L338.318 306.945L359.46 327.884L380.61 306.945L401.752 327.884L422.894 306.945L444.036 327.884L465.178 306.945L486.328 327.884L507.469 306.945L528.619 327.884L549.761 306.945L570.903 327.884L592.053 306.945L613.195 327.884L634.345 306.945L655.495 327.884L676.637 306.945L697.779 327.884L718.929 306.945L740.078 327.884L761.22 306.945L782.37 327.884L803.52 306.945L824.662 327.884L845.812 306.945L866.954 327.884L888.096 306.945L909.238 327.884L930.388 306.945L951.529 327.884L972.671 306.945L993.813 327.884L1014.96 306.945L1036.11 327.884L1057.25 306.945L1078.39 327.884L1099.53 306.945L1120.68 327.884L1141.82 306.945L1162.96 327.884L1184.11 306.945L1205.26 327.884L1226.4 306.945L1247.55 327.884L1268.69 306.945L1289.83 327.884L1310.98 306.945L1332.12 327.884L1353.27 306.945L1374.42 327.884L1395.56 306.945L1416.71 327.884L1437.85 306.945L1458.99 327.884L1480.14 306.945L1501.28 327.884L1522.42 306.945L1543.57 327.884L1564.72 306.945L1585.86 327.884L1607 306.945M1607 285.023L1585.86 305.962L1564.72 285.023L1543.57 305.962L1522.42 285.023L1501.28 305.962L1480.14 285.023L1458.99 305.962L1437.85 285.023L1416.71 305.962L1395.56 285.023L1374.42 305.962L1353.27 285.023L1332.12 305.962L1310.98 285.023L1289.83 305.962L1268.69 285.023L1247.55 305.962L1226.4 285.023L1205.26 305.962L1184.11 285.023L1162.96 305.962L1141.82 285.023L1120.68 305.962L1099.53 285.023L1078.39 305.962L1057.25 285.023L1036.11 305.962L1014.96 285.023L993.813 305.962L972.671 285.023L951.529 305.962L930.388 285.023L909.238 305.962L888.096 285.023L866.954 305.962L845.812 285.023L824.662 305.962L803.52 285.023L782.37 305.962L761.22 285.023L740.078 305.962L718.929 285.023L697.779 305.962L676.637 285.023L655.495 305.962L634.345 285.023L613.195 305.962L592.053 285.023L570.903 305.962L549.761 285.023L528.619 305.962L507.469 285.023L486.328 305.962L465.178 285.023L444.036 305.962L422.894 285.023L401.752 305.962L380.61 285.023L359.46 305.962L338.318 285.023L317.168 305.962L296.027 285.023L274.885 305.962L253.735 285.023L232.593 305.962L211.451 285.023L190.301 305.962L169.159 285.023L148.009 305.962L126.867 285.023L105.725 305.962L84.5755 285.023L63.4337 305.962L42.2918 285.023L21.15 305.962L0 285.023M0 263.101L21.15 284.04L42.2918 263.101L63.4337 284.04L84.5755 263.101L105.725 284.04L126.867 263.101L148.009 284.04L169.159 263.101L190.301 284.04L211.451 263.101L232.593 284.04L253.735 263.101L274.885 284.04L296.027 263.101L317.168 284.04L338.318 263.101L359.46 284.04L380.61 263.101L401.752 284.04L422.894 263.101L444.036 284.04L465.178 263.101L486.328 284.04L507.469 263.101L528.619 284.04L549.761 263.101L570.903 284.04L592.053 263.101L613.195 284.04L634.345 263.101L655.495 284.04L676.637 263.101L697.779 284.04L718.929 263.101L740.078 284.04L761.22 263.101L782.37 284.04L803.52 263.101L824.662 284.04L845.812 263.101L866.954 284.04L888.096 263.101L909.238 284.04L930.388 263.101L951.529 284.04L972.671 263.101L993.813 284.04L1014.96 263.101L1036.11 284.04L1057.25 263.101L1078.39 284.04L1099.53 263.101L1120.68 284.04L1141.82 263.101L1162.96 284.04L1184.11 263.101L1205.26 284.04L1226.4 263.101L1247.55 284.04L1268.69 263.101L1289.83 284.04L1310.98 263.101L1332.12 284.04L1353.27 263.101L1374.42 284.04L1395.56 263.101L1416.71 284.04L1437.85 263.101L1458.99 284.04L1480.14 263.101L1501.28 284.04L1522.42 263.101L1543.57 284.04L1564.72 263.101L1585.86 284.04L1607 263.101M1607 241.17L1585.86 262.117L1564.72 241.17L1543.57 262.117L1522.42 241.17L1501.28 262.117L1480.14 241.17L1458.99 262.117L1437.85 241.17L1416.71 262.117L1395.56 241.17L1374.42 262.117L1353.27 241.17L1332.12 262.117L1310.98 241.17L1289.83 262.117L1268.69 241.17L1247.55 262.117L1226.4 241.17L1205.26 262.117L1184.11 241.17L1162.96 262.117L1141.82 241.17L1120.68 262.117L1099.53 241.17L1078.39 262.117L1057.25 241.17L1036.11 262.117L1014.96 241.17L993.813 262.117L972.671 241.17L951.529 262.117L930.388 241.17L909.238 262.117L888.096 241.17L866.954 262.117L845.812 241.17L824.662 262.117L803.52 241.17L782.37 262.117L761.22 241.17L740.078 262.117L718.929 241.17L697.779 262.117L676.637 241.17L655.495 262.117L634.345 241.17L613.195 262.117L592.053 241.17L570.903 262.117L549.761 241.17L528.619 262.117L507.469 241.17L486.328 262.117L465.178 241.17L444.036 262.117L422.894 241.17L401.752 262.117L380.61 241.17L359.46 262.117L338.318 241.17L317.168 262.117L296.027 241.17L274.885 262.117L253.735 241.17L232.593 262.117L211.451 241.17L190.301 262.117L169.159 241.17L148.009 262.117L126.867 241.17L105.725 262.117L84.5755 241.17L63.4337 262.117L42.2918 241.17L21.15 262.117L0 241.17M0 219.248L21.15 240.187L42.2918 219.248L63.4337 240.187L84.5755 219.248L105.725 240.187L126.867 219.248L148.009 240.187L169.159 219.248L190.301 240.187L211.451 219.248L232.593 240.187L253.735 219.248L274.885 240.187L296.027 219.248L317.168 240.187L338.318 219.248L359.46 240.187L380.61 219.248L401.752 240.187L422.894 219.248L444.036 240.187L465.178 219.248L486.328 240.187L507.469 219.248L528.619 240.187L549.761 219.248L570.903 240.187L592.053 219.248L613.195 240.187L634.345 219.248L655.495 240.187L676.637 219.248L697.779 240.187L718.929 219.248L740.078 240.187L761.22 219.248L782.37 240.187L803.52 219.248L824.662 240.187L845.812 219.248L866.954 240.187L888.096 219.248L909.238 240.187L930.388 219.248L951.529 240.187L972.671 219.248L993.813 240.187L1014.96 219.248L1036.11 240.187L1057.25 219.248L1078.39 240.187L1099.53 219.248L1120.68 240.187L1141.82 219.248L1162.96 240.187L1184.11 219.248L1205.26 240.187L1226.4 219.248L1247.55 240.187L1268.69 219.248L1289.83 240.187L1310.98 219.248L1332.12 240.187L1353.27 219.248L1374.42 240.187L1395.56 219.248L1416.71 240.187L1437.85 219.248L1458.99 240.187L1480.14 219.248L1501.28 240.187L1522.42 219.248L1543.57 240.187L1564.72 219.248L1585.86 240.187L1607 219.248M1607 328.868L1585.86 349.815L1564.72 328.868L1543.57 349.815L1522.42 328.868L1501.28 349.815L1480.14 328.868L1458.99 349.815L1437.85 328.868L1416.71 349.815L1395.56 328.868L1374.42 349.815L1353.27 328.868L1332.12 349.815L1310.98 328.868L1289.83 349.815L1268.69 328.868L1247.55 349.815L1226.4 328.868L1205.26 349.815L1184.11 328.868L1162.96 349.815L1141.82 328.868L1120.68 349.815L1099.53 328.868L1078.39 349.815L1057.25 328.868L1036.11 349.815L1014.96 328.868L993.813 349.815L972.671 328.868L951.529 349.815L930.388 328.868L909.238 349.815L888.096 328.868L866.954 349.815L845.812 328.868L824.662 349.815L803.52 328.868L782.37 349.815L761.22 328.868L740.078 349.815L718.929 328.868L697.779 349.815L676.637 328.868L655.495 349.815L634.345 328.868L613.195 349.815L592.053 328.868L570.903 349.815L549.761 328.868L528.619 349.815L507.469 328.868L486.328 349.815L465.178 328.868L444.036 349.815L422.894 328.868L401.752 349.815L380.61 328.868L359.46 349.815L338.318 328.868L317.168 349.815L296.027 328.868L274.885 349.815L253.735 328.868L232.593 349.815L211.451 328.868L190.301 349.815L169.159 328.868L148.009 349.815L126.867 328.868L105.725 349.815L84.5755 328.868L63.4337 349.815L42.2918 328.868L21.15 349.815L0 328.868M0 350.798L21.15 371.737L42.2918 350.798L63.4337 371.737L84.5755 350.798L105.725 371.737L126.867 350.798L148.009 371.737L169.159 350.798L190.301 371.737L211.451 350.798L232.593 371.737L253.735 350.798L274.885 371.737L296.027 350.798L317.168 371.737L338.318 350.798L359.46 371.737L380.61 350.798L401.752 371.737L422.894 350.798L444.036 371.737L465.178 350.798L486.328 371.737L507.469 350.798L528.619 371.737L549.761 350.798L570.903 371.737L592.053 350.798L613.195 371.737L634.345 350.798L655.495 371.737L676.637 350.798L697.779 371.737L718.929 350.798L740.078 371.737L761.22 350.798L782.37 371.737L803.52 350.798L824.662 371.737L845.812 350.798L866.954 371.737L888.096 350.798L909.238 371.737L930.388 350.798L951.529 371.737L972.671 350.798L993.813 371.737L1014.96 350.798L1036.11 371.737L1057.25 350.798L1078.39 371.737L1099.53 350.798L1120.68 371.737L1141.82 350.798L1162.96 371.737L1184.11 350.798L1205.26 371.737L1226.4 350.798L1247.55 371.737L1268.69 350.798L1289.83 371.737L1310.98 350.798L1332.12 371.737L1353.27 350.798L1374.42 371.737L1395.56 350.798L1416.71 371.737L1437.85 350.798L1458.99 371.737L1480.14 350.798L1501.28 371.737L1522.42 350.798L1543.57 371.737L1564.72 350.798L1585.86 371.737L1607 350.798M1607 372.72L1585.86 393.66L1564.72 372.72L1543.57 393.66L1522.42 372.72L1501.28 393.66L1480.14 372.72L1458.99 393.66L1437.85 372.72L1416.71 393.66L1395.56 372.72L1374.42 393.66L1353.27 372.72L1332.12 393.66L1310.98 372.72L1289.83 393.66L1268.69 372.72L1247.55 393.66L1226.4 372.72L1205.26 393.66L1184.11 372.72L1162.96 393.66L1141.82 372.72L1120.68 393.66L1099.53 372.72L1078.39 393.66L1057.25 372.72L1036.11 393.66L1014.96 372.72L993.813 393.66L972.671 372.72L951.529 393.66L930.388 372.72L909.238 393.66L888.096 372.72L866.954 393.66L845.812 372.72L824.662 393.66L803.52 372.72L782.37 393.66L761.22 372.72L740.078 393.66L718.929 372.72L697.779 393.66L676.637 372.72L655.495 393.66L634.345 372.72L613.195 393.66L592.053 372.72L570.903 393.66L549.761 372.72L528.619 393.66L507.469 372.72L486.328 393.66L465.178 372.72L444.036 393.66L422.894 372.72L401.752 393.66L380.61 372.72L359.46 393.66L338.318 372.72L317.168 393.66L296.027 372.72L274.885 393.66L253.735 372.72L232.593 393.66L211.451 372.72L190.301 393.66L169.159 372.72L148.009 393.66L126.867 372.72L105.725 393.66L84.5755 372.72L63.4337 393.66L42.2918 372.72L21.15 393.66L0 372.72M0 394.643L21.15 415.59L42.2918 394.643L63.4337 415.59L84.5755 394.643L105.725 415.59L126.867 394.643L148.009 415.59L169.159 394.643L190.301 415.59L211.451 394.643L232.593 415.59L253.735 394.643L274.885 415.59L296.027 394.643L317.168 415.59L338.318 394.643L359.46 415.59L380.61 394.643L401.752 415.59L422.894 394.643L444.036 415.59L465.178 394.643L486.328 415.59L507.469 394.643L528.619 415.59L549.761 394.643L570.903 415.59L592.053 394.643L613.195 415.59L634.345 394.643L655.495 415.59L676.637 394.643L697.779 415.59L718.929 394.643L740.078 415.59L761.22 394.643L782.37 415.59L803.52 394.643L824.662 415.59L845.812 394.643L866.954 415.59L888.096 394.643L909.238 415.59L930.388 394.643L951.529 415.59L972.671 394.643L993.813 415.59L1014.96 394.643L1036.11 415.59L1057.25 394.643L1078.39 415.59L1099.53 394.643L1120.68 415.59L1141.82 394.643L1162.96 415.59L1184.11 394.643L1205.26 415.59L1226.4 394.643L1247.55 415.59L1268.69 394.643L1289.83 415.59L1310.98 394.643L1332.12 415.59L1353.27 394.643L1374.42 415.59L1395.56 394.643L1416.71 415.59L1437.85 394.643L1458.99 415.59L1480.14 394.643L1501.28 415.59L1522.42 394.643L1543.57 415.59L1564.72 394.643L1585.86 415.59L1607 394.643M1607 416.565L1585.86 437.512L1564.72 416.565L1543.57 437.512L1522.42 416.565L1501.28 437.512L1480.14 416.565L1458.99 437.512L1437.85 416.565L1416.71 437.512L1395.56 416.565L1374.42 437.512L1353.27 416.565L1332.12 437.512L1310.98 416.565L1289.83 437.512L1268.69 416.565L1247.55 437.512L1226.4 416.565L1205.26 437.512L1184.11 416.565L1162.96 437.512L1141.82 416.565L1120.68 437.512L1099.53 416.565L1078.39 437.512L1057.25 416.565L1036.11 437.512L1014.96 416.565L993.813 437.512L972.671 416.565L951.529 437.512L930.388 416.565L909.238 437.512L888.096 416.565L866.954 437.512L845.812 416.565L824.662 437.512L803.52 416.565L782.37 437.512L761.22 416.565L740.078 437.512L718.929 416.565L697.779 437.512L676.637 416.565L655.495 437.512L634.345 416.565L613.195 437.512L592.053 416.565L570.903 437.512L549.761 416.565L528.619 437.512L507.469 416.565L486.328 437.512L465.178 416.565L444.036 437.512L422.894 416.565L401.752 437.512L380.61 416.565L359.46 437.512L338.318 416.565L317.168 437.512L296.027 416.565L274.885 437.512L253.735 416.565L232.593 437.512L211.451 416.565L190.301 437.512L169.159 416.565L148.009 437.512L126.867 416.565L105.725 437.512L84.5755 416.565L63.4337 437.512L42.2918 416.565L21.15 437.512L0 416.565M0 438.496L21.15 459.435L42.2918 438.496L63.4337 459.435L84.5755 438.496L105.725 459.435L126.867 438.496L148.009 459.435L169.159 438.496L190.301 459.435L211.451 438.496L232.593 459.435L253.735 438.496L274.885 459.435L296.027 438.496L317.168 459.435L338.318 438.496L359.46 459.435L380.61 438.496L401.752 459.435L422.894 438.496L444.036 459.435L465.178 438.496L486.328 459.435L507.469 438.496L528.619 459.435L549.761 438.496L570.903 459.435L592.053 438.496L613.195 459.435L634.345 438.496L655.495 459.435L676.637 438.496L697.779 459.435L718.929 438.496L740.078 459.435L761.22 438.496L782.37 459.435L803.52 438.496L824.662 459.435L845.812 438.496L866.954 459.435L888.096 438.496L909.238 459.435L930.388 438.496L951.529 459.435L972.671 438.496L993.813 459.435L1014.96 438.496L1036.11 459.435L1057.25 438.496L1078.39 459.435L1099.53 438.496L1120.68 459.435L1141.82 438.496L1162.96 459.435L1184.11 438.496L1205.26 459.435L1226.4 438.496L1247.55 459.435L1268.69 438.496L1289.83 459.435L1310.98 438.496L1332.12 459.435L1353.27 438.496L1374.42 459.435L1395.56 438.496L1416.71 459.435L1437.85 438.496L1458.99 459.435L1480.14 438.496L1501.28 459.435L1522.42 438.496L1543.57 459.435L1564.72 438.496L1585.86 459.435L1607 438.496M1607 460.418L1585.86 481.357L1564.72 460.418L1543.57 481.357L1522.42 460.418L1501.28 481.357L1480.14 460.418L1458.99 481.357L1437.85 460.418L1416.71 481.357L1395.56 460.418L1374.42 481.357L1353.27 460.418L1332.12 481.357L1310.98 460.418L1289.83 481.357L1268.69 460.418L1247.55 481.357L1226.4 460.418L1205.26 481.357L1184.11 460.418L1162.96 481.357L1141.82 460.418L1120.68 481.357L1099.53 460.418L1078.39 481.357L1057.25 460.418L1036.11 481.357L1014.96 460.418L993.813 481.357L972.671 460.418L951.529 481.357L930.388 460.418L909.238 481.357L888.096 460.418L866.954 481.357L845.812 460.418L824.662 481.357L803.52 460.418L782.37 481.357L761.22 460.418L740.078 481.357L718.929 460.418L697.779 481.357L676.637 460.418L655.495 481.357L634.345 460.418L613.195 481.357L592.053 460.418L570.903 481.357L549.761 460.418L528.619 481.357L507.469 460.418L486.328 481.357L465.178 460.418L444.036 481.357L422.894 460.418L401.752 481.357L380.61 460.418L359.46 481.357L338.318 460.418L317.168 481.357L296.027 460.418L274.885 481.357L253.735 460.418L232.593 481.357L211.451 460.418L190.301 481.357L169.159 460.418L148.009 481.357L126.867 460.418L105.725 481.357L84.5755 460.418L63.4337 481.357L42.2918 460.418L21.15 481.357L0 460.418M0 482.34L21.15 503.288L42.2918 482.34L63.4337 503.288L84.5755 482.34L105.725 503.288L126.867 482.34L148.009 503.288L169.159 482.34L190.301 503.288L211.451 482.34L232.593 503.288L253.735 482.34L274.885 503.288L296.027 482.34L317.168 503.288L338.318 482.34L359.46 503.288L380.61 482.34L401.752 503.288L422.894 482.34L444.036 503.288L465.178 482.34L486.328 503.288L507.469 482.34L528.619 503.288L549.761 482.34L570.903 503.288L592.053 482.34L613.195 503.288L634.345 482.34L655.495 503.288L676.637 482.34L697.779 503.288L718.929 482.34L740.078 503.288L761.22 482.34L782.37 503.288L803.52 482.34L824.662 503.288L845.812 482.34L866.954 503.288L888.096 482.34L909.238 503.288L930.388 482.34L951.529 503.288L972.671 482.34L993.813 503.288L1014.96 482.34L1036.11 503.288L1057.25 482.34L1078.39 503.288L1099.53 482.34L1120.68 503.288L1141.82 482.34L1162.96 503.288L1184.11 482.34L1205.26 503.288L1226.4 482.34L1247.55 503.288L1268.69 482.34L1289.83 503.288L1310.98 482.34L1332.12 503.288L1353.27 482.34L1374.42 503.288L1395.56 482.34L1416.71 503.288L1437.85 482.34L1458.99 503.288L1480.14 482.34L1501.28 503.288L1522.42 482.34L1543.57 503.288L1564.72 482.34L1585.86 503.288L1607 482.34M1607 504.263L1585.86 525.21L1564.72 504.263L1543.57 525.21L1522.42 504.263L1501.28 525.21L1480.14 504.263L1458.99 525.21L1437.85 504.263L1416.71 525.21L1395.56 504.263L1374.42 525.21L1353.27 504.263L1332.12 525.21L1310.98 504.263L1289.83 525.21L1268.69 504.263L1247.55 525.21L1226.4 504.263L1205.26 525.21L1184.11 504.263L1162.96 525.21L1141.82 504.263L1120.68 525.21L1099.53 504.263L1078.39 525.21L1057.25 504.263L1036.11 525.21L1014.96 504.263L993.813 525.21L972.671 504.263L951.529 525.21L930.388 504.263L909.238 525.21L888.096 504.263L866.954 525.21L845.812 504.263L824.662 525.21L803.52 504.263L782.37 525.21L761.22 504.263L740.078 525.21L718.929 504.263L697.779 525.21L676.637 504.263L655.495 525.21L634.345 504.263L613.195 525.21L592.053 504.263L570.903 525.21L549.761 504.263L528.619 525.21L507.469 504.263L486.328 525.21L465.178 504.263L444.036 525.21L422.894 504.263L401.752 525.21L380.61 504.263L359.46 525.21L338.318 504.263L317.168 525.21L296.027 504.263L274.885 525.21L253.735 504.263L232.593 525.21L211.451 504.263L190.301 525.21L169.159 504.263L148.009 525.21L126.867 504.263L105.725 525.21L84.5755 504.263L63.4337 525.21L42.2918 504.263L21.15 525.21L0 504.263M0 526.193L21.15 547.132L42.2918 526.193L63.4337 547.132L84.5755 526.193L105.725 547.132L126.867 526.193L148.009 547.132L169.159 526.193L190.301 547.132L211.451 526.193L232.593 547.132L253.735 526.193L274.885 547.132L296.027 526.193L317.168 547.132L338.318 526.193L359.46 547.132L380.61 526.193L401.752 547.132L422.894 526.193L444.036 547.132L465.178 526.193L486.328 547.132L507.469 526.193L528.619 547.132L549.761 526.193L570.903 547.132L592.053 526.193L613.195 547.132L634.345 526.193L655.495 547.132L676.637 526.193L697.779 547.132L718.929 526.193L740.078 547.132L761.22 526.193L782.37 547.132L803.52 526.193L824.662 547.132L845.812 526.193L866.954 547.132L888.096 526.193L909.238 547.132L930.388 526.193L951.529 547.132L972.671 526.193L993.813 547.132L1014.96 526.193L1036.11 547.132L1057.25 526.193L1078.39 547.132L1099.53 526.193L1120.68 547.132L1141.82 526.193L1162.96 547.132L1184.11 526.193L1205.26 547.132L1226.4 526.193L1247.55 547.132L1268.69 526.193L1289.83 547.132L1310.98 526.193L1332.12 547.132L1353.27 526.193L1374.42 547.132L1395.56 526.193L1416.71 547.132L1437.85 526.193L1458.99 547.132L1480.14 526.193L1501.28 547.132L1522.42 526.193L1543.57 547.132L1564.72 526.193L1585.86 547.132L1607 526.193M1607 548.115L1585.86 569.055L1564.72 548.115L1543.57 569.055L1522.42 548.115L1501.28 569.055L1480.14 548.115L1458.99 569.055L1437.85 548.115L1416.71 569.055L1395.56 548.115L1374.42 569.055L1353.27 548.115L1332.12 569.055L1310.98 548.115L1289.83 569.055L1268.69 548.115L1247.55 569.055L1226.4 548.115L1205.26 569.055L1184.11 548.115L1162.96 569.055L1141.82 548.115L1120.68 569.055L1099.53 548.115L1078.39 569.055L1057.25 548.115L1036.11 569.055L1014.96 548.115L993.813 569.055L972.671 548.115L951.529 569.055L930.388 548.115L909.238 569.055L888.096 548.115L866.954 569.055L845.812 548.115L824.662 569.055L803.52 548.115L782.37 569.055L761.22 548.115L740.078 569.055L718.929 548.115L697.779 569.055L676.637 548.115L655.495 569.055L634.345 548.115L613.195 569.055L592.053 548.115L570.903 569.055L549.761 548.115L528.619 569.055L507.469 548.115L486.328 569.055L465.178 548.115L444.036 569.055L422.894 548.115L401.752 569.055L380.61 548.115L359.46 569.055L338.318 548.115L317.168 569.055L296.027 548.115L274.885 569.055L253.735 548.115L232.593 569.055L211.451 548.115L190.301 569.055L169.159 548.115L148.009 569.055L126.867 548.115L105.725 569.055L84.5755 548.115L63.4337 569.055L42.2918 548.115L21.15 569.055L0 548.115M0 570.038L21.15 590.985L42.2918 570.038L63.4337 590.985L84.5755 570.038L105.725 590.985L126.867 570.038L148.009 590.985L169.159 570.038L190.301 590.985L211.451 570.038L232.593 590.985L253.735 570.038L274.885 590.985L296.027 570.038L317.168 590.985L338.318 570.038L359.46 590.985L380.61 570.038L401.752 590.985L422.894 570.038L444.036 590.985L465.178 570.038L486.328 590.985L507.469 570.038L528.619 590.985L549.761 570.038L570.903 590.985L592.053 570.038L613.195 590.985L634.345 570.038L655.495 590.985L676.637 570.038L697.779 590.985L718.929 570.038L740.078 590.985L761.22 570.038L782.37 590.985L803.52 570.038L824.662 590.985L845.812 570.038L866.954 590.985L888.096 570.038L909.238 590.985L930.388 570.038L951.529 590.985L972.671 570.038L993.813 590.985L1014.96 570.038L1036.11 590.985L1057.25 570.038L1078.39 590.985L1099.53 570.038L1120.68 590.985L1141.82 570.038L1162.96 590.985L1184.11 570.038L1205.26 590.985L1226.4 570.038L1247.55 590.985L1268.69 570.038L1289.83 590.985L1310.98 570.038L1332.12 590.985L1353.27 570.038L1374.42 590.985L1395.56 570.038L1416.71 590.985L1437.85 570.038L1458.99 590.985L1480.14 570.038L1501.28 590.985L1522.42 570.038L1543.57 590.985L1564.72 570.038L1585.86 590.985L1607 570.038M1607 591.968L1585.86 612.907L1564.72 591.968L1543.57 612.907L1522.42 591.968L1501.28 612.907L1480.14 591.968L1458.99 612.907L1437.85 591.968L1416.71 612.907L1395.56 591.968L1374.42 612.907L1353.27 591.968L1332.12 612.907L1310.98 591.968L1289.83 612.907L1268.69 591.968L1247.55 612.907L1226.4 591.968L1205.26 612.907L1184.11 591.968L1162.96 612.907L1141.82 591.968L1120.68 612.907L1099.53 591.968L1078.39 612.907L1057.25 591.968L1036.11 612.907L1014.96 591.968L993.813 612.907L972.671 591.968L951.529 612.907L930.388 591.968L909.238 612.907L888.096 591.968L866.954 612.907L845.812 591.968L824.662 612.907L803.52 591.968L782.37 612.907L761.22 591.968L740.078 612.907L718.929 591.968L697.779 612.907L676.637 591.968L655.495 612.907L634.345 591.968L613.195 612.907L592.053 591.968L570.903 612.907L549.761 591.968L528.619 612.907L507.469 591.968L486.328 612.907L465.178 591.968L444.036 612.907L422.894 591.968L401.752 612.907L380.61 591.968L359.46 612.907L338.318 591.968L317.168 612.907L296.027 591.968L274.885 612.907L253.735 591.968L232.593 612.907L211.451 591.968L190.301 612.907L169.159 591.968L148.009 612.907L126.867 591.968L105.725 612.907L84.5755 591.968L63.4337 612.907L42.2918 591.968L21.15 612.907L0 591.968M0 613.891L21.15 634.83L42.2918 613.891L63.4337 634.83L84.5755 613.891L105.725 634.83L126.867 613.891L148.009 634.83L169.159 613.891L190.301 634.83L211.451 613.891L232.593 634.83L253.735 613.891L274.885 634.83L296.027 613.891L317.168 634.83L338.318 613.891L359.46 634.83L380.61 613.891L401.752 634.83L422.894 613.891L444.036 634.83L465.178 613.891L486.328 634.83L507.469 613.891L528.619 634.83L549.761 613.891L570.903 634.83L592.053 613.891L613.195 634.83L634.345 613.891L655.495 634.83L676.637 613.891L697.779 634.83L718.929 613.891L740.078 634.83L761.22 613.891L782.37 634.83L803.52 613.891L824.662 634.83L845.812 613.891L866.954 634.83L888.096 613.891L909.238 634.83L930.388 613.891L951.529 634.83L972.671 613.891L993.813 634.83L1014.96 613.891L1036.11 634.83L1057.25 613.891L1078.39 634.83L1099.53 613.891L1120.68 634.83L1141.82 613.891L1162.96 634.83L1184.11 613.891L1205.26 634.83L1226.4 613.891L1247.55 634.83L1268.69 613.891L1289.83 634.83L1310.98 613.891L1332.12 634.83L1353.27 613.891L1374.42 634.83L1395.56 613.891L1416.71 634.83L1437.85 613.891L1458.99 634.83L1480.14 613.891L1501.28 634.83L1522.42 613.891L1543.57 634.83L1564.72 613.891L1585.86 634.83L1607 613.891M1607 635.813L1585.86 656.752L1564.72 635.813L1543.57 656.752L1522.42 635.813L1501.28 656.752L1480.14 635.813L1458.99 656.752L1437.85 635.813L1416.71 656.752L1395.56 635.813L1374.42 656.752L1353.27 635.813L1332.12 656.752L1310.98 635.813L1289.83 656.752L1268.69 635.813L1247.55 656.752L1226.4 635.813L1205.26 656.752L1184.11 635.813L1162.96 656.752L1141.82 635.813L1120.68 656.752L1099.53 635.813L1078.39 656.752L1057.25 635.813L1036.11 656.752L1014.96 635.813L993.813 656.752L972.671 635.813L951.529 656.752L930.388 635.813L909.238 656.752L888.096 635.813L866.954 656.752L845.812 635.813L824.662 656.752L803.52 635.813L782.37 656.752L761.22 635.813L740.078 656.752L718.929 635.813L697.779 656.752L676.637 635.813L655.495 656.752L634.345 635.813L613.195 656.752L592.053 635.813L570.903 656.752L549.761 635.813L528.619 656.752L507.469 635.813L486.328 656.752L465.178 635.813L444.036 656.752L422.894 635.813L401.752 656.752L380.61 635.813L359.46 656.752L338.318 635.813L317.168 656.752L296.027 635.813L274.885 656.752L253.735 635.813L232.593 656.752L211.451 635.813L190.301 656.752L169.159 635.813L148.009 656.752L126.867 635.813L105.725 656.752L84.5755 635.813L63.4337 656.752L42.2918 635.813L21.15 656.752L0 635.813M0 657.735L21.15 678.683L42.2918 657.735L63.4337 678.683L84.5755 657.735L105.725 678.683L126.867 657.735L148.009 678.683L169.159 657.735L190.301 678.683L211.451 657.735L232.593 678.683L253.735 657.735L274.885 678.683L296.027 657.735L317.168 678.683L338.318 657.735L359.46 678.683L380.61 657.735L401.752 678.683L422.894 657.735L444.036 678.683L465.178 657.735L486.328 678.683L507.469 657.735L528.619 678.683L549.761 657.735L570.903 678.683L592.053 657.735L613.195 678.683L634.345 657.735L655.495 678.683L676.637 657.735L697.779 678.683L718.929 657.735L740.078 678.683L761.22 657.735L782.37 678.683L803.52 657.735L824.662 678.683L845.812 657.735L866.954 678.683L888.096 657.735L909.238 678.683L930.388 657.735L951.529 678.683L972.671 657.735L993.813 678.683L1014.96 657.735L1036.11 678.683L1057.25 657.735L1078.39 678.683L1099.53 657.735L1120.68 678.683L1141.82 657.735L1162.96 678.683L1184.11 657.735L1205.26 678.683L1226.4 657.735L1247.55 678.683L1268.69 657.735L1289.83 678.683L1310.98 657.735L1332.12 678.683L1353.27 657.735L1374.42 678.683L1395.56 657.735L1416.71 678.683L1437.85 657.735L1458.99 678.683L1480.14 657.735L1501.28 678.683L1522.42 657.735L1543.57 678.683L1564.72 657.735L1585.86 678.683L1607 657.735M1607 679.666L1585.86 700.605L1564.72 679.666L1543.57 700.605L1522.42 679.666L1501.28 700.605L1480.14 679.666L1458.99 700.605L1437.85 679.666L1416.71 700.605L1395.56 679.666L1374.42 700.605L1353.27 679.666L1332.12 700.605L1310.98 679.666L1289.83 700.605L1268.69 679.666L1247.55 700.605L1226.4 679.666L1205.26 700.605L1184.11 679.666L1162.96 700.605L1141.82 679.666L1120.68 700.605L1099.53 679.666L1078.39 700.605L1057.25 679.666L1036.11 700.605L1014.96 679.666L993.813 700.605L972.671 679.666L951.529 700.605L930.388 679.666L909.238 700.605L888.096 679.666L866.954 700.605L845.812 679.666L824.662 700.605L803.52 679.666L782.37 700.605L761.22 679.666L740.078 700.605L718.929 679.666L697.779 700.605L676.637 679.666L655.495 700.605L634.345 679.666L613.195 700.605L592.053 679.666L570.903 700.605L549.761 679.666L528.619 700.605L507.469 679.666L486.328 700.605L465.178 679.666L444.036 700.605L422.894 679.666L401.752 700.605L380.61 679.666L359.46 700.605L338.318 679.666L317.168 700.605L296.027 679.666L274.885 700.605L253.735 679.666L232.593 700.605L211.451 679.666L190.301 700.605L169.159 679.666L148.009 700.605L126.867 679.666L105.725 700.605L84.5755 679.666L63.4337 700.605L42.2918 679.666L21.15 700.605L0 679.666M0 701.588L21.15 722.527L42.2918 701.588L63.4337 722.527L84.5755 701.588L105.725 722.527L126.867 701.588L148.009 722.527L169.159 701.588L190.301 722.527L211.451 701.588L232.593 722.527L253.735 701.588L274.885 722.527L296.027 701.588L317.168 722.527L338.318 701.588L359.46 722.527L380.61 701.588L401.752 722.527L422.894 701.588L444.036 722.527L465.178 701.588L486.328 722.527L507.469 701.588L528.619 722.527L549.761 701.588L570.903 722.527L592.053 701.588L613.195 722.527L634.345 701.588L655.495 722.527L676.637 701.588L697.779 722.527L718.929 701.588L740.078 722.527L761.22 701.588L782.37 722.527L803.52 701.588L824.662 722.527L845.812 701.588L866.954 722.527L888.096 701.588L909.238 722.527L930.388 701.588L951.529 722.527L972.671 701.588L993.813 722.527L1014.96 701.588L1036.11 722.527L1057.25 701.588L1078.39 722.527L1099.53 701.588L1120.68 722.527L1141.82 701.588L1162.96 722.527L1184.11 701.588L1205.26 722.527L1226.4 701.588L1247.55 722.527L1268.69 701.588L1289.83 722.527L1310.98 701.588L1332.12 722.527L1353.27 701.588L1374.42 722.527L1395.56 701.588L1416.71 722.527L1437.85 701.588L1458.99 722.527L1480.14 701.588L1501.28 722.527L1522.42 701.588L1543.57 722.527L1564.72 701.588L1585.86 722.527L1607 701.588M1607 723.51L1585.86 744.458L1564.72 723.51L1543.57 744.458L1522.42 723.51L1501.28 744.458L1480.14 723.51L1458.99 744.458L1437.85 723.51L1416.71 744.458L1395.56 723.51L1374.42 744.458L1353.27 723.51L1332.12 744.458L1310.98 723.51L1289.83 744.458L1268.69 723.51L1247.55 744.458L1226.4 723.51L1205.26 744.458L1184.11 723.51L1162.96 744.458L1141.82 723.51L1120.68 744.458L1099.53 723.51L1078.39 744.458L1057.25 723.51L1036.11 744.458L1014.96 723.51L993.813 744.458L972.671 723.51L951.529 744.458L930.388 723.51L909.238 744.458L888.096 723.51L866.954 744.458L845.812 723.51L824.662 744.458L803.52 723.51L782.37 744.458L761.22 723.51L740.078 744.458L718.929 723.51L697.779 744.458L676.637 723.51L655.495 744.458L634.345 723.51L613.195 744.458L592.053 723.51L570.903 744.458L549.761 723.51L528.619 744.458L507.469 723.51L486.328 744.458L465.178 723.51L444.036 744.458L422.894 723.51L401.752 744.458L380.61 723.51L359.46 744.458L338.318 723.51L317.168 744.458L296.027 723.51L274.885 744.458L253.735 723.51L232.593 744.458L211.451 723.51L190.301 744.458L169.159 723.51L148.009 744.458L126.867 723.51L105.725 744.458L84.5755 723.51L63.4337 744.458L42.2918 723.51L21.15 744.458L0 723.51M0 745.433L21.15 766.38L42.2918 745.433L63.4337 766.38L84.5755 745.433L105.725 766.38L126.867 745.433L148.009 766.38L169.159 745.433L190.301 766.38L211.451 745.433L232.593 766.38L253.735 745.433L274.885 766.38L296.027 745.433L317.168 766.38L338.318 745.433L359.46 766.38L380.61 745.433L401.752 766.38L422.894 745.433L444.036 766.38L465.178 745.433L486.328 766.38L507.469 745.433L528.619 766.38L549.761 745.433L570.903 766.38L592.053 745.433L613.195 766.38L634.345 745.433L655.495 766.38L676.637 745.433L697.779 766.38L718.929 745.433L740.078 766.38L761.22 745.433L782.37 766.38L803.52 745.433L824.662 766.38L845.812 745.433L866.954 766.38L888.096 745.433L909.238 766.38L930.388 745.433L951.529 766.38L972.671 745.433L993.813 766.38L1014.96 745.433L1036.11 766.38L1057.25 745.433L1078.39 766.38L1099.53 745.433L1120.68 766.38L1141.82 745.433L1162.96 766.38L1184.11 745.433L1205.26 766.38L1226.4 745.433L1247.55 766.38L1268.69 745.433L1289.83 766.38L1310.98 745.433L1332.12 766.38L1353.27 745.433L1374.42 766.38L1395.56 745.433L1416.71 766.38L1437.85 745.433L1458.99 766.38L1480.14 745.433L1501.28 766.38L1522.42 745.433L1543.57 766.38L1564.72 745.433L1585.86 766.38L1607 745.433M1607 767.363L1585.86 788.302L1564.72 767.363L1543.57 788.302L1522.42 767.363L1501.28 788.302L1480.14 767.363L1458.99 788.302L1437.85 767.363L1416.71 788.302L1395.56 767.363L1374.42 788.302L1353.27 767.363L1332.12 788.302L1310.98 767.363L1289.83 788.302L1268.69 767.363L1247.55 788.302L1226.4 767.363L1205.26 788.302L1184.11 767.363L1162.96 788.302L1141.82 767.363L1120.68 788.302L1099.53 767.363L1078.39 788.302L1057.25 767.363L1036.11 788.302L1014.96 767.363L993.813 788.302L972.671 767.363L951.529 788.302L930.388 767.363L909.238 788.302L888.096 767.363L866.954 788.302L845.812 767.363L824.662 788.302L809.417 763.268L782.37 788.302L761.22 767.363L740.078 788.302L718.929 767.363L697.779 788.302L676.637 767.363L655.495 788.302L634.345 767.363L613.195 788.302L592.053 767.363L570.903 788.302L549.761 767.363L528.619 788.302L507.469 767.363L486.328 788.302L465.178 767.363L444.036 788.302L422.894 767.363L401.752 788.302L380.61 767.363L359.46 788.302L338.318 767.363L317.168 788.302L296.027 767.363L274.885 788.302L253.735 767.363L232.593 788.302L211.451 767.363L190.301 788.302L169.159 767.363L148.009 788.302L126.867 767.363L105.725 788.302L84.5755 767.363L63.4337 788.302L42.2918 767.363L21.15 788.302L0 767.363M0 789.286L21.15 810.225L42.2918 789.286L63.4337 810.225L84.5755 789.286L105.725 810.225L126.867 789.286L148.009 810.225L169.159 789.286L190.301 810.225L211.451 789.286L232.593 810.225L253.735 789.286L274.885 810.225L296.027 789.286L317.168 810.225L338.318 789.286L359.46 810.225L380.61 789.286L401.752 810.225L422.894 789.286L444.036 810.225L465.178 789.286L486.328 810.225L507.469 789.286L528.619 810.225L549.761 789.286L570.903 810.225L592.053 789.286L613.195 810.225L634.345 789.286L655.495 810.225L676.637 789.286L697.779 810.225L718.929 789.286L740.078 810.225L761.22 789.286L782.37 810.225L803.52 789.286L824.662 810.225L845.812 789.286L866.954 810.225L888.096 789.286L909.238 810.225L930.388 789.286L951.529 810.225L972.671 789.286L993.813 810.225L1014.96 789.286L1036.11 810.225L1057.25 789.286L1078.39 810.225L1099.53 789.286L1120.68 810.225L1141.82 789.286L1162.96 810.225L1184.11 789.286L1205.26 810.225L1226.4 789.286L1247.55 810.225L1268.69 789.286L1289.83 810.225L1310.98 789.286L1332.12 810.225L1353.27 789.286L1374.42 810.225L1395.56 789.286L1416.71 810.225L1437.85 789.286L1458.99 810.225L1480.14 789.286L1501.28 810.225L1522.42 789.286L1543.57 810.225L1564.72 789.286L1585.86 810.225L1607 789.286M1607 811.208L1585.86 832.155L1564.72 811.208L1543.57 832.155L1522.42 811.208L1501.28 832.155L1480.14 811.208L1458.99 832.155L1437.85 811.208L1416.71 832.155L1395.56 811.208L1374.42 832.155L1353.27 811.208L1332.12 832.155L1310.98 811.208L1289.83 832.155L1268.69 811.208L1247.55 832.155L1226.4 811.208L1205.26 832.155L1184.11 811.208L1162.96 832.155L1141.82 811.208L1120.68 832.155L1099.53 811.208L1078.39 832.155L1057.25 811.208L1036.11 832.155L1014.96 811.208L993.813 832.155L972.671 811.208L951.529 832.155L930.388 811.208L909.238 832.155L888.096 811.208L866.954 832.155L845.812 811.208L824.662 832.155L803.52 811.208L782.37 832.155L761.22 811.208L740.078 832.155L718.929 811.208L697.779 832.155L676.637 811.208L655.495 832.155L634.345 811.208L613.195 832.155L592.053 811.208L570.903 832.155L549.761 811.208L528.619 832.155L507.469 811.208L486.328 832.155L465.178 811.208L444.036 832.155L422.894 811.208L401.752 832.155L380.61 811.208L359.46 832.155L338.318 811.208L317.168 832.155L296.027 811.208L274.885 832.155L253.735 811.208L232.593 832.155L211.451 811.208L190.301 832.155L169.159 811.208L148.009 832.155L126.867 811.208L105.725 832.155L84.5755 811.208L63.4337 832.155L42.2918 811.208L21.15 832.155L0 811.208M0 833.139L21.15 854.078L42.2918 833.139L63.4337 854.078L84.5755 833.139L105.725 854.078L126.867 833.139L148.009 854.078L169.159 833.139L190.301 854.078L211.451 833.139L232.593 854.078L253.735 833.139L274.885 854.078L296.027 833.139L317.168 854.078L338.318 833.139L359.46 854.078L380.61 833.139L401.752 854.078L422.894 833.139L444.036 854.078L465.178 833.139L486.328 854.078L507.469 833.139L528.619 854.078L549.761 833.139L570.903 854.078L592.053 833.139L613.195 854.078L634.345 833.139L655.495 854.078L676.637 833.139L697.779 854.078L718.929 833.139L740.078 854.078L761.22 833.139L782.37 854.078L807.768 828.929L824.662 854.078L845.812 833.139L866.954 854.078L888.096 833.139L909.238 854.078L930.388 833.139L951.529 854.078L972.671 833.139L993.813 854.078L1014.96 833.139L1036.11 854.078L1057.25 833.139L1078.39 854.078L1099.53 833.139L1120.68 854.078L1141.82 833.139L1162.96 854.078L1184.11 833.139L1205.26 854.078L1226.4 833.139L1247.55 854.078L1268.69 833.139L1289.83 854.078L1310.98 833.139L1332.12 854.078L1353.27 833.139L1374.42 854.078L1395.56 833.139L1416.71 854.078L1437.85 833.139L1458.99 854.078L1480.14 833.139L1501.28 854.078L1522.42 833.139L1543.57 854.078L1564.72 833.139L1585.86 854.078L1607 833.139M1607 855.061L1585.86 876L1564.72 855.061L1543.57 876L1522.42 855.061L1501.28 876L1480.14 855.061L1458.99 876L1437.85 855.061L1416.71 876L1395.56 855.061L1374.42 876L1353.27 855.061L1332.12 876L1310.98 855.061L1289.83 876L1268.69 855.061L1247.55 876L1226.4 855.061L1205.26 876L1184.11 855.061L1162.96 876L1141.82 855.061L1120.68 876L1099.53 855.061L1078.39 876L1057.25 855.061L1036.11 876L1014.96 855.061L993.813 876L972.671 855.061L951.529 876L930.388 855.061L909.238 876L888.096 855.061L866.954 876L845.812 855.061L824.662 876L803.52 855.061L782.37 876L761.22 855.061L740.078 876L718.929 855.061L697.779 876L676.637 855.061L655.495 876L634.345 855.061L613.195 876L592.053 855.061L570.903 876L549.761 855.061L528.619 876L507.469 855.061L486.328 876L465.178 855.061L444.036 876L422.894 855.061L401.752 876L380.61 855.061L359.46 876L338.318 855.061L317.168 876L296.027 855.061L274.885 876L253.735 855.061L232.593 876L211.451 855.061L190.301 876L169.159 855.061L148.009 876L126.867 855.061L105.725 876L84.5755 855.061L63.4337 876L42.2918 855.061L21.15 876L0 855.061"
    stroke="#323235"
    stroke-width="2"
    stroke-miterlimit="10"
  />
</svg>
