<svg width="645" height="645" viewBox="0 0 645 645" fill="none" xmlns="http://www.w3.org/2000/svg">
<path d="M439.277 209.374L363.384 165.729C338.552 151.414 308.125 151.414 283.293 165.729L207.05 209.374C182.568 223.689 167.179 250.225 167.179 278.506V366.144C167.179 394.775 182.568 420.962 207.05 435.277L282.943 479.271C307.775 493.586 338.202 493.586 363.034 479.271L438.927 435.277C463.759 420.962 478.798 394.775 478.798 366.144V278.506C479.497 250.225 464.109 223.689 439.277 209.374Z" fill="#18181B"/>
<path d="M261.433 112.953C261.433 145.224 235.272 171.386 203 171.386C170.729 171.386 144.567 145.224 144.567 112.953C144.567 80.6813 170.729 54.5201 203 54.5201C235.272 54.5201 261.433 80.6813 261.433 112.953Z" fill="#18181B"/>
<path d="M151.562 191.63C151.562 223.902 125.401 250.063 93.1297 250.063C60.8582 250.063 34.6969 223.902 34.6969 191.63C34.6969 159.359 60.8582 133.198 93.1297 133.198C125.401 133.198 151.562 159.359 151.562 191.63Z" fill="#18181B"/>
<path d="M139.865 322.5C139.865 354.771 113.704 380.933 81.4327 380.933C49.1612 380.933 23 354.771 23 322.5C23 290.228 49.1612 264.067 81.4327 264.067C113.704 264.067 139.865 290.228 139.865 322.5Z" fill="#18181B"/>
<path d="M152.342 454.149C152.342 486.42 126.181 512.581 93.9092 512.581C61.6377 512.581 35.4765 486.42 35.4765 454.149C35.4765 421.877 61.6377 395.716 93.9092 395.716C126.181 395.716 152.342 421.877 152.342 454.149Z" fill="#18181B"/>
<path d="M261.433 532.047C261.433 564.319 235.272 590.48 203 590.48C170.729 590.48 144.567 564.319 144.567 532.047C144.567 499.776 170.729 473.614 203 473.614C235.272 473.614 261.433 499.776 261.433 532.047Z" fill="#18181B"/>
<path d="M381.433 586.567C381.433 618.839 355.271 645 323 645C290.728 645 264.567 618.839 264.567 586.567C264.567 554.296 290.728 528.135 323 528.135C355.271 528.135 381.433 554.296 381.433 586.567Z" fill="#18181B"/>
<path d="M501.433 532.047C501.433 564.319 475.271 590.48 443 590.48C410.728 590.48 384.567 564.319 384.567 532.047C384.567 499.776 410.728 473.614 443 473.614C475.271 473.614 501.433 499.776 501.433 532.047Z" fill="#18181B"/>
<path d="M611.303 453.37C611.303 485.641 585.142 511.802 552.87 511.802C520.598 511.802 494.437 485.641 494.437 453.37C494.437 421.098 520.598 394.937 552.87 394.937C585.142 394.937 611.303 421.098 611.303 453.37Z" fill="#18181B"/>
<path d="M623 322.5C623 354.771 596.839 380.933 564.567 380.933C532.296 380.933 506.135 354.771 506.135 322.5C506.135 290.228 532.296 264.067 564.567 264.067C596.839 264.067 623 290.228 623 322.5Z" fill="#18181B"/>
<path d="M612.082 190.851C612.082 223.123 585.921 249.284 553.65 249.284C521.378 249.284 495.217 223.123 495.217 190.851C495.217 158.58 521.378 132.419 553.65 132.419C585.921 132.419 612.082 158.58 612.082 190.851Z" fill="#18181B"/>
<path d="M501.433 112.174C501.433 144.445 475.271 170.607 443 170.607C410.728 170.607 384.567 144.445 384.567 112.174C384.567 79.9024 410.728 53.7412 443 53.7412C475.271 53.7412 501.433 79.9024 501.433 112.174Z" fill="#18181B"/>
<path d="M381.433 58.4327C381.433 90.7042 355.271 116.865 323 116.865C290.728 116.865 264.567 90.7042 264.567 58.4327C264.567 26.1612 290.728 0 323 0C355.271 0 381.433 26.1612 381.433 58.4327Z" fill="#18181B"/>
</svg>
