<svg width="274" height="274" viewBox="0 0 274 274" fill="none" xmlns="http://www.w3.org/2000/svg">
<g filter="url(#filter0_dddii_450_269)">
<rect x="32" y="16" width="210" height="210" rx="12" fill="#FAFAFA" shape-rendering="crispEdges"/>
<path d="M140.24 146.688C137.438 146.503 134.206 146.016 131.658 145.286C131.18 145.149 129.204 144.43 128.701 144.201C119.828 140.133 113.647 131.252 113.647 120.949C113.647 106.817 125.262 95.3056 139.548 95.3056C153.707 95.3056 165.244 106.62 165.442 120.592H174.799C174.601 101.515 158.869 86.0548 139.548 86.0548C120.112 86.0548 104.292 101.705 104.292 120.949C104.292 134.215 111.83 145.754 122.866 151.649C124.859 152.692 127.718 153.767 128.689 154.062C131.835 154.989 135.696 155.605 139.133 155.863C140.3 155.95 144.375 155.995 145.563 156H210V146.774H145.672C144.816 146.774 141.077 146.742 140.24 146.688ZM145.672 132.202C144.991 132.202 141.432 132.179 140.775 132.124C139.661 132.03 138.047 131.866 137.009 131.631C135.837 131.32 134.737 130.909 134.241 130.64C130.765 128.779 128.397 125.14 128.397 120.949C128.397 114.851 133.385 109.906 139.548 109.906C145.582 109.906 150.487 114.657 150.683 120.592H159.674C159.485 109.748 150.554 101.009 139.548 101.009C128.42 101.009 119.399 109.935 119.399 120.949C119.399 128.715 123.897 135.423 130.447 138.708C131.455 139.293 133.351 139.905 133.89 140.044C135.74 140.526 138.224 140.854 140.24 141C140.985 141.062 144.634 141.09 145.404 141.094V141.108H209.998V132.202H145.672ZM98.5261 155.966H89.1067V95.3262H75.342V86H98.5261V155.966ZM65 99.9858V108.954H75.342V155.966H84.3924V99.9858H65Z" fill="#D91920"/>
<path d="M193.353 86.6546C189.96 86.6546 187.146 89.3326 187.146 92.6932C187.146 96.0538 189.96 98.8391 193.353 98.8391C196.849 98.8391 199.555 96.0538 199.555 92.6932C199.555 89.3326 196.849 86.6546 193.353 86.6546ZM193.353 97.8483C190.551 97.8483 188.136 95.668 188.136 92.6932C188.136 89.8691 190.551 87.634 193.353 87.634C196.153 87.634 198.556 89.8691 198.556 92.6932C198.556 95.668 196.153 97.8483 193.353 97.8483Z" fill="#D91920"/>
<path d="M195.715 94.3492C195.715 93.6712 195.614 93.0411 194.83 92.7922C195.812 92.4543 195.909 91.8174 195.909 91.4315C195.909 89.8722 194.479 89.6736 193.891 89.6736H191.186V95.7122H192.313V93.2351H193.201C194.479 93.2351 194.585 93.8173 194.585 94.3492C194.585 95.3789 194.585 95.573 194.83 95.7122H195.96C195.715 95.4679 195.812 95.2784 195.715 94.3492ZM193.644 92.3539H192.313V90.4521H193.453C194.242 90.4521 194.777 90.6987 194.777 91.4315C194.777 91.8174 194.585 92.3539 193.644 92.3539Z" fill="#D91920"/>
</g>
<defs>
<filter id="filter0_dddii_450_269" x="0" y="0" width="274" height="274" filterUnits="userSpaceOnUse" color-interpolation-filters="sRGB">
<feFlood flood-opacity="0" result="BackgroundImageFix"/>
<feColorMatrix in="SourceAlpha" type="matrix" values="0 0 0 0 0 0 0 0 0 0 0 0 0 0 0 0 0 0 127 0" result="hardAlpha"/>
<feOffset dy="16"/>
<feGaussianBlur stdDeviation="16"/>
<feComposite in2="hardAlpha" operator="out"/>
<feColorMatrix type="matrix" values="0 0 0 0 0 0 0 0 0 0 0 0 0 0 0 0 0 0 0.08 0"/>
<feBlend mode="normal" in2="BackgroundImageFix" result="effect1_dropShadow_450_269"/>
<feColorMatrix in="SourceAlpha" type="matrix" values="0 0 0 0 0 0 0 0 0 0 0 0 0 0 0 0 0 0 127 0" result="hardAlpha"/>
<feOffset dy="8"/>
<feGaussianBlur stdDeviation="8"/>
<feComposite in2="hardAlpha" operator="out"/>
<feColorMatrix type="matrix" values="0 0 0 0 0 0 0 0 0 0 0 0 0 0 0 0 0 0 0.08 0"/>
<feBlend mode="normal" in2="effect1_dropShadow_450_269" result="effect2_dropShadow_450_269"/>
<feColorMatrix in="SourceAlpha" type="matrix" values="0 0 0 0 0 0 0 0 0 0 0 0 0 0 0 0 0 0 127 0" result="hardAlpha"/>
<feMorphology radius="1" operator="dilate" in="SourceAlpha" result="effect3_dropShadow_450_269"/>
<feOffset/>
<feComposite in2="hardAlpha" operator="out"/>
<feColorMatrix type="matrix" values="0 0 0 0 0 0 0 0 0 0 0 0 0 0 0 0 0 0 0.08 0"/>
<feBlend mode="normal" in2="effect2_dropShadow_450_269" result="effect3_dropShadow_450_269"/>
<feBlend mode="normal" in="SourceGraphic" in2="effect3_dropShadow_450_269" result="shape"/>
<feColorMatrix in="SourceAlpha" type="matrix" values="0 0 0 0 0 0 0 0 0 0 0 0 0 0 0 0 0 0 127 0" result="hardAlpha"/>
<feMorphology radius="1.5" operator="erode" in="SourceAlpha" result="effect4_innerShadow_450_269"/>
<feOffset/>
<feComposite in2="hardAlpha" operator="arithmetic" k2="-1" k3="1"/>
<feColorMatrix type="matrix" values="0 0 0 0 0.894118 0 0 0 0 0.894118 0 0 0 0 0.905882 0 0 0 0.6 0"/>
<feBlend mode="normal" in2="shape" result="effect4_innerShadow_450_269"/>
<feColorMatrix in="SourceAlpha" type="matrix" values="0 0 0 0 0 0 0 0 0 0 0 0 0 0 0 0 0 0 127 0" result="hardAlpha"/>
<feMorphology radius="1" operator="erode" in="SourceAlpha" result="effect5_innerShadow_450_269"/>
<feOffset/>
<feComposite in2="hardAlpha" operator="arithmetic" k2="-1" k3="1"/>
<feColorMatrix type="matrix" values="0 0 0 0 1 0 0 0 0 1 0 0 0 0 1 0 0 0 1 0"/>
<feBlend mode="normal" in2="effect4_innerShadow_450_269" result="effect5_innerShadow_450_269"/>
</filter>
</defs>
</svg>
