<svg width="300" height="300" viewBox="0 0 300 300" fill="none" xmlns="http://www.w3.org/2000/svg">
<rect width="300" height="300" transform="translate(0.333984)" fill="#FFEC00"/>
<path d="M153.779 186.096C149.914 185.839 145.457 185.165 141.942 184.153C141.283 183.963 138.557 182.967 137.863 182.65C125.625 177.013 117.099 164.706 117.099 150.429C117.099 130.846 133.12 114.895 152.825 114.895C172.355 114.895 188.267 130.574 188.541 149.935H201.447C201.174 123.5 179.474 102.076 152.825 102.076C126.016 102.076 104.196 123.763 104.196 150.429C104.196 168.813 114.592 184.802 129.815 192.97C132.563 194.416 136.508 195.906 137.848 196.314C142.187 197.599 147.512 198.453 152.252 198.81C153.862 198.93 159.483 198.994 161.122 199H250V186.216H161.271C160.091 186.216 154.934 186.171 153.779 186.096ZM161.271 166.022C160.333 166.022 155.424 165.991 154.517 165.915C152.981 165.785 150.754 165.557 149.322 165.231C147.706 164.801 146.189 164.232 145.505 163.858C140.711 161.28 137.444 156.237 137.444 150.429C137.444 141.979 144.325 135.126 152.825 135.126C161.147 135.126 167.914 141.71 168.184 149.935H180.585C180.324 134.908 168.006 122.798 152.825 122.798C137.475 122.798 125.033 135.167 125.033 150.429C125.033 161.191 131.237 170.486 140.272 175.039C141.662 175.849 144.277 176.696 145.021 176.889C147.573 177.557 150.999 178.012 153.779 178.215C154.807 178.3 159.84 178.338 160.902 178.345V178.364H249.997V166.022H161.271ZM96.2429 198.953H83.2506V114.923H64.2648V102H96.2429V198.953ZM50 121.38V133.807H64.2648V198.953H76.7481V121.38H50Z" fill="#D91920"/>
<path d="M227.038 102.907C222.359 102.907 218.478 106.618 218.478 111.275C218.478 115.932 222.359 119.791 227.038 119.791C231.861 119.791 235.593 115.932 235.593 111.275C235.593 106.618 231.861 102.907 227.038 102.907ZM227.038 118.418C223.173 118.418 219.842 115.397 219.842 111.275C219.842 107.361 223.173 104.264 227.038 104.264C230.9 104.264 234.215 107.361 234.215 111.275C234.215 115.397 230.9 118.418 227.038 118.418Z" fill="#D91920"/>
<path d="M230.297 113.57C230.297 112.63 230.157 111.757 229.075 111.412C230.431 110.944 230.564 110.061 230.564 109.527C230.564 107.366 228.592 107.091 227.781 107.091H224.049V115.458H225.605V112.026H226.829C228.592 112.026 228.738 112.833 228.738 113.57C228.738 114.996 228.738 115.265 229.075 115.458H230.634C230.297 115.12 230.431 114.857 230.297 113.57ZM227.44 110.805H225.605V108.169H227.176C228.264 108.169 229.002 108.511 229.002 109.527C229.002 110.061 228.738 110.805 227.44 110.805Z" fill="#D91920"/>
</svg>
