<svg width="300" height="300" viewBox="0 0 300 300" fill="none" xmlns="http://www.w3.org/2000/svg">
<rect width="300" height="300" fill="white"/>
<path d="M216.376 208.998C141.516 244.552 95.0565 214.805 65.3165 196.738C63.4762 195.599 60.3483 197.004 63.0622 200.115C72.9701 212.103 105.44 241 147.823 241C190.236 241 215.467 217.906 218.623 213.877C221.758 209.882 219.544 207.679 216.375 208.998H216.376ZM237.401 197.411C235.39 194.799 225.176 194.312 218.749 195.1C212.311 195.865 202.648 199.792 203.488 202.149C203.919 203.032 204.799 202.636 209.221 202.239C213.656 201.798 226.079 200.233 228.668 203.61C231.269 207.011 224.706 223.209 223.507 225.822C222.349 228.434 223.949 229.108 226.125 227.368C228.27 225.629 232.154 221.124 234.761 214.75C237.349 208.341 238.929 199.4 237.401 197.411Z" fill="#FF9900"/>
<path fill-rule="evenodd" clip-rule="evenodd" d="M166.041 136.451C166.041 145.78 166.277 153.559 161.552 161.844C157.738 168.58 151.697 172.722 144.948 172.722C135.734 172.722 130.369 165.717 130.369 155.378C130.369 134.968 148.693 131.264 166.041 131.264V136.451ZM190.238 194.816C188.651 196.23 186.357 196.332 184.568 195.388C176.604 188.787 175.186 185.723 170.799 179.425C157.637 192.829 148.323 196.836 131.246 196.836C111.065 196.836 95.3382 184.409 95.3382 159.52C95.3382 140.088 105.902 126.852 120.919 120.386C133.946 114.66 152.136 113.65 166.041 112.068V108.969C166.041 103.277 166.479 96.5415 163.138 91.6247C160.202 87.2127 154.6 85.3939 149.672 85.3939C140.527 85.3939 132.36 90.075 130.369 99.7744C129.963 101.93 128.378 104.052 126.218 104.153L102.931 101.661C100.974 101.223 98.8146 99.6402 99.3546 96.6423C104.72 68.4876 130.199 60 153.013 60C164.69 60 179.944 63.0987 189.157 71.9228C200.834 82.8006 199.72 97.316 199.72 113.111V150.427C199.72 161.642 204.378 166.559 208.765 172.622C210.317 174.777 210.655 177.371 208.697 178.987C203.804 183.061 195.096 190.64 190.305 194.883L190.237 194.816" fill="black"/>
<path d="M216.376 208.998C141.516 244.552 95.0565 214.805 65.3165 196.738C63.4762 195.599 60.3483 197.004 63.0622 200.115C72.9701 212.103 105.44 241 147.823 241C190.236 241 215.467 217.906 218.623 213.877C221.758 209.882 219.544 207.679 216.375 208.998H216.376ZM237.401 197.411C235.39 194.799 225.176 194.312 218.749 195.1C212.311 195.865 202.648 199.792 203.488 202.149C203.919 203.032 204.799 202.636 209.221 202.239C213.656 201.798 226.079 200.233 228.668 203.61C231.269 207.011 224.706 223.209 223.507 225.822C222.349 228.434 223.949 229.108 226.125 227.368C228.27 225.629 232.154 221.124 234.761 214.75C237.349 208.341 238.929 199.4 237.401 197.411Z" fill="#FF9900"/>
<path fill-rule="evenodd" clip-rule="evenodd" d="M166.041 136.451C166.041 145.78 166.277 153.559 161.552 161.844C157.738 168.58 151.697 172.722 144.948 172.722C135.734 172.722 130.369 165.717 130.369 155.378C130.369 134.968 148.693 131.264 166.041 131.264V136.451ZM190.238 194.816C188.651 196.23 186.357 196.332 184.568 195.388C176.604 188.787 175.186 185.723 170.799 179.425C157.637 192.829 148.323 196.836 131.246 196.836C111.065 196.836 95.3382 184.409 95.3382 159.52C95.3382 140.088 105.902 126.852 120.919 120.386C133.946 114.66 152.136 113.65 166.041 112.068V108.969C166.041 103.277 166.479 96.5415 163.138 91.6247C160.202 87.2127 154.6 85.3939 149.672 85.3939C140.527 85.3939 132.36 90.075 130.369 99.7744C129.963 101.93 128.378 104.052 126.218 104.153L102.931 101.661C100.974 101.223 98.8146 99.6402 99.3546 96.6423C104.72 68.4876 130.199 60 153.013 60C164.69 60 179.944 63.0987 189.157 71.9228C200.834 82.8006 199.72 97.316 199.72 113.111V150.427C199.72 161.642 204.378 166.559 208.765 172.622C210.317 174.777 210.655 177.371 208.697 178.987C203.804 183.061 195.096 190.64 190.305 194.883L190.237 194.816" fill="black"/>
</svg>
