<svg width="300" height="300" viewBox="0 0 300 300" fill="none" xmlns="http://www.w3.org/2000/svg">
<rect width="300" height="300" fill="black"/>
<path d="M216.376 207.998C141.516 243.552 95.0565 213.805 65.3165 195.738C63.4762 194.599 60.3483 196.004 63.0622 199.115C72.9701 211.103 105.44 240 147.823 240C190.236 240 215.467 216.905 218.623 212.877C221.758 208.882 219.545 206.679 216.376 207.998ZM237.401 196.411C235.39 193.799 225.176 193.312 218.749 194.1C212.311 194.865 202.648 198.792 203.488 201.149C203.919 202.032 204.799 201.636 209.221 201.239C213.656 200.798 226.079 199.233 228.668 202.61C231.269 206.011 224.706 222.209 223.507 224.822C222.349 227.434 223.949 228.108 226.125 226.368C228.27 224.629 232.154 220.124 234.761 213.75C237.349 207.341 238.929 198.4 237.401 196.411Z" fill="#FF9900"/>
<path fill-rule="evenodd" clip-rule="evenodd" d="M166.041 135.451C166.041 144.78 166.277 152.559 161.552 160.844C157.738 167.58 151.697 171.722 144.948 171.722C135.734 171.722 130.369 164.717 130.369 154.378C130.369 133.968 148.693 130.264 166.041 130.264V135.451ZM190.238 193.816C188.651 195.23 186.357 195.332 184.568 194.388C176.604 187.787 175.186 184.723 170.799 178.425C157.637 191.829 148.323 195.836 131.246 195.836C111.065 195.836 95.3382 183.409 95.3382 158.52C95.3382 139.088 105.902 125.852 120.919 119.386C133.946 113.66 152.136 112.65 166.041 111.068V107.969C166.041 102.277 166.479 95.5415 163.138 90.6247C160.202 86.2126 154.6 84.3939 149.672 84.3939C140.527 84.3939 132.36 89.075 130.369 98.7744C129.963 100.93 128.378 103.052 126.218 103.153L102.931 100.661C100.974 100.223 98.8146 98.6402 99.3546 95.6423C104.72 67.4876 130.199 59 153.013 59C164.69 59 179.944 62.0987 189.157 70.9228C200.834 81.8006 199.72 96.316 199.72 112.111V149.427C199.72 160.642 204.378 165.559 208.765 171.622C210.317 173.777 210.655 176.371 208.697 177.987C203.804 182.061 195.096 189.64 190.305 193.883L190.238 193.816Z" fill="white"/>
<path d="M216.376 207.998C141.516 243.552 95.0565 213.805 65.3165 195.738C63.4762 194.599 60.3483 196.004 63.0622 199.115C72.9701 211.103 105.44 240 147.823 240C190.236 240 215.467 216.905 218.623 212.877C221.758 208.882 219.545 206.679 216.376 207.998ZM237.401 196.411C235.39 193.799 225.176 193.312 218.749 194.1C212.311 194.865 202.648 198.792 203.488 201.149C203.919 202.032 204.799 201.636 209.221 201.239C213.656 200.798 226.079 199.233 228.668 202.61C231.269 206.011 224.706 222.209 223.507 224.822C222.349 227.434 223.949 228.108 226.125 226.368C228.27 224.629 232.154 220.124 234.761 213.75C237.349 207.341 238.929 198.4 237.401 196.411Z" fill="#FF9900"/>
<path fill-rule="evenodd" clip-rule="evenodd" d="M166.041 135.451C166.041 144.78 166.277 152.559 161.552 160.844C157.738 167.58 151.697 171.722 144.948 171.722C135.734 171.722 130.369 164.717 130.369 154.378C130.369 133.968 148.693 130.264 166.041 130.264V135.451ZM190.238 193.816C188.651 195.23 186.357 195.332 184.568 194.388C176.604 187.787 175.186 184.723 170.799 178.425C157.637 191.829 148.323 195.836 131.246 195.836C111.065 195.836 95.3382 183.409 95.3382 158.52C95.3382 139.088 105.902 125.852 120.919 119.386C133.946 113.66 152.136 112.65 166.041 111.068V107.969C166.041 102.277 166.479 95.5415 163.138 90.6247C160.202 86.2126 154.6 84.3939 149.672 84.3939C140.527 84.3939 132.36 89.075 130.369 98.7744C129.963 100.93 128.378 103.052 126.218 103.153L102.931 100.661C100.974 100.223 98.8146 98.6402 99.3546 95.6423C104.72 67.4876 130.199 59 153.013 59C164.69 59 179.944 62.0987 189.157 70.9228C200.834 81.8006 199.72 96.316 199.72 112.111V149.427C199.72 160.642 204.378 165.559 208.765 171.622C210.317 173.777 210.655 176.371 208.697 177.987C203.804 182.061 195.096 189.64 190.305 193.883L190.238 193.816Z" fill="white"/>
</svg>
