<svg width="41" height="38" viewBox="0 0 41 38" fill="none" xmlns="http://www.w3.org/2000/svg">
<path d="M0.410327 29.0238C0.530327 28.8269 0.721994 28.8133 0.990327 28.9865C7.05033 32.5682 13.647 34.3608 20.7737 34.3608C25.527 34.3608 30.2203 33.456 34.852 31.6532L35.377 31.4156C35.607 31.3137 35.767 31.2458 35.8653 31.1949C36.242 31.0455 36.5153 31.1168 36.7403 31.4156C36.9403 31.711 36.8903 31.986 36.5403 32.2304C36.1137 32.5529 35.5403 32.9264 34.8637 33.3406C32.7903 34.6018 30.4637 35.5745 27.8887 36.2705C21.8574 37.93 15.4636 37.5869 9.63699 35.291C6.30998 33.9634 3.24452 32.0372 0.586994 29.6044C0.420327 29.4787 0.335327 29.3497 0.335327 29.2309C0.335327 29.1511 0.370327 29.0781 0.420327 29.0102L0.410327 29.0238ZM11.352 18.4687C11.352 16.7627 11.7637 15.3063 12.5903 14.0943C13.4153 12.889 14.5403 11.9724 15.9903 11.3528C17.317 10.7841 18.917 10.3767 20.8437 10.1306C21.4937 10.0525 22.5653 9.95574 24.0437 9.83521V9.20714C24.0437 7.62846 23.8687 6.56242 23.5437 6.02431C23.0403 5.29439 22.2437 4.92094 21.1437 4.92094H20.8403C20.0403 4.99902 19.347 5.25365 18.7637 5.70179C18.1803 6.16011 17.8053 6.77121 17.6387 7.56225C17.5387 8.0715 17.2953 8.35159 16.9137 8.42798L12.7137 7.89327C12.3003 7.79142 12.0937 7.58772 12.0937 7.23124C12.0937 7.15315 12.1053 7.07846 12.1303 6.97661C12.542 4.78683 13.5553 3.15723 15.1637 2.0878C16.7903 1.04214 18.6637 0.432733 20.8137 0.30542L21.7137 0.30542C24.4637 0.30542 26.642 1.04214 28.1937 2.4952C28.4187 2.74983 28.6437 3.00445 28.8687 3.31C29.0687 3.59009 29.242 3.84302 29.3403 4.07388C29.4653 4.30135 29.5903 4.63406 29.6653 5.04146C29.7653 5.47262 29.8403 5.75441 29.8903 5.90719C29.9403 6.08373 29.9937 6.41644 30.017 6.95115C30.0337 7.48247 30.0503 7.78802 30.0503 7.88987V16.8527C30.0503 17.491 30.1503 18.0749 30.3253 18.6113C30.5003 19.1426 30.6753 19.528 30.8503 19.7554L31.7003 20.8995C31.8503 21.1304 31.927 21.3341 31.927 21.5106C31.927 21.7143 31.827 21.8943 31.627 22.0437C29.627 23.826 28.527 24.7936 28.3553 24.9464C28.0803 25.1756 27.7303 25.201 27.3053 25.0228C26.9969 24.7601 26.7042 24.479 26.4287 24.1808L25.912 23.5918C25.7294 23.3592 25.5532 23.1215 25.3837 22.8788L24.8837 22.1404C23.5337 23.6444 22.212 24.5848 20.8837 24.9668C20.0603 25.2214 19.062 25.3521 17.8337 25.3521C15.9837 25.3521 14.4337 24.7699 13.2337 23.5969C12.0337 22.4256 11.4337 20.7705 11.4337 18.6062L11.3503 18.4772L11.352 18.4687ZM17.607 17.7252C17.607 18.686 17.8403 19.4567 18.3153 20.0406C18.7903 20.6178 19.4403 20.9097 20.2403 20.9097C20.3153 20.9097 20.417 20.8979 20.5653 20.8758C20.7153 20.8486 20.7887 20.8367 20.842 20.8367C21.8653 20.5651 22.642 19.898 23.2153 18.8371C23.4903 18.3618 23.6903 17.8525 23.8153 17.2923C23.9653 16.7491 24.0153 16.2908 24.0403 15.9343C24.0653 15.6033 24.0653 15.0177 24.0653 14.2284V13.3117C22.6653 13.3117 21.592 13.4136 20.8653 13.6173C18.7403 14.2284 17.6653 15.6033 17.6653 17.7422L17.607 17.7082V17.7252ZM32.877 29.6536C32.927 29.5517 33.002 29.4669 33.097 29.365C33.7003 28.9525 34.287 28.669 34.847 28.5163C35.7268 28.2887 36.6269 28.1522 37.5337 28.1089C37.767 28.0885 38.0003 28.1089 38.217 28.1598C39.3003 28.2616 39.967 28.445 40.1703 28.72C40.2753 28.8727 40.3353 29.107 40.3353 29.382V29.6366C40.3353 30.5023 40.087 31.5208 39.6287 32.6921C39.1653 33.8634 38.522 34.8106 37.702 35.5439C37.5803 35.6458 37.4687 35.6967 37.3737 35.6967C37.3237 35.6967 37.2737 35.6967 37.2237 35.6763C37.0737 35.6016 37.0453 35.4726 37.117 35.2689C38.017 33.1301 38.4603 31.6312 38.4603 30.7875C38.4603 30.5329 38.4103 30.3292 38.3153 30.2036C38.0737 29.9218 37.3987 29.7673 36.2753 29.7673C35.8703 29.7673 35.387 29.7945 34.8253 29.8454C34.2203 29.9218 33.6587 29.9982 33.1587 30.0746C33.0087 30.0746 32.912 30.0508 32.8587 29.9999C32.8087 29.9489 32.7987 29.9201 32.8253 29.8692C32.8253 29.8403 32.8353 29.8182 32.8587 29.7622V29.6604L32.877 29.6536Z" fill="#FF9900"/>
</svg>
