<svg width="300" height="300" viewBox="0 0 300 300" fill="none" xmlns="http://www.w3.org/2000/svg">
<rect width="300" height="300" fill="#052555"/>
<path d="M150.701 62H150.856L151.017 62.0129L151.172 62.0257L151.333 62.0515L151.488 62.0772L151.643 62.1158L151.797 62.1542L151.952 62.1994L152.101 62.2506L152.249 62.3084L152.397 62.3788L152.546 62.4492L152.688 62.5196L152.829 62.6029L152.972 62.6928L153.107 62.7889L153.236 62.8914L153.365 63.0004L153.494 63.1095L153.668 63.2763L153.791 63.398L153.907 63.5199L154.016 63.6418L154.119 63.77L154.216 63.9045H154.222L191.826 103.689L191.942 103.811L192.052 103.939L192.148 104.074L192.245 104.208L192.335 104.343L192.419 104.484L192.496 104.632L192.567 104.773L192.632 104.92L192.69 105.068L192.742 105.222L192.787 105.376L192.832 105.523L192.864 105.684L192.89 105.838L192.916 105.992L192.929 106.152L192.942 106.306L192.948 106.466L192.942 106.62V106.723L192.955 106.8L192.974 106.966L192.987 107.133L193 107.3V107.467L192.994 107.64L192.981 107.813L192.961 107.98L192.935 108.153L181.306 174.798L181.274 174.965L181.235 175.138L181.19 175.299L181.138 175.459L191.826 186.766L191.942 186.888L192.051 187.017L192.148 187.151L192.244 187.286L192.335 187.421L192.419 187.562L192.496 187.709L192.567 187.85L192.631 187.998L192.689 188.145L192.741 188.299L192.786 188.453L192.832 188.607L192.864 188.761L192.89 188.915L192.916 189.069L192.928 189.229L192.941 189.383L192.948 189.544L192.941 189.698L192.935 189.858L192.922 190.012L192.903 190.173L192.877 190.327L192.844 190.48L192.806 190.634L192.76 190.788L192.709 190.936L192.689 190.994L184.814 236.14L184.782 236.294L184.743 236.448L184.704 236.595L184.652 236.743L184.594 236.884L184.536 237.025L184.465 237.16L184.395 237.288L184.317 237.416L184.233 237.538L184.143 237.66L184.047 237.775L183.95 237.884L183.847 237.993L183.737 238.089L183.628 238.192L183.512 238.282L183.396 238.371L183.273 238.448L183.144 238.525L183.015 238.595L182.886 238.666L182.751 238.724L182.609 238.781L182.473 238.827L182.325 238.872L182.183 238.91L182.035 238.942L181.886 238.961L181.738 238.981L181.583 238.994L181.428 239L181.273 238.994L181.119 238.987L180.964 238.968L180.809 238.949L180.667 238.923L180.545 238.942L180.383 238.968L180.222 238.981L180.061 238.994L179.893 239L179.732 238.994L179.57 238.987L179.409 238.974L179.248 238.955L179.086 238.923L178.925 238.891L178.764 238.852L178.609 238.807L178.454 238.756L178.299 238.698L178.145 238.634L177.996 238.569L177.848 238.493L177.7 238.409L177.558 238.32L177.416 238.23L177.28 238.128L177.151 238.025L177.016 237.909L176.893 237.794L176.771 237.666L150.545 209.926L124.32 237.666L124.197 237.794L124.075 237.909L123.946 238.025L123.81 238.128L123.675 238.23L123.533 238.32L123.391 238.409L123.243 238.493L123.094 238.569L122.946 238.634L122.791 238.698L122.643 238.756L122.481 238.807L122.327 238.852L122.165 238.891L122.004 238.923L121.843 238.955L121.681 238.974L121.52 238.987L121.359 238.994L121.198 239L121.03 238.994L120.868 238.981L120.707 238.968L120.546 238.942L120.494 238.936L120.423 238.949L120.262 238.968L120.107 238.987L119.952 238.994L119.798 239L119.643 238.994L119.495 238.981L119.34 238.961L119.191 238.942L119.043 238.91L118.901 238.872L118.759 238.827L118.617 238.781L118.475 238.724L118.346 238.666L118.211 238.595L118.082 238.525L117.953 238.448L117.831 238.371L117.714 238.282L117.598 238.192L117.489 238.089L117.379 237.993L117.276 237.884L117.179 237.775L117.089 237.66L116.999 237.538L116.915 237.416L116.838 237.288L116.76 237.16L116.696 237.025L116.631 236.884L116.573 236.743L116.528 236.595L116.483 236.448L116.444 236.294L116.412 236.14L108.407 190.237L108.381 190.083L108.362 189.929L108.356 189.775V189.621V189.595V189.544V189.384L108.368 189.23L108.381 189.069L108.407 188.915L108.433 188.762L108.472 188.608L108.511 188.454L108.556 188.3L108.608 188.146L108.666 187.998L108.737 187.851L108.807 187.71L108.878 187.562L108.962 187.421L109.052 187.286L109.149 187.152L109.252 187.017L109.362 186.889L109.471 186.767L119.952 175.684L119.927 175.62L119.862 175.466L119.81 175.299L119.765 175.138L119.726 174.965L119.694 174.798L108.065 108.154L108.039 107.98L108.019 107.813L108.006 107.64L108 107.467V107.3L108.013 107.134L108.026 106.967L108.045 106.8L108.078 106.639L108.11 106.479L108.149 106.319L108.194 106.158L108.252 106.004L108.31 105.857L108.375 105.703L108.439 105.555L108.478 105.485L108.51 105.376L108.556 105.222L108.607 105.068L108.665 104.921L108.736 104.773L108.807 104.632L108.878 104.484L108.962 104.343L109.052 104.209L109.149 104.074L109.252 103.939L109.361 103.811L109.471 103.689L147.081 63.9047L147.178 63.7702L147.281 63.642L147.39 63.5201L147.506 63.3982L147.629 63.2765L147.803 63.1097L147.932 63.0007L148.061 62.8917L148.196 62.7892L148.332 62.693L148.468 62.6032L148.609 62.5199L148.751 62.4495L148.9 62.3791L149.048 62.3086L149.196 62.2508L149.351 62.1996L149.5 62.1544L149.654 62.1161L149.816 62.0775L149.97 62.0517L150.125 62.026L150.287 62.0131L150.441 62.0002H150.603H150.648H150.7L150.701 62ZM177.875 226.506L184.086 190.909L176.307 182.681L156.377 203.763L177.875 226.506ZM123.333 226.384L144.722 203.763L124.888 182.79L117.154 190.974L123.333 226.384ZM150.546 197.599L170.483 176.511L150.649 155.538L130.719 176.62L150.546 197.599ZM127.139 168.077L147.083 146.988V146.982L147.179 146.847L147.282 146.719L147.392 146.597L147.508 146.475L147.631 146.353L147.805 146.187L147.934 146.078L148.063 145.969L148.198 145.866L148.334 145.77L148.469 145.687L148.611 145.604L148.753 145.527L148.901 145.456L149.05 145.392L149.198 145.328L149.353 145.276L149.501 145.231L149.656 145.193L149.817 145.154L149.972 145.129L150.127 145.109L150.288 145.09L150.443 145.077H150.604H150.65H150.701H150.856L151.017 145.09L151.172 145.109L151.333 145.129L151.488 145.154L151.643 145.193L151.798 145.231L151.953 145.276L152.101 145.328L152.249 145.392L152.398 145.456L152.546 145.527L152.688 145.604L152.83 145.687L152.972 145.77L153.107 145.866L153.236 145.969L153.365 146.078L153.494 146.187L153.669 146.353L153.791 146.475L153.907 146.597L154.017 146.719L154.12 146.847L154.216 146.982L154.223 146.988L173.908 167.807L184.332 108.083L150.65 72.461L116.723 108.352L127.139 168.077ZM152.275 98.3852L153.12 98.475L153.958 98.6033L154.777 98.7638L155.59 98.9498L156.383 99.1741L157.17 99.4306L157.938 99.7193L158.692 100.034L159.428 100.38L160.15 100.758L160.847 101.162L161.537 101.592L162.201 102.048L162.846 102.529L163.465 103.035L164.072 103.568L164.652 104.126L165.213 104.703L165.749 105.299L166.258 105.922L166.742 106.563L167.2 107.223L167.632 107.903L168.039 108.602L168.419 109.321L168.767 110.052L169.083 110.802L169.374 111.566L169.632 112.348L169.851 113.137L170.045 113.945L170.206 114.76L170.335 115.593L170.425 116.433L170.477 117.28L170.496 118.139L170.477 118.999L170.425 119.852L170.335 120.692L170.206 121.52L170.045 122.334L169.851 123.142L169.632 123.937L169.374 124.713L169.083 125.476L168.767 126.227L168.419 126.958L168.039 127.677L167.632 128.376L167.2 129.055L166.742 129.716L166.258 130.357L165.749 130.98L165.213 131.576L164.652 132.153L164.072 132.711L163.465 133.244L162.846 133.75L162.201 134.231L161.537 134.687L160.847 135.116L160.15 135.52L159.428 135.899L158.692 136.245L157.938 136.56L157.17 136.848L156.383 137.105L155.59 137.329L154.777 137.522L153.958 137.676L153.12 137.804L152.275 137.894L151.424 137.945L150.559 137.964L149.695 137.945L148.837 137.894L147.992 137.804L147.16 137.676L146.334 137.522L145.528 137.329L144.729 137.105L143.948 136.848L143.181 136.56L142.426 136.245L141.69 135.899L140.968 135.52L140.265 135.116L139.581 134.687L138.917 134.231L138.272 133.75L137.646 133.244L137.046 132.711L136.466 132.153L135.905 131.576L135.37 130.98L134.86 130.357L134.376 129.716L133.918 129.055L133.479 128.376L133.08 127.677L132.699 126.958L132.351 126.227L132.035 125.476L131.744 124.713L131.487 123.937L131.261 123.142L131.067 122.334L130.912 121.52L130.783 120.692L130.693 119.852L130.642 118.999L130.622 118.139L130.642 117.28L130.693 116.433L130.783 115.593L130.912 114.76L131.067 113.945L131.261 113.137L131.487 112.348L131.744 111.566L132.035 110.802L132.351 110.052L132.699 109.321L133.08 108.602L133.479 107.903L133.918 107.223L134.376 106.563L134.86 105.922L135.37 105.299L135.905 104.703L136.466 104.126L137.046 103.568L137.646 103.035L138.272 102.529L138.917 102.048L139.581 101.592L140.265 101.162L140.968 100.758L141.69 100.38L142.426 100.034L143.181 99.7193L143.948 99.4306L144.729 99.1741L145.528 98.9498L146.334 98.7638L147.16 98.6033L147.992 98.475L148.837 98.3852L149.695 98.334L150.559 98.3145L151.424 98.334L152.275 98.3852ZM148.876 106.935L148.063 107.082L147.27 107.294L146.502 107.55L145.754 107.865L145.044 108.23L144.354 108.634L143.703 109.089L143.084 109.59L142.503 110.129L141.961 110.712L141.458 111.322L141 111.976L140.588 112.655L140.226 113.367L139.91 114.105L139.646 114.868L139.439 115.657L139.291 116.465L139.194 117.293L139.162 118.139L139.194 118.986L139.291 119.813L139.439 120.621L139.646 121.41L139.91 122.173L140.226 122.911L140.588 123.623L141 124.309L141.458 124.957L141.961 125.573L142.503 126.15L143.084 126.689L143.703 127.189L144.354 127.644L145.044 128.055L145.754 128.414L146.502 128.728L147.27 128.991L148.063 129.196L148.876 129.344L149.708 129.44L150.559 129.466L151.411 129.44L152.243 129.344L153.055 129.196L153.848 128.991L154.616 128.728L155.358 128.414L156.074 128.055L156.758 127.644L157.415 127.189L158.028 126.689L158.615 126.15L159.157 125.573L159.653 124.957L160.112 124.309L160.524 123.623L160.892 122.911L161.208 122.173L161.466 121.41L161.679 120.621L161.827 119.813L161.917 118.986L161.95 118.139L161.917 117.293L161.827 116.465L161.679 115.657L161.466 114.868L161.208 114.105L160.892 113.367L160.524 112.655L160.112 111.976L159.653 111.322L159.157 110.712L158.615 110.129L158.028 109.59L157.415 109.089L156.758 108.634L156.074 108.23L155.358 107.865L154.616 107.55L153.848 107.294L153.055 107.082L152.243 106.935L151.411 106.845L150.559 106.813L149.708 106.845L148.876 106.935Z" fill="white"/>
</svg>
