<svg width="40" height="40" viewBox="0 0 40 40" fill="none" xmlns="http://www.w3.org/2000/svg">
<path
    d="M26.6828 9.79015C27.3994 9.74938 28.5277 9.84475 29.2847 10.0081C30.0238 10.1623 30.5527 10.3489 31.3186 10.7255C32.5461 11.3291 33.5914 12.1374 34.4202 13.1223C35.0378 13.8569 35.0729 13.9524 34.8265 14.1974C34.7457 14.2792 34.5575 14.4114 34.4098 14.4976C34.1397 14.6487 33.0435 15.5778 33.0435 15.6549C33.0398 15.6769 32.8627 15.8884 32.6455 16.1174C31.9242 16.8981 31.6059 17.5293 31.1444 19.1043C31.0369 19.4673 30.9249 19.9443 30.8936 20.1711C30.7683 21.0424 30.8318 22.2942 31.0511 23.4375C31.181 24.1318 31.6992 25.3082 32.2142 26.0934C32.9355 27.1873 34.0074 28.1593 35.0961 28.7267C35.6738 29.0217 36 29.2808 36 29.4441C35.9996 29.4944 35.9596 29.6075 35.915 29.6887C35.8658 29.7706 35.7998 29.974 35.7595 30.1369C35.6654 30.5454 35.1134 31.904 34.7685 32.5666C33.4873 35.0219 32.2198 36.8426 30.8625 38.1724C29.532 39.4657 28.286 40.0466 26.9958 39.9649C26.109 39.9104 25.2624 39.6922 24.0622 39.2022C23.0676 38.7983 22.6807 38.6709 22.2999 38.6164C22.1117 38.5891 21.7633 38.5355 21.5307 38.4992C20.8498 38.3858 20.4015 38.3764 19.9177 38.4807C18.305 38.8166 18.2462 38.8338 17.3593 39.2105C15.9527 39.8096 15.2134 39.9998 14.2951 39.9998C13.5783 40.0044 13.2376 39.919 12.4581 39.5332C11.7683 39.1883 11.2799 38.8253 10.6751 38.1991C10.0974 37.6047 9.69856 37.1052 8.91495 36.0119C7.00211 33.3387 6.70596 32.8112 5.76981 30.4288C5.10247 28.7317 5.1383 28.844 4.78916 27.4563C4.41283 25.954 4.37244 25.7892 4.37244 25.5713C4.37233 25.4666 4.33217 25.2034 4.28743 24.9813C3.8977 23.1704 3.90533 20.1842 4.30402 18.6273C4.5728 17.579 4.93706 16.5946 5.4298 15.5871C6.54086 13.2995 7.9429 11.8367 9.99926 10.82C10.6798 10.4799 11.1907 10.3214 12.0953 10.1581C12.5164 10.0855 12.982 9.98929 13.1299 9.94844C13.4972 9.84406 14.3441 9.85762 14.8548 9.97105C16.0732 10.2524 16.8976 10.4979 17.6993 10.82C19.2091 11.4373 20.088 11.6972 20.4464 11.6382C20.6523 11.6019 20.6534 11.6009 21.6924 11.188C23.4083 10.5073 25.7959 9.83553 26.6828 9.79015Z"
    fill="currentColor"
  />
<path
    d="M28.2128 0.0443657C28.8184 -0.0254541 28.8937 -0.0204464 29.0297 0.114257L29.152 0.23554L29.1251 1.05985C29.0781 2.34629 28.9132 3.25142 28.5466 4.22554C28.1801 5.19484 27.5171 6.31382 27 6.8177C26.845 6.97604 26.5485 7.29332 26.3511 7.53101C25.5329 8.4961 24.3804 9.17757 22.8099 9.62981C22.2222 9.80232 22.1799 9.80715 21.4934 9.80249C20.6677 9.79784 20.5491 9.77454 20.4879 9.62159C20.4644 9.55632 20.4392 9.15427 20.4298 8.72533L20.4215 7.94213L20.6185 7.20621C21.0134 5.73303 21.4703 4.7537 22.246 3.72807C23.5908 1.93774 26.2991 0.263495 28.2128 0.0443657Z"
    fill="currentColor"
  />
</svg>
