<svg width="300" height="300" viewBox="0 0 300 300" fill="none" xmlns="http://www.w3.org/2000/svg">
<rect width="300" height="300" fill="white"/>
<path d="M115.561 189.375C104.948 179.375 98.7041 165.625 98.7041 150C98.7041 134.375 104.948 120.625 114.937 110.625C123.678 101.875 123.678 88.1251 114.937 79.3751C106.196 70.6251 92.4607 70.6251 83.7199 79.3751C66.2381 97.5002 55 122.5 55 150C55 177.5 66.2381 202.5 84.3441 220.625C93.0849 229.375 106.82 229.375 115.561 220.625C123.678 211.875 123.678 198.125 115.561 189.375Z" fill="#FAE501"/>
<path d="M115.56 110.625C125.549 100 139.285 93.75 154.894 93.75C170.502 93.75 184.238 100 194.227 110C202.968 118.75 216.704 118.75 225.444 110C234.185 101.25 234.185 87.5 225.444 78.75C207.339 61.25 182.365 50 154.894 50C127.422 50 102.449 61.25 84.3427 79.3751C75.6019 88.1251 75.6019 101.875 84.3427 110.625C93.0835 118.75 106.819 118.75 115.56 110.625Z" fill="#4FB5E1"/>
<path d="M194.227 189.375C184.238 200 170.502 206.25 154.894 206.25C139.285 206.25 125.549 200 115.56 190C106.819 181.25 93.0835 181.25 84.3427 190C75.6019 198.75 75.6019 212.5 84.3427 221.25C102.449 238.75 127.422 250 154.894 250C182.365 250 207.339 238.75 225.444 220.625C234.185 211.875 234.185 198.125 225.444 189.375C216.704 181.25 202.968 181.25 194.227 189.375Z" fill="#F05751"/>
<path d="M99.9526 116.874C112.021 116.874 121.805 107.081 121.805 94.9995C121.805 82.9183 112.021 73.1244 99.9526 73.1244C87.884 73.1244 78.1005 82.9183 78.1005 94.9995C78.1005 107.081 87.884 116.874 99.9526 116.874Z" fill="#0681B6"/>
<path d="M99.9526 226.876C112.021 226.876 121.805 217.082 121.805 205.001C121.805 192.92 112.021 183.126 99.9526 183.126C87.884 183.126 78.1005 192.92 78.1005 205.001C78.1005 217.082 87.884 226.876 99.9526 226.876Z" fill="#CD4739"/>
</svg>
