<svg width="41" height="31" viewBox="0 0 41 31" fill="none" xmlns="http://www.w3.org/2000/svg">
<path d="M26.7027 21.0072C24.7322 21.0072 23.1076 19.2279 23.1076 17.0414C23.1076 14.8549 24.6993 13.0756 26.7027 13.0756C28.706 13.0756 30.3284 14.8722 30.2977 17.0414C30.267 19.2107 28.7213 21.0072 26.7027 21.0072ZM13.4129 21.0072C11.4424 21.0072 9.81785 19.2279 9.81785 17.0414C9.81785 14.8549 11.4096 13.0756 13.4129 13.0756C15.4162 13.0756 17.0386 14.8722 17.0079 17.0414C16.9773 19.2107 15.414 21.0072 13.4129 21.0072ZM33.9037 3.03507C31.3109 1.86422 28.5746 1.02933 25.7634 0.551319C25.7378 0.546327 25.7113 0.549479 25.6877 0.560326C25.6641 0.571172 25.6446 0.589147 25.632 0.611636C25.2593 1.2773 24.921 1.96103 24.6183 2.66024C21.588 2.20743 18.5056 2.20743 15.4753 2.66024C15.1708 1.95927 14.8273 1.27537 14.4463 0.611636C14.433 0.589806 14.4134 0.572386 14.39 0.561634C14.3666 0.550881 14.3404 0.547291 14.3149 0.551319C11.5035 1.02834 8.7671 1.86326 6.17465 3.03507C6.15283 3.04448 6.13448 3.06027 6.1221 3.0803C0.937552 10.7017 -0.483382 18.1357 0.210664 25.4836C0.212653 25.5017 0.218334 25.5192 0.227362 25.5351C0.236389 25.5511 0.248584 25.565 0.263215 25.5762C3.28189 27.7765 6.65858 29.4563 10.2492 30.5437C10.2744 30.5511 10.3014 30.5508 10.3264 30.5427C10.3515 30.5346 10.3734 30.5192 10.3893 30.4985C11.1604 29.4655 11.8436 28.3718 12.432 27.2284C12.4399 27.2127 12.4443 27.1956 12.4449 27.1781C12.4456 27.1606 12.4426 27.1432 12.436 27.1269C12.4293 27.1107 12.4193 27.096 12.4066 27.0838C12.3939 27.0716 12.3786 27.0622 12.362 27.0561C11.2843 26.6504 10.2411 26.1613 9.24203 25.5934C9.22273 25.5831 9.20642 25.5682 9.19464 25.55C9.18285 25.5317 9.17597 25.5109 9.17465 25.4893C9.17334 25.4678 9.17763 25.4462 9.18712 25.4268C9.19661 25.4073 9.21099 25.3905 9.22889 25.378C9.44783 25.2229 9.64926 25.0635 9.8485 24.8998C9.86621 24.8853 9.88772 24.8759 9.91057 24.8729C9.93342 24.8698 9.95668 24.8732 9.97768 24.8826C16.5219 27.823 23.609 27.823 30.0766 24.8826C30.0976 24.8725 30.1212 24.8685 30.1445 24.8712C30.1678 24.8738 30.1898 24.883 30.2079 24.8976C30.4072 25.0592 30.6174 25.2229 30.8297 25.3759C30.8477 25.3882 30.8623 25.4048 30.8719 25.4242C30.8816 25.4435 30.8861 25.465 30.885 25.4866C30.8839 25.5081 30.8772 25.529 30.8657 25.5473C30.8541 25.5657 30.8379 25.5808 30.8188 25.5913C29.8257 26.1609 28.7857 26.6473 27.7098 27.0453C27.693 27.0516 27.6778 27.0612 27.665 27.0737C27.6523 27.0861 27.6424 27.1011 27.636 27.1176C27.6296 27.1341 27.6268 27.1517 27.6278 27.1693C27.6289 27.1869 27.6337 27.2042 27.6419 27.2198C28.2392 28.3574 28.9205 29.4503 29.6803 30.4898C29.6957 30.5112 29.7175 30.5272 29.7426 30.5357C29.7677 30.5442 29.7949 30.5448 29.8204 30.5372C33.4171 29.4533 36.7994 27.7733 39.8217 25.5697C39.8364 25.5592 39.8488 25.5456 39.8578 25.53C39.8669 25.5145 39.8725 25.4971 39.8742 25.4793C40.7084 16.9919 38.4774 9.61818 33.9628 3.076C33.9493 3.05618 33.927 3.04169 33.9037 3.03507Z" fill="#5865F2"/>
</svg>
