<svg width="41" height="40" viewBox="0 0 41 40" fill="none" xmlns="http://www.w3.org/2000/svg">
<path
    d="M20.0588 0.111511C31.059 0.111511 40.0597 9.11146 40.0598 20.1115C40.0598 30.0116 32.8588 38.2123 23.3586 39.9123L23.2737 39.843C23.3354 39.8324 23.3975 39.8229 23.4592 39.8117L23.4592 25.7111H27.8596L28.759 20.1115H23.4592V16.2111C23.4592 14.6111 24.0592 13.4113 26.4592 13.4113H29.0588V8.31073C27.659 8.11076 26.0592 7.91133 24.6594 7.91132C20.0593 7.91132 16.8587 10.7111 16.8586 15.7111V20.1115H11.8586V25.7111H16.8586L16.8586 39.8117C16.8647 39.8128 16.8712 39.8135 16.8772 39.8146L16.759 39.9123C7.25884 38.2123 0.0588379 30.0116 0.0588379 20.1115C0.0589431 9.11152 9.05875 0.111607 20.0588 0.111511Z"
    fill="url(#paint0_linear_3_92)"
  />
<defs>
<linearGradient
      id="paint0_linear_3_92"
      x1="20.0603"
      y1="38.7212"
      x2="20.0603"
      y2="0.104143"
      gradientUnits="userSpaceOnUse"
    >
<stop stop-color="#0062E0" />
<stop offset="1" stop-color="#19AFFF" />
</linearGradient>
</defs>
</svg>
