<svg width="40" height="40" viewBox="0 0 40 40" fill="none" xmlns="http://www.w3.org/2000/svg">
<path
    d="M20.5 20.4282C20.5 17.4038 23.0743 14.952 26.25 14.952C29.4256 14.952 32 17.4038 32 20.4282C32 23.4526 29.4256 25.9044 26.25 25.9044C23.0743 25.9044 20.5 23.4526 20.5 20.4282Z"
    fill="#1ABCFE"
  />
<path
    d="M9 31.3815C9 28.3572 11.5744 25.9053 14.75 25.9053H20.5V31.3815C20.5 34.4059 17.9256 36.8577 14.75 36.8577C11.5744 36.8577 9 34.4059 9 31.3815Z"
    fill="#0ACF83"
  />
<path
    d="M20.5 4V14.9523H26.25C29.4256 14.9523 32 12.5006 32 9.47617C32 6.45177 29.4256 4 26.25 4H20.5Z"
    fill="#FF7262"
  />
<path
    d="M9 9.47617C9 12.5006 11.5744 14.9523 14.75 14.9523H20.5V4L14.75 4C11.5744 4 9 6.45176 9 9.47617Z"
    fill="#F24E1E"
  />
<path
    d="M9 20.4282C9 23.4526 11.5744 25.9044 14.75 25.9044H20.5V14.952H14.75C11.5744 14.952 9 17.4038 9 20.4282Z"
    fill="#A259FF"
  />
</svg>
