<svg width="300" height="300" viewBox="0 0 300 300" fill="none" xmlns="http://www.w3.org/2000/svg">
<rect width="300" height="300" fill="#24292F"/>
<path fill-rule="evenodd" clip-rule="evenodd" d="M150.078 57C98.0552 57 56 99.3957 56 151.845C56 193.77 82.9462 229.259 120.328 241.82C125.001 242.764 126.713 239.779 126.713 237.268C126.713 235.069 126.559 227.533 126.559 219.68C100.389 225.334 94.9394 208.374 94.9394 208.374C90.7337 197.382 84.5022 194.557 84.5022 194.557C75.9367 188.746 85.1261 188.746 85.1261 188.746C94.6275 189.375 99.6131 198.482 99.6131 198.482C108.023 212.927 121.574 208.846 127.025 206.333C127.803 200.209 130.297 195.969 132.945 193.614C112.072 191.415 90.1117 183.25 90.1117 146.819C90.1117 136.455 93.8476 127.976 99.7671 121.382C98.8332 119.027 95.5614 109.289 100.703 96.2565C100.703 96.2565 108.647 93.7435 126.557 105.992C134.226 103.916 142.134 102.86 150.078 102.851C158.021 102.851 166.119 103.951 173.596 105.992C191.509 93.7435 199.453 96.2565 199.453 96.2565C204.594 109.289 201.32 119.027 200.386 121.382C206.462 127.976 210.044 136.455 210.044 146.819C210.044 183.25 188.083 191.257 167.055 193.614C170.482 196.597 173.44 202.249 173.44 211.201C173.44 223.919 173.286 234.127 173.286 237.266C173.286 239.779 175 242.764 179.672 241.822C217.053 229.257 244 193.77 244 151.845C244.154 99.3957 201.944 57 150.078 57Z" fill="white"/>
</svg>
