<svg width="300" height="300" viewBox="0 0 300 300" fill="none" xmlns="http://www.w3.org/2000/svg">
<rect width="300" height="300" fill="white"/>
<path d="M261 153C261 143.75 260.248 137 258.62 130H152.755V171.75H214.895C213.643 182.125 206.878 197.75 191.843 208.249L191.633 209.647L225.105 235.519L227.424 235.75C248.722 216.125 261 187.25 261 153Z" fill="#4285F4"/>
<path d="M152.755 263C183.199 263 208.756 253 227.424 235.75L191.843 208.249C182.322 214.874 169.543 219.499 152.755 219.499C122.938 219.499 97.6308 199.875 88.6095 172.75L87.2872 172.862L52.4821 199.737L52.0269 201C70.5687 237.749 108.655 263 152.755 263Z" fill="#34A853"/>
<path d="M88.6095 172.75C86.2292 165.75 84.8516 158.25 84.8516 150.5C84.8516 142.75 86.2292 135.25 88.4843 128.25L88.4212 126.759L53.18 99.4523L52.0269 99.9995C44.385 115.25 40 132.375 40 150.5C40 168.625 44.385 185.749 52.0269 201L88.6095 172.75Z" fill="#FBBC05"/>
<path d="M152.755 81.4997C173.928 81.4997 188.21 90.6247 196.353 98.2502L228.175 67.25C208.632 49.125 183.199 38 152.755 38C108.655 38 70.5687 63.2498 52.0269 99.9995L88.4843 128.25C97.6308 101.125 122.938 81.4997 152.755 81.4997Z" fill="#EB4335"/>
</svg>
