<svg width="41" height="41" viewBox="0 0 41 41" fill="none" xmlns="http://www.w3.org/2000/svg">
<path d="M40.0331 20.9719C40.0331 19.6213 39.9024 18.2271 39.6846 16.92H20.819V24.6318H31.6242C31.1885 27.1152 29.7507 29.2937 27.6158 30.6879L34.0641 35.6984C37.8547 32.1693 40.0331 27.0281 40.0331 20.9719Z" fill="#4280EF"/>
<path d="M20.8196 40.4942C26.2222 40.4942 30.7534 38.7079 34.0647 35.658L27.6164 30.6911C25.8301 31.9111 23.5209 32.6082 20.8196 32.6082C15.5912 32.6082 11.1907 29.079 9.57862 24.3735L2.95605 29.4712C6.35448 36.2244 13.2385 40.4942 20.8196 40.4942Z" fill="#34A353"/>
<path d="M9.57862 24.3285C8.7508 21.845 8.7508 19.1437 9.57862 16.6602L2.95605 11.519C0.124026 17.1831 0.124026 23.8492 2.95605 29.4697L9.57862 24.3285Z" fill="#F6B704"/>
<path d="M20.8196 8.42467C23.6516 8.3811 26.44 9.47034 28.4878 11.431L34.1954 5.67979C30.5791 2.28137 25.7865 0.451454 20.8196 0.495023C13.2385 0.495023 6.35448 4.76483 2.95605 11.5181L9.57862 16.6593C11.1907 11.9102 15.5912 8.42467 20.8196 8.42467Z" fill="#E54335"/>
</svg>
