<svg width="600" height="645" viewBox="0 0 600 645" fill="none" xmlns="http://www.w3.org/2000/svg">
<path
    d="M416.277 209.374L340.383 165.729C315.552 151.414 285.124 151.414 260.293 165.729L184.05 209.374C159.568 223.689 144.179 250.225 144.179 278.506V366.144C144.179 394.775 159.568 420.962 184.05 435.277L259.943 479.271C284.775 493.586 315.202 493.586 340.034 479.271L415.927 435.277C440.759 420.962 455.798 394.775 455.798 366.144V278.506C456.497 250.225 441.109 223.689 416.277 209.374Z"
    fill="currentColor"
  />
<circle cx="180" cy="112.953" r="58.4327" fill="currentColor" />
<circle cx="70.1295" cy="191.63" r="58.4327" fill="currentColor" />
<circle cx="58.4327" cy="322.5" r="58.4327" fill="currentColor" />
<circle cx="70.9093" cy="454.149" r="58.4327" fill="currentColor" />
<circle cx="180" cy="532.047" r="58.4327" fill="currentColor" />
<circle cx="300" cy="586.567" r="58.4327" fill="currentColor" />
<circle cx="420" cy="532.047" r="58.4327" fill="currentColor" />
<circle cx="529.87" cy="453.37" r="58.4327" fill="currentColor" />
<path
    d="M600 322.5C600 354.772 573.839 380.933 541.568 380.933C509.296 380.933 483.135 354.772 483.135 322.5C483.135 290.228 509.296 264.067 541.568 264.067C573.839 264.067 600 290.228 600 322.5Z"
    fill="currentColor"
  />
<circle cx="530.65" cy="190.851" r="58.4327" fill="currentColor" />
<circle cx="420" cy="112.174" r="58.4327" fill="currentColor" />
<circle cx="300" cy="58.4327" r="58.4327" fill="currentColor" />
</svg>
