<svg width="117" height="20" viewBox="0 0 117 20" fill="none" xmlns="http://www.w3.org/2000/svg">
<path
    d="M12.9078 6.49221L10.5545 5.13889C9.78456 4.69501 8.84107 4.69501 8.0711 5.13889L5.70697 6.49221C4.94784 6.93609 4.47068 7.75891 4.47068 8.63586V11.3533C4.47068 12.2411 4.94784 13.0531 5.70697 13.497L8.06026 14.8611C8.83023 15.305 9.77371 15.305 10.5437 14.8611L12.897 13.497C13.6669 13.0531 14.1333 12.2411 14.1333 11.3533V8.63586C14.155 7.75891 13.6778 6.93609 12.9078 6.49221Z"
    fill="currentColor"
  />
<path
    d="M7.39327 3.50241C7.39327 4.50308 6.58207 5.31428 5.5814 5.31428C4.58074 5.31428 3.76953 4.50308 3.76953 3.50241C3.76953 2.50175 4.58074 1.69055 5.5814 1.69055C6.58207 1.69055 7.39327 2.50175 7.39327 3.50241Z"
    fill="currentColor"
  />
<path
    d="M3.98643 5.94203C3.98643 6.9427 3.17523 7.7539 2.17456 7.7539C1.1739 7.7539 0.362695 6.9427 0.362695 5.94203C0.362695 4.94136 1.1739 4.13016 2.17456 4.13016C3.17523 4.13016 3.98643 4.94136 3.98643 5.94203Z"
    fill="currentColor"
  />
<path
    d="M3.62374 10C3.62374 11.0007 2.81253 11.8119 1.81187 11.8119C0.811201 11.8119 0 11.0007 0 10C0 8.99933 0.811201 8.18813 1.81187 8.18813C2.81253 8.18813 3.62374 8.99933 3.62374 10Z"
    fill="currentColor"
  />
<path
    d="M4.0106 14.0821C4.0106 15.0828 3.1994 15.894 2.19873 15.894C1.19807 15.894 0.386867 15.0828 0.386867 14.0821C0.386867 13.0815 1.19807 12.2703 2.19873 12.2703C3.1994 12.2703 4.0106 13.0815 4.0106 14.0821Z"
    fill="currentColor"
  />
<path
    d="M7.39327 16.4976C7.39327 17.4983 6.58207 18.3095 5.5814 18.3095C4.58074 18.3095 3.76953 17.4983 3.76953 16.4976C3.76953 15.4969 4.58074 14.6857 5.5814 14.6857C6.58207 14.6857 7.39327 15.4969 7.39327 16.4976Z"
    fill="currentColor"
  />
<path
    d="M11.1142 18.1881C11.1142 19.1888 10.303 20 9.30232 20C8.30165 20 7.49045 19.1888 7.49045 18.1881C7.49045 17.1875 8.30165 16.3763 9.30232 16.3763C10.303 16.3763 11.1142 17.1875 11.1142 18.1881Z"
    fill="currentColor"
  />
<path
    d="M14.8351 16.4976C14.8351 17.4983 14.0239 18.3095 13.0233 18.3095C12.0226 18.3095 11.2114 17.4983 11.2114 16.4976C11.2114 15.4969 12.0226 14.6857 13.0233 14.6857C14.0239 14.6857 14.8351 15.4969 14.8351 16.4976Z"
    fill="currentColor"
  />
<path
    d="M18.2419 14.058C18.2419 15.0586 17.4307 15.8698 16.4301 15.8698C15.4294 15.8698 14.6182 15.0586 14.6182 14.058C14.6182 13.0573 15.4294 12.2461 16.4301 12.2461C17.4307 12.2461 18.2419 13.0573 18.2419 14.058Z"
    fill="currentColor"
  />
<path
    d="M18.6047 10C18.6047 11.0007 17.7934 11.8119 16.7928 11.8119C15.7921 11.8119 14.9809 11.0007 14.9809 10C14.9809 8.99933 15.7921 8.18813 16.7928 8.18813C17.7934 8.18813 18.6047 8.99933 18.6047 10Z"
    fill="currentColor"
  />
<path
    d="M18.2661 5.91787C18.2661 6.91854 17.4549 7.72974 16.4542 7.72974C15.4536 7.72974 14.6424 6.91854 14.6424 5.91787C14.6424 4.91721 15.4536 4.10601 16.4542 4.10601C17.4549 4.10601 18.2661 4.91721 18.2661 5.91787Z"
    fill="currentColor"
  />
<path
    d="M14.8351 3.47826C14.8351 4.47893 14.0239 5.29013 13.0233 5.29013C12.0226 5.29013 11.2114 4.47893 11.2114 3.47826C11.2114 2.47759 12.0226 1.66639 13.0233 1.66639C14.0239 1.66639 14.8351 2.47759 14.8351 3.47826Z"
    fill="currentColor"
  />
<path
    d="M11.1142 1.81187C11.1142 2.81253 10.303 3.62374 9.30232 3.62374C8.30165 3.62374 7.49045 2.81253 7.49045 1.81187C7.49045 0.811201 8.30165 0 9.30232 0C10.303 0 11.1142 0.811201 11.1142 1.81187Z"
    fill="currentColor"
  />
<path
    d="M28.9966 18C28.1283 18 27.3824 17.8869 26.759 17.6608C26.1355 17.4389 25.6345 17.1402 25.256 16.7647C24.8775 16.3892 24.6148 15.9731 24.4678 15.5166L26.6454 15.0109C26.7434 15.2029 26.8859 15.3928 27.0729 15.5806C27.2599 15.7726 27.5115 15.9305 27.8277 16.0542C28.1483 16.1822 28.5513 16.2462 29.0367 16.2462C29.7225 16.2462 30.2903 16.0862 30.74 15.7662C31.1898 15.4504 31.4147 14.9298 31.4147 14.2044V12.3419H31.2944C31.1698 12.5808 30.9872 12.8262 30.7467 13.0779C30.5107 13.3297 30.1968 13.5409 29.8049 13.7116C29.4175 13.8823 28.9298 13.9676 28.342 13.9676C27.5538 13.9676 26.8391 13.7905 26.1979 13.4364C25.5611 13.0779 25.0534 12.5446 24.6749 11.8362C24.3008 11.1236 24.1138 10.2318 24.1138 9.16077C24.1138 8.0812 24.3008 7.17018 24.6749 6.42771C25.0534 5.68097 25.5633 5.11559 26.2045 4.73155C26.8458 4.34325 27.5605 4.1491 28.3487 4.1491C28.9499 4.1491 29.4442 4.24724 29.8316 4.44352C30.2235 4.63554 30.5352 4.8681 30.7668 5.14119C30.9983 5.41002 31.1742 5.66391 31.2944 5.90286H31.428V4.27711H33.8127V14.2684C33.8127 15.1091 33.6034 15.8046 33.1848 16.355C32.7662 16.9055 32.194 17.3173 31.4681 17.5904C30.7423 17.8635 29.9184 18 28.9966 18ZM29.0167 12.1498C29.5288 12.1498 29.9652 12.0304 30.3259 11.7914C30.6866 11.5525 30.9605 11.209 31.1475 10.7609C31.3345 10.3129 31.428 9.77523 31.428 9.14797C31.428 8.52924 31.3345 7.98732 31.1475 7.52221C30.9649 7.0571 30.6933 6.69654 30.3326 6.44051C29.9763 6.18022 29.5377 6.05008 29.0167 6.05008C28.4779 6.05008 28.0281 6.18449 27.6674 6.45331C27.3067 6.72214 27.035 7.09124 26.8525 7.56062C26.6699 8.02573 26.5786 8.55484 26.5786 9.14797C26.5786 9.74962 26.6699 10.2766 26.8525 10.7289C27.0395 11.177 27.3134 11.5269 27.6741 11.7786C28.0392 12.0261 28.4868 12.1498 29.0167 12.1498Z"
    fill="currentColor"
  />
<path
    d="M39.7662 14.3005C38.7643 14.3005 37.8959 14.0892 37.1612 13.6668C36.4264 13.2444 35.8564 12.6534 35.4512 11.8938C35.0504 11.1343 34.85 10.2467 34.85 9.23117C34.85 8.21561 35.0504 7.32593 35.4512 6.56212C35.8564 5.79832 36.4264 5.2052 37.1612 4.78276C37.8959 4.36032 38.7643 4.1491 39.7662 4.1491C40.7682 4.1491 41.6365 4.36032 42.3713 4.78276C43.1061 5.2052 43.6738 5.79832 44.0746 6.56212C44.4798 7.32593 44.6825 8.21561 44.6825 9.23117C44.6825 10.2467 44.4798 11.1343 44.0746 11.8938C43.6738 12.6534 43.1061 13.2444 42.3713 13.6668C41.6365 14.0892 40.7682 14.3005 39.7662 14.3005ZM39.7796 12.4443C40.3229 12.4443 40.7771 12.3013 41.1422 12.0154C41.5074 11.7253 41.779 11.337 41.9572 10.8505C42.1397 10.3641 42.231 9.82216 42.231 9.22477C42.231 8.62312 42.1397 8.07907 41.9572 7.59262C41.779 7.10191 41.5074 6.71147 41.1422 6.42131C40.7771 6.13115 40.3229 5.98607 39.7796 5.98607C39.2229 5.98607 38.7598 6.13115 38.3902 6.42131C38.0251 6.71147 37.7512 7.10191 37.5686 7.59262C37.3905 8.07907 37.3014 8.62312 37.3014 9.22477C37.3014 9.82216 37.3905 10.3641 37.5686 10.8505C37.7512 11.337 38.0251 11.7253 38.3902 12.0154C38.7598 12.3013 39.2229 12.4443 39.7796 12.4443Z"
    fill="currentColor"
  />
<path
    d="M45.7348 14.1084V4.27711H48.0794V5.91566H48.1862C48.3733 5.34814 48.6939 4.91077 49.1481 4.60354C49.6068 4.29204 50.13 4.1363 50.7178 4.1363C50.8514 4.1363 51.0006 4.1427 51.1654 4.1555C51.3346 4.16403 51.4749 4.17897 51.5862 4.2003V6.3317C51.4838 6.29756 51.3212 6.2677 51.0986 6.24209C50.8804 6.21222 50.6688 6.19729 50.464 6.19729C50.0231 6.19729 49.6268 6.28903 49.275 6.47251C48.9277 6.65173 48.6538 6.90136 48.4534 7.22139C48.253 7.54142 48.1528 7.91052 48.1528 8.32869V14.1084H45.7348Z"
    fill="currentColor"
  />
<path
    d="M56.7933 17.9872C55.9249 17.9872 55.179 17.8741 54.5556 17.648C53.9321 17.4261 53.4312 17.1274 53.0527 16.7519C52.6741 16.3764 52.4114 15.9603 52.2645 15.5038L54.442 14.9981C54.54 15.1901 54.6825 15.38 54.8695 15.5678C55.0566 15.7598 55.3082 15.9177 55.6243 16.0414C55.945 16.1694 56.348 16.2334 56.8334 16.2334C57.5191 16.2334 58.0869 16.0734 58.5367 15.7534C58.9864 15.4376 59.2113 14.917 59.2113 14.1916V12.3291H59.0911C58.9664 12.568 58.7838 12.8134 58.5434 13.0651C58.3073 13.3169 57.9934 13.5281 57.6015 13.6988C57.2141 13.8695 56.7265 13.9548 56.1387 13.9548C55.3505 13.9548 54.6357 13.7777 53.9945 13.4236C53.3577 13.0651 52.85 12.5318 52.4715 11.8234C52.0975 11.1108 51.9104 10.219 51.9104 9.14797C51.9104 8.0684 52.0975 7.15738 52.4715 6.41491C52.85 5.66817 53.3599 5.10279 54.0012 4.71875C54.6424 4.33045 55.3571 4.1363 56.1453 4.1363C56.7465 4.1363 57.2408 4.23444 57.6282 4.43072C58.0201 4.62274 58.3318 4.8553 58.5634 5.12839C58.795 5.39721 58.9709 5.6511 59.0911 5.89006H59.2247V4.26431H61.6093V14.2556C61.6093 15.0963 61.4 15.7918 60.9814 16.3422C60.5628 16.8927 59.9906 17.3045 59.2648 17.5776C58.5389 17.8507 57.7151 17.9872 56.7933 17.9872ZM56.8133 12.137C57.3254 12.137 57.7618 12.0176 58.1225 11.7786C58.4832 11.5397 58.7571 11.1962 58.9441 10.7481C59.1312 10.3001 59.2247 9.76242 59.2247 9.13517C59.2247 8.51644 59.1312 7.97452 58.9441 7.50941C58.7616 7.0443 58.4899 6.68373 58.1292 6.42771C57.773 6.16742 57.3343 6.03727 56.8133 6.03727C56.2745 6.03727 55.8247 6.17169 55.464 6.44051C55.1033 6.70934 54.8317 7.07844 54.6491 7.54782C54.4665 8.01293 54.3752 8.54204 54.3752 9.13517C54.3752 9.73682 54.4665 10.2638 54.6491 10.7161C54.8361 11.1642 55.11 11.5141 55.4707 11.7658C55.8359 12.0133 56.2834 12.137 56.8133 12.137Z"
    fill="currentColor"
  />
<path
    d="M67.6707 14.3005C66.6688 14.3005 65.8004 14.0892 65.0656 13.6668C64.3309 13.2444 63.7609 12.6534 63.3556 11.8938C62.9549 11.1343 62.7545 10.2467 62.7545 9.23117C62.7545 8.21561 62.9549 7.32593 63.3556 6.56212C63.7609 5.79832 64.3309 5.2052 65.0656 4.78276C65.8004 4.36032 66.6688 4.1491 67.6707 4.1491C68.6726 4.1491 69.541 4.36032 70.2758 4.78276C71.0105 5.2052 71.5783 5.79832 71.9791 6.56212C72.3843 7.32593 72.5869 8.21561 72.5869 9.23117C72.5869 10.2467 72.3843 11.1343 71.9791 11.8938C71.5783 12.6534 71.0105 13.2444 70.2758 13.6668C69.541 14.0892 68.6726 14.3005 67.6707 14.3005ZM67.6841 12.4443C68.2273 12.4443 68.6816 12.3013 69.0467 12.0154C69.4119 11.7253 69.6835 11.337 69.8616 10.8505C70.0442 10.3641 70.1355 9.82216 70.1355 9.22477C70.1355 8.62312 70.0442 8.07907 69.8616 7.59262C69.6835 7.10191 69.4119 6.71147 69.0467 6.42131C68.6816 6.13115 68.2273 5.98607 67.6841 5.98607C67.1274 5.98607 66.6643 6.13115 66.2947 6.42131C65.9295 6.71147 65.6557 7.10191 65.4731 7.59262C65.295 8.07907 65.2059 8.62312 65.2059 9.22477C65.2059 9.82216 65.295 10.3641 65.4731 10.8505C65.6557 11.337 65.9295 11.7253 66.2947 12.0154C66.6643 12.3013 67.1274 12.4443 67.6841 12.4443Z"
    fill="currentColor"
  />
<path
    d="M80.4435 14.2812C79.6375 14.2812 78.9161 14.0828 78.2793 13.686C77.6425 13.2892 77.1393 12.7131 76.7697 11.9578C76.4001 11.2026 76.2153 10.2851 76.2153 9.20557C76.2153 8.1132 76.4023 7.19152 76.7764 6.44051C77.1549 5.68524 77.6648 5.11559 78.306 4.73155C78.9473 4.34325 79.662 4.1491 80.4502 4.1491C81.0513 4.1491 81.5457 4.24724 81.9331 4.44352C82.3205 4.63554 82.6278 4.8681 82.8549 5.14119C83.082 5.41002 83.2579 5.66391 83.3826 5.90286H83.4828V1H85.9075V14.1084H83.5295V12.5595H83.3826C83.2579 12.7984 83.0775 13.0523 82.8415 13.3212C82.6055 13.5857 82.2938 13.8119 81.9064 13.9996C81.5189 14.1874 81.0313 14.2812 80.4435 14.2812ZM81.1182 12.3803C81.6303 12.3803 82.0667 12.248 82.4274 11.9834C82.7881 11.7146 83.0619 11.3412 83.249 10.8633C83.436 10.3854 83.5295 9.82856 83.5295 9.19277C83.5295 8.55698 83.436 8.00439 83.249 7.53501C83.0664 7.06564 82.7947 6.7008 82.434 6.44051C82.0778 6.18022 81.6392 6.05008 81.1182 6.05008C80.5793 6.05008 80.1296 6.18449 79.7689 6.45331C79.4082 6.72214 79.1365 7.09337 78.9539 7.56702C78.7714 8.04066 78.6801 8.58258 78.6801 9.19277C78.6801 9.80723 78.7714 10.3555 78.9539 10.8377C79.141 11.3156 79.4148 11.6933 79.7755 11.9706C80.1407 12.2437 80.5882 12.3803 81.1182 12.3803Z"
    fill="currentColor"
  />
<path
    d="M91.9595 14.3005C90.9576 14.3005 90.0892 14.0892 89.3545 13.6668C88.6197 13.2444 88.0497 12.6534 87.6445 11.8938C87.2437 11.1343 87.0433 10.2467 87.0433 9.23117C87.0433 8.21561 87.2437 7.32593 87.6445 6.56212C88.0497 5.79832 88.6197 5.2052 89.3545 4.78276C90.0892 4.36032 90.9576 4.1491 91.9595 4.1491C92.9615 4.1491 93.8298 4.36032 94.5646 4.78276C95.2994 5.2052 95.8672 5.79832 96.2679 6.56212C96.6732 7.32593 96.8758 8.21561 96.8758 9.23117C96.8758 10.2467 96.6732 11.1343 96.2679 11.8938C95.8672 12.6534 95.2994 13.2444 94.5646 13.6668C93.8298 14.0892 92.9615 14.3005 91.9595 14.3005ZM91.9729 12.4443C92.5162 12.4443 92.9704 12.3013 93.3356 12.0154C93.7007 11.7253 93.9724 11.337 94.1505 10.8505C94.3331 10.3641 94.4243 9.82216 94.4243 9.22477C94.4243 8.62312 94.3331 8.07907 94.1505 7.59262C93.9724 7.10191 93.7007 6.71147 93.3356 6.42131C92.9704 6.13115 92.5162 5.98607 91.9729 5.98607C91.4163 5.98607 90.9531 6.13115 90.5835 6.42131C90.2184 6.71147 89.9445 7.10191 89.7619 7.59262C89.5838 8.07907 89.4947 8.62312 89.4947 9.22477C89.4947 9.82216 89.5838 10.3641 89.7619 10.8505C89.9445 11.337 90.2184 11.7253 90.5835 12.0154C90.9531 12.3013 91.4163 12.4443 91.9729 12.4443Z"
    fill="currentColor"
  />
<path
    d="M102.675 14.2812C101.65 14.2812 100.771 14.0658 100.036 13.6348C99.3058 13.2038 98.7424 12.6086 98.3461 11.849C97.9542 11.0852 97.7583 10.2062 97.7583 9.21197C97.7583 8.21348 97.9587 7.33233 98.3595 6.56852C98.7603 5.80045 99.3258 5.20306 100.056 4.77635C100.791 4.34538 101.659 4.12989 102.661 4.12989C103.494 4.12989 104.231 4.27711 104.872 4.57153C105.518 4.8617 106.032 5.27347 106.415 5.80685C106.798 6.33597 107.016 6.95469 107.07 7.66303H104.759C104.665 7.18938 104.442 6.79468 104.091 6.47891C103.743 6.15888 103.278 5.99887 102.695 5.99887C102.2 5.99887 101.766 6.12688 101.392 6.38291C101.018 6.63466 100.726 6.99736 100.517 7.47101C100.312 7.94465 100.21 8.51217 100.21 9.17357C100.21 9.8435 100.312 10.4196 100.517 10.9017C100.722 11.3796 101.009 11.7487 101.379 12.009C101.753 12.2651 102.191 12.3931 102.695 12.3931C103.051 12.3931 103.369 12.3291 103.65 12.2011C103.935 12.0688 104.173 11.8789 104.365 11.6314C104.556 11.3839 104.687 11.0831 104.759 10.7289H107.07C107.012 11.4244 106.798 12.041 106.429 12.5787C106.059 13.1121 105.556 13.5302 104.919 13.8332C104.282 14.1319 103.534 14.2812 102.675 14.2812Z"
    fill="currentColor"
  />
<path
    d="M116.455 6.87575L114.251 7.10617C114.189 6.89282 114.08 6.69227 113.924 6.50452C113.772 6.31677 113.567 6.16529 113.309 6.05008C113.051 5.93486 112.735 5.87726 112.361 5.87726C111.857 5.87726 111.434 5.9818 111.092 6.19089C110.753 6.39997 110.586 6.67093 110.591 7.00376C110.586 7.28966 110.695 7.52221 110.918 7.70143C111.145 7.88065 111.519 8.02786 112.04 8.14307L113.79 8.50151C114.761 8.70206 115.482 9.01995 115.954 9.4552C116.431 9.89044 116.671 10.4601 116.676 11.1642C116.671 11.7829 116.482 12.3291 116.108 12.8027C115.738 13.2721 115.224 13.6391 114.565 13.9036C113.906 14.1682 113.149 14.3005 112.294 14.3005C111.038 14.3005 110.027 14.0487 109.261 13.5452C108.495 13.0374 108.039 12.3312 107.892 11.4266L110.25 11.209C110.357 11.6527 110.584 11.9877 110.931 12.2139C111.279 12.44 111.731 12.5531 112.287 12.5531C112.862 12.5531 113.323 12.44 113.67 12.2139C114.022 11.9877 114.198 11.7082 114.198 11.3754C114.198 11.0937 114.084 10.8612 113.857 10.6777C113.634 10.4942 113.287 10.3534 112.815 10.2553L111.065 9.90324C110.081 9.70695 109.353 9.37626 108.881 8.91114C108.409 8.44177 108.175 7.84864 108.179 7.13178C108.175 6.52585 108.346 6.001 108.694 5.55723C109.045 5.10919 109.533 4.76355 110.156 4.52033C110.784 4.27284 111.508 4.1491 112.327 4.1491C113.53 4.1491 114.476 4.39445 115.166 4.88517C115.861 5.37588 116.291 6.03941 116.455 6.87575Z"
    fill="currentColor"
  />
</svg>
