<svg width="119" height="21" viewBox="0 0 119 21" fill="none" xmlns="http://www.w3.org/2000/svg">
<path d="M13.4526 6.49221L11.0993 5.13889C10.3294 4.69501 9.38587 4.69501 8.6159 5.13889L6.25177 6.49221C5.49264 6.93609 5.01548 7.75891 5.01548 8.63586V11.3533C5.01548 12.2411 5.49264 13.0531 6.25177 13.497L8.60506 14.8611C9.37503 15.305 10.3185 15.305 11.0885 14.8611L13.4418 13.497C14.2117 13.0531 14.6781 12.2411 14.6781 11.3533V8.63586C14.6998 7.75891 14.2226 6.93609 13.4526 6.49221Z" fill="#18181B"/>
<path d="M7.93807 3.50241C7.93807 4.50308 7.12687 5.31428 6.1262 5.31428C5.12554 5.31428 4.31433 4.50308 4.31433 3.50241C4.31433 2.50175 5.12554 1.69055 6.1262 1.69055C7.12687 1.69055 7.93807 2.50175 7.93807 3.50241Z" fill="#18181B"/>
<path d="M4.53123 5.94203C4.53123 6.9427 3.72003 7.7539 2.71936 7.7539C1.7187 7.7539 0.907495 6.9427 0.907495 5.94203C0.907495 4.94136 1.7187 4.13016 2.71936 4.13016C3.72003 4.13016 4.53123 4.94136 4.53123 5.94203Z" fill="#18181B"/>
<path d="M4.16853 10C4.16853 11.0007 3.35733 11.8119 2.35667 11.8119C1.356 11.8119 0.5448 11.0007 0.5448 10C0.5448 8.99933 1.356 8.18813 2.35667 8.18813C3.35733 8.18813 4.16853 8.99933 4.16853 10Z" fill="#18181B"/>
<path d="M4.5554 14.0821C4.5554 15.0828 3.7442 15.894 2.74353 15.894C1.74287 15.894 0.931667 15.0828 0.931667 14.0821C0.931667 13.0815 1.74287 12.2703 2.74353 12.2703C3.7442 12.2703 4.5554 13.0815 4.5554 14.0821Z" fill="#18181B"/>
<path d="M7.93807 16.4976C7.93807 17.4983 7.12687 18.3095 6.1262 18.3095C5.12554 18.3095 4.31433 17.4983 4.31433 16.4976C4.31433 15.4969 5.12554 14.6857 6.1262 14.6857C7.12687 14.6857 7.93807 15.4969 7.93807 16.4976Z" fill="#18181B"/>
<path d="M11.659 18.1881C11.659 19.1888 10.8478 20 9.84712 20C8.84645 20 8.03525 19.1888 8.03525 18.1881C8.03525 17.1875 8.84645 16.3763 9.84712 16.3763C10.8478 16.3763 11.659 17.1875 11.659 18.1881Z" fill="#18181B"/>
<path d="M15.3799 16.4976C15.3799 17.4983 14.5687 18.3095 13.5681 18.3095C12.5674 18.3095 11.7562 17.4983 11.7562 16.4976C11.7562 15.4969 12.5674 14.6857 13.5681 14.6857C14.5687 14.6857 15.3799 15.4969 15.3799 16.4976Z" fill="#18181B"/>
<path d="M18.7867 14.058C18.7867 15.0586 17.9755 15.8698 16.9749 15.8698C15.9742 15.8698 15.163 15.0586 15.163 14.058C15.163 13.0573 15.9742 12.2461 16.9749 12.2461C17.9755 12.2461 18.7867 13.0573 18.7867 14.058Z" fill="#18181B"/>
<path d="M19.1495 10C19.1495 11.0007 18.3382 11.8119 17.3376 11.8119C16.3369 11.8119 15.5257 11.0007 15.5257 10C15.5257 8.99933 16.3369 8.18813 17.3376 8.18813C18.3382 8.18813 19.1495 8.99933 19.1495 10Z" fill="#18181B"/>
<path d="M18.8109 5.91787C18.8109 6.91854 17.9997 7.72974 16.999 7.72974C15.9984 7.72974 15.1872 6.91854 15.1872 5.91787C15.1872 4.91721 15.9984 4.10601 16.999 4.10601C17.9997 4.10601 18.8109 4.91721 18.8109 5.91787Z" fill="#18181B"/>
<path d="M15.3799 3.47826C15.3799 4.47893 14.5687 5.29013 13.5681 5.29013C12.5674 5.29013 11.7562 4.47893 11.7562 3.47826C11.7562 2.47759 12.5674 1.66639 13.5681 1.66639C14.5687 1.66639 15.3799 2.47759 15.3799 3.47826Z" fill="#18181B"/>
<path d="M11.659 1.81187C11.659 2.81253 10.8478 3.62374 9.84712 3.62374C8.84645 3.62374 8.03525 2.81253 8.03525 1.81187C8.03525 0.811201 8.84645 0 9.84712 0C10.8478 0 11.659 0.811201 11.659 1.81187Z" fill="#18181B"/>
<path d="M29.7691 17.9999C28.9007 17.9999 28.1548 17.8869 27.5314 17.6607C26.9079 17.4388 26.407 17.1401 26.0285 16.7646C25.6499 16.3891 25.3872 15.9731 25.2403 15.5165L27.4178 15.0109C27.5158 15.2029 27.6583 15.3928 27.8453 15.5805C28.0324 15.7725 28.284 15.9304 28.6001 16.0542C28.9208 16.1822 29.3238 16.2462 29.8092 16.2462C30.4949 16.2462 31.0627 16.0862 31.5125 15.7661C31.9622 15.4504 32.1871 14.9298 32.1871 14.2044V12.3418H32.0669C31.9422 12.5808 31.7596 12.8261 31.5191 13.0779C31.2831 13.3296 30.9692 13.5408 30.5773 13.7115C30.1899 13.8822 29.7023 13.9676 29.1145 13.9676C28.3263 13.9676 27.6115 13.7905 26.9703 13.4363C26.3335 13.0779 25.8258 12.5445 25.4473 11.8362C25.0733 11.1236 24.8862 10.2317 24.8862 9.1607C24.8862 8.08113 25.0733 7.17012 25.4473 6.42765C25.8258 5.68091 26.3357 5.11552 26.977 4.73149C27.6182 4.34318 28.3329 4.14903 29.1211 4.14903C29.7223 4.14903 30.2166 4.24717 30.604 4.44346C30.9959 4.63548 31.3076 4.86803 31.5392 5.14113C31.7707 5.40995 31.9466 5.66384 32.0669 5.9028H32.2005V4.27704H34.5851V14.2684C34.5851 15.109 34.3758 15.8045 33.9572 16.355C33.5386 16.9054 32.9664 17.3172 32.2406 17.5903C31.5147 17.8634 30.6909 17.9999 29.7691 17.9999ZM29.7891 12.1498C30.3012 12.1498 30.7376 12.0303 31.0983 11.7914C31.459 11.5524 31.7329 11.2089 31.9199 10.7609C32.107 10.3128 32.2005 9.77516 32.2005 9.1479C32.2005 8.52918 32.107 7.98726 31.9199 7.52215C31.7373 7.05704 31.4657 6.69647 31.105 6.44045C30.7488 6.18016 30.3101 6.05001 29.7891 6.05001C29.2503 6.05001 28.8005 6.18442 28.4398 6.45325C28.0791 6.72207 27.8075 7.09118 27.6249 7.56055C27.4423 8.02566 27.351 8.55478 27.351 9.1479C27.351 9.74956 27.4423 10.2765 27.6249 10.7289C27.8119 11.1769 28.0858 11.5268 28.4465 11.7785C28.8117 12.026 29.2592 12.1498 29.7891 12.1498Z" fill="#18181B"/>
<path d="M40.5387 14.3004C39.5367 14.3004 38.6683 14.0892 37.9336 13.6667C37.1988 13.2443 36.6288 12.6533 36.2236 11.8938C35.8228 11.1342 35.6224 10.2467 35.6224 9.23111C35.6224 8.21555 35.8228 7.32586 36.2236 6.56206C36.6288 5.79825 37.1988 5.20513 37.9336 4.78269C38.6683 4.36025 39.5367 4.14903 40.5387 4.14903C41.5406 4.14903 42.409 4.36025 43.1437 4.78269C43.8785 5.20513 44.4463 5.79825 44.847 6.56206C45.2523 7.32586 45.4549 8.21555 45.4549 9.23111C45.4549 10.2467 45.2523 11.1342 44.847 11.8938C44.4463 12.6533 43.8785 13.2443 43.1437 13.6667C42.409 14.0892 41.5406 14.3004 40.5387 14.3004ZM40.552 12.4442C41.0953 12.4442 41.5495 12.3013 41.9147 12.0154C42.2798 11.7252 42.5515 11.3369 42.7296 10.8505C42.9122 10.364 43.0035 9.8221 43.0035 9.22471C43.0035 8.62305 42.9122 8.079 42.7296 7.59256C42.5515 7.10184 42.2798 6.71141 41.9147 6.42125C41.5495 6.13108 41.0953 5.986 40.552 5.986C39.9954 5.986 39.5323 6.13108 39.1626 6.42125C38.7975 6.71141 38.5236 7.10184 38.341 7.59256C38.1629 8.079 38.0739 8.62305 38.0739 9.22471C38.0739 9.8221 38.1629 10.364 38.341 10.8505C38.5236 11.3369 38.7975 11.7252 39.1626 12.0154C39.5323 12.3013 39.9954 12.4442 40.552 12.4442Z" fill="#18181B"/>
<path d="M46.5072 14.1084V4.27704H48.8518V5.9156H48.9587C49.1457 5.34808 49.4663 4.9107 49.9205 4.60347C50.3792 4.29198 50.9025 4.13623 51.4903 4.13623C51.6239 4.13623 51.773 4.14263 51.9378 4.15543C52.107 4.16397 52.2473 4.1789 52.3586 4.20024V6.33164C52.2562 6.2975 52.0937 6.26763 51.871 6.24203C51.6528 6.21216 51.4413 6.19722 51.2364 6.19722C50.7956 6.19722 50.3992 6.28897 50.0475 6.47245C49.7001 6.65167 49.4262 6.90129 49.2259 7.22132C49.0255 7.54135 48.9253 7.91045 48.9253 8.32862V14.1084H46.5072Z" fill="#18181B"/>
<path d="M57.5657 17.9871C56.6974 17.9871 55.9515 17.8741 55.328 17.6479C54.7046 17.426 54.2036 17.1273 53.8251 16.7518C53.4466 16.3763 53.1838 15.9603 53.0369 15.5037L55.2145 14.9981C55.3124 15.1901 55.4549 15.38 55.642 15.5677C55.829 15.7597 56.0806 15.9176 56.3968 16.0414C56.7174 16.1694 57.1204 16.2334 57.6058 16.2334C58.2916 16.2334 58.8593 16.0734 59.3091 15.7533C59.7589 15.4376 59.9837 14.917 59.9837 14.1916V12.329H59.8635C59.7388 12.568 59.5562 12.8133 59.3158 13.0651C59.0798 13.3168 58.7658 13.528 58.3739 13.6987C57.9865 13.8694 57.4989 13.9548 56.9111 13.9548C56.1229 13.9548 55.4082 13.7777 54.7669 13.4235C54.1301 13.0651 53.6225 12.5317 53.244 11.8234C52.8699 11.1108 52.6829 10.2189 52.6829 9.1479C52.6829 8.06833 52.8699 7.15731 53.244 6.41484C53.6225 5.66811 54.1324 5.10272 54.7736 4.71868C55.4149 4.33038 56.1296 4.13623 56.9178 4.13623C57.5189 4.13623 58.0132 4.23437 58.4007 4.43066C58.7925 4.62268 59.1043 4.85523 59.3358 5.12832C59.5674 5.39715 59.7433 5.65104 59.8635 5.89H59.9971V4.26424H62.3818V14.2556C62.3818 15.0962 62.1725 15.7917 61.7539 16.3422C61.3353 16.8926 60.763 17.3044 60.0372 17.5775C59.3113 17.8506 58.4875 17.9871 57.5657 17.9871ZM57.5857 12.137C58.0979 12.137 58.5343 12.0175 58.895 11.7785C59.2557 11.5396 59.5295 11.1961 59.7166 10.7481C59.9036 10.3 59.9971 9.76236 59.9971 9.1351C59.9971 8.51638 59.9036 7.97446 59.7166 7.50935C59.534 7.04424 59.2623 6.68367 58.9016 6.42765C58.5454 6.16735 58.1068 6.03721 57.5857 6.03721C57.0469 6.03721 56.5972 6.17162 56.2365 6.44045C55.8757 6.70927 55.6041 7.07837 55.4215 7.54775C55.239 8.01286 55.1477 8.54198 55.1477 9.1351C55.1477 9.73676 55.239 10.2637 55.4215 10.7161C55.6086 11.1641 55.8824 11.514 56.2431 11.7657C56.6083 12.0132 57.0558 12.137 57.5857 12.137Z" fill="#18181B"/>
<path d="M68.4431 14.3004C67.4412 14.3004 66.5728 14.0892 65.8381 13.6667C65.1033 13.2443 64.5333 12.6533 64.1281 11.8938C63.7273 11.1342 63.5269 10.2467 63.5269 9.23111C63.5269 8.21555 63.7273 7.32586 64.1281 6.56206C64.5333 5.79825 65.1033 5.20513 65.8381 4.78269C66.5728 4.36025 67.4412 4.14903 68.4431 4.14903C69.4451 4.14903 70.3134 4.36025 71.0482 4.78269C71.783 5.20513 72.3507 5.79825 72.7515 6.56206C73.1568 7.32586 73.3594 8.21555 73.3594 9.23111C73.3594 10.2467 73.1568 11.1342 72.7515 11.8938C72.3507 12.6533 71.783 13.2443 71.0482 13.6667C70.3134 14.0892 69.4451 14.3004 68.4431 14.3004ZM68.4565 12.4442C68.9998 12.4442 69.454 12.3013 69.8191 12.0154C70.1843 11.7252 70.4559 11.3369 70.6341 10.8505C70.8166 10.364 70.9079 9.8221 70.9079 9.22471C70.9079 8.62305 70.8166 8.079 70.6341 7.59256C70.4559 7.10184 70.1843 6.71141 69.8191 6.42125C69.454 6.13108 68.9998 5.986 68.4565 5.986C67.8999 5.986 67.4367 6.13108 67.0671 6.42125C66.702 6.71141 66.4281 7.10184 66.2455 7.59256C66.0674 8.079 65.9783 8.62305 65.9783 9.22471C65.9783 9.8221 66.0674 10.364 66.2455 10.8505C66.4281 11.3369 66.702 11.7252 67.0671 12.0154C67.4367 12.3013 67.8999 12.4442 68.4565 12.4442Z" fill="#18181B"/>
<path d="M80.6824 14.5H77.3862V4.31816H80.7868C81.7844 4.31816 82.6412 4.522 83.3571 4.92967C84.073 5.33402 84.6216 5.9157 85.0027 6.67469C85.3872 7.43038 85.5794 8.33686 85.5794 9.39415C85.5794 10.4548 85.3855 11.3662 84.9977 12.1285C84.6133 12.8908 84.0564 13.4775 83.3273 13.8885C82.5981 14.2961 81.7165 14.5 80.6824 14.5ZM78.9225 13.1576H80.5979C81.3734 13.1576 82.0181 13.0118 82.5318 12.7201C83.0456 12.4252 83.43 11.9993 83.6852 11.4424C83.9404 10.8823 84.068 10.1996 84.068 9.39415C84.068 8.59539 83.9404 7.91759 83.6852 7.36077C83.4333 6.80396 83.0572 6.38137 82.5567 6.09302C82.0562 5.80467 81.4348 5.66049 80.6923 5.66049H78.9225V13.1576Z" fill="url(#paint0_linear_3265_1598)"/>
<path d="M95.9758 9.40907C95.9758 10.4962 95.7769 11.4308 95.3792 12.213C94.9815 12.9919 94.4363 13.5918 93.7436 14.0128C93.0542 14.4304 92.2703 14.6392 91.392 14.6392C90.5104 14.6392 89.7232 14.4304 89.0305 14.0128C88.3411 13.5918 87.7975 12.9903 87.3998 12.2081C87.0021 11.4259 86.8032 10.4929 86.8032 9.40907C86.8032 8.32195 87.0021 7.38895 87.3998 6.61006C87.7975 5.82787 88.3411 5.22796 89.0305 4.81035C89.7232 4.38942 90.5104 4.17896 91.392 4.17896C92.2703 4.17896 93.0542 4.38942 93.7436 4.81035C94.4363 5.22796 94.9815 5.82787 95.3792 6.61006C95.7769 7.38895 95.9758 8.32195 95.9758 9.40907ZM94.4545 9.40907C94.4545 8.58047 94.3203 7.88279 94.0518 7.31603C93.7866 6.74595 93.4221 6.31508 92.9581 6.02342C92.4973 5.72843 91.9753 5.58094 91.392 5.58094C90.8054 5.58094 90.2817 5.72843 89.821 6.02342C89.3603 6.31508 88.9957 6.74595 88.7272 7.31603C88.4621 7.88279 88.3295 8.58047 88.3295 9.40907C88.3295 10.2377 88.4621 10.937 88.7272 11.5071C88.9957 12.0738 89.3603 12.5047 89.821 12.7997C90.2817 13.0914 90.8054 13.2372 91.392 13.2372C91.9753 13.2372 92.4973 13.0914 92.9581 12.7997C93.4221 12.5047 93.7866 12.0738 94.0518 11.5071C94.3203 10.937 94.4545 10.2377 94.4545 9.40907Z" fill="url(#paint1_linear_3265_1598)"/>
<path d="M105.989 7.62924H104.438C104.379 7.2978 104.268 7.00613 104.105 6.75424C103.943 6.50235 103.744 6.28857 103.509 6.1129C103.273 5.93724 103.01 5.80467 102.718 5.71518C102.43 5.62569 102.123 5.58094 101.798 5.58094C101.212 5.58094 100.686 5.72843 100.222 6.02342C99.7616 6.3184 99.3971 6.75093 99.1286 7.321C98.8634 7.89108 98.7309 8.5871 98.7309 9.40907C98.7309 10.2377 98.8634 10.937 99.1286 11.5071C99.3971 12.0772 99.7633 12.508 100.227 12.7997C100.691 13.0914 101.213 13.2372 101.793 13.2372C102.115 13.2372 102.42 13.1941 102.708 13.1079C103 13.0184 103.263 12.8875 103.499 12.7152C103.734 12.5428 103.933 12.3324 104.095 12.0838C104.261 11.8319 104.375 11.5435 104.438 11.2187L105.989 11.2237C105.907 11.7242 105.746 12.1849 105.507 12.6058C105.272 13.0234 104.969 13.3847 104.597 13.6896C104.229 13.9912 103.809 14.2249 103.335 14.3906C102.861 14.5563 102.344 14.6392 101.783 14.6392C100.902 14.6392 100.116 14.4304 99.4269 14.0128C98.7375 13.5918 98.1939 12.9903 97.7962 12.2081C97.4018 11.4259 97.2046 10.4929 97.2046 9.40907C97.2046 8.32195 97.4034 7.38895 97.8012 6.61006C98.1989 5.82787 98.7425 5.22796 99.4319 4.81035C100.121 4.38942 100.905 4.17896 101.783 4.17896C102.324 4.17896 102.827 4.25684 103.295 4.41262C103.765 4.56508 104.188 4.79046 104.563 5.08876C104.937 5.38374 105.247 5.74501 105.492 6.17256C105.737 6.59681 105.903 7.08236 105.989 7.62924Z" fill="url(#paint2_linear_3265_1598)"/>
<path d="M113.023 6.99288C112.969 6.52223 112.751 6.15765 112.366 5.89913C111.982 5.63729 111.498 5.50637 110.915 5.50637C110.497 5.50637 110.136 5.57266 109.831 5.70523C109.526 5.83449 109.289 6.01347 109.12 6.24217C108.954 6.46754 108.871 6.72441 108.871 7.01276C108.871 7.25471 108.928 7.46352 109.04 7.63918C109.156 7.81485 109.307 7.96234 109.493 8.08165C109.682 8.19766 109.884 8.29543 110.099 8.37498C110.315 8.45121 110.522 8.51418 110.721 8.5639L111.715 8.82242C112.04 8.90197 112.373 9.00968 112.714 9.14557C113.056 9.28146 113.372 9.46044 113.664 9.68251C113.956 9.90457 114.191 10.1797 114.37 10.5078C114.552 10.8359 114.643 11.2287 114.643 11.6861C114.643 12.2628 114.494 12.7748 114.196 13.2223C113.901 13.6697 113.472 14.0227 112.908 14.2812C112.348 14.5398 111.67 14.669 110.875 14.669C110.112 14.669 109.453 14.548 108.896 14.3061C108.339 14.0641 107.903 13.7211 107.589 13.277C107.274 12.8295 107.1 12.2992 107.067 11.6861H108.608C108.638 12.054 108.757 12.3605 108.966 12.6058C109.178 12.8478 109.448 13.0284 109.776 13.1477C110.107 13.2637 110.47 13.3217 110.865 13.3217C111.299 13.3217 111.685 13.2538 112.023 13.1179C112.365 12.9787 112.633 12.7864 112.829 12.5412C113.024 12.2926 113.122 12.0026 113.122 11.6711C113.122 11.3695 113.036 11.1226 112.863 10.9304C112.694 10.7381 112.464 10.5791 112.172 10.4531C111.884 10.3272 111.558 10.2161 111.193 10.12L109.99 9.79188C109.174 9.56982 108.528 9.24335 108.051 8.81248C107.577 8.38161 107.34 7.81153 107.34 7.10225C107.34 6.5156 107.499 6.00353 107.817 5.56603C108.135 5.12853 108.566 4.7888 109.11 4.54685C109.653 4.30159 110.267 4.17896 110.949 4.17896C111.639 4.17896 112.247 4.29993 112.774 4.54188C113.304 4.78383 113.722 5.11693 114.027 5.54117C114.332 5.9621 114.491 6.446 114.504 6.99288H113.023Z" fill="url(#paint3_linear_3265_1598)"/>
<defs>
<linearGradient id="paint0_linear_3265_1598" x1="86.5371" y1="9.42398" x2="91.8105" y2="24.0202" gradientUnits="userSpaceOnUse">
<stop stop-color="#DEBA92"/>
<stop offset="0.381453" stop-color="#9F724E"/>
<stop offset="0.889423" stop-color="#32150C"/>
</linearGradient>
<linearGradient id="paint1_linear_3265_1598" x1="86.5371" y1="9.42398" x2="91.8105" y2="24.0202" gradientUnits="userSpaceOnUse">
<stop stop-color="#DEBA92"/>
<stop offset="0.381453" stop-color="#9F724E"/>
<stop offset="0.889423" stop-color="#32150C"/>
</linearGradient>
<linearGradient id="paint2_linear_3265_1598" x1="86.5371" y1="9.42398" x2="91.8105" y2="24.0202" gradientUnits="userSpaceOnUse">
<stop stop-color="#DEBA92"/>
<stop offset="0.381453" stop-color="#9F724E"/>
<stop offset="0.889423" stop-color="#32150C"/>
</linearGradient>
<linearGradient id="paint3_linear_3265_1598" x1="86.5371" y1="9.42398" x2="91.8105" y2="24.0202" gradientUnits="userSpaceOnUse">
<stop stop-color="#DEBA92"/>
<stop offset="0.381453" stop-color="#9F724E"/>
<stop offset="0.889423" stop-color="#32150C"/>
</linearGradient>
</defs>
</svg>
