<svg width="119" height="21" viewBox="0 0 119 21" fill="none" xmlns="http://www.w3.org/2000/svg">
<path d="M13.4518 6.49221L11.0985 5.13889C10.3285 4.69501 9.38502 4.69501 8.61505 5.13889L6.25091 6.49221C5.49179 6.93609 5.01462 7.75891 5.01462 8.63586V11.3533C5.01462 12.2411 5.49179 13.0531 6.25091 13.497L8.6042 14.8611C9.37417 15.305 10.3177 15.305 11.0876 14.8611L13.4409 13.497C14.2109 13.0531 14.6772 12.2411 14.6772 11.3533V8.63586C14.6989 7.75891 14.2217 6.93609 13.4518 6.49221Z" fill="#F4F4F5"/>
<path d="M7.93722 3.50241C7.93722 4.50308 7.12601 5.31428 6.12535 5.31428C5.12468 5.31428 4.31348 4.50308 4.31348 3.50241C4.31348 2.50175 5.12468 1.69055 6.12535 1.69055C7.12601 1.69055 7.93722 2.50175 7.93722 3.50241Z" fill="#F4F4F5"/>
<path d="M4.53038 5.94203C4.53038 6.9427 3.71918 7.7539 2.71851 7.7539C1.71784 7.7539 0.906641 6.9427 0.906641 5.94203C0.906641 4.94136 1.71784 4.13016 2.71851 4.13016C3.71918 4.13016 4.53038 4.94136 4.53038 5.94203Z" fill="#F4F4F5"/>
<path d="M4.16768 10C4.16768 11.0007 3.35648 11.8119 2.35581 11.8119C1.35515 11.8119 0.543945 11.0007 0.543945 10C0.543945 8.99933 1.35515 8.18813 2.35581 8.18813C3.35648 8.18813 4.16768 8.99933 4.16768 10Z" fill="#F4F4F5"/>
<path d="M4.55455 14.0821C4.55455 15.0828 3.74335 15.894 2.74268 15.894C1.74201 15.894 0.930812 15.0828 0.930812 14.0821C0.930812 13.0815 1.74201 12.2703 2.74268 12.2703C3.74335 12.2703 4.55455 13.0815 4.55455 14.0821Z" fill="#F4F4F5"/>
<path d="M7.93722 16.4976C7.93722 17.4983 7.12601 18.3095 6.12535 18.3095C5.12468 18.3095 4.31348 17.4983 4.31348 16.4976C4.31348 15.4969 5.12468 14.6857 6.12535 14.6857C7.12601 14.6857 7.93722 15.4969 7.93722 16.4976Z" fill="#F4F4F5"/>
<path d="M11.6581 18.1881C11.6581 19.1888 10.8469 20 9.84627 20C8.8456 20 8.0344 19.1888 8.0344 18.1881C8.0344 17.1875 8.8456 16.3763 9.84627 16.3763C10.8469 16.3763 11.6581 17.1875 11.6581 18.1881Z" fill="#F4F4F5"/>
<path d="M15.3791 16.4976C15.3791 17.4983 14.5679 18.3095 13.5672 18.3095C12.5665 18.3095 11.7553 17.4983 11.7553 16.4976C11.7553 15.4969 12.5665 14.6857 13.5672 14.6857C14.5679 14.6857 15.3791 15.4969 15.3791 16.4976Z" fill="#F4F4F5"/>
<path d="M18.7859 14.058C18.7859 15.0586 17.9747 15.8698 16.974 15.8698C15.9734 15.8698 15.1622 15.0586 15.1622 14.058C15.1622 13.0573 15.9734 12.2461 16.974 12.2461C17.9747 12.2461 18.7859 13.0573 18.7859 14.058Z" fill="#F4F4F5"/>
<path d="M19.1486 10C19.1486 11.0007 18.3374 11.8119 17.3367 11.8119C16.3361 11.8119 15.5249 11.0007 15.5249 10C15.5249 8.99933 16.3361 8.18813 17.3367 8.18813C18.3374 8.18813 19.1486 8.99933 19.1486 10Z" fill="#F4F4F5"/>
<path d="M18.8101 5.91787C18.8101 6.91854 17.9989 7.72974 16.9982 7.72974C15.9975 7.72974 15.1863 6.91854 15.1863 5.91787C15.1863 4.91721 15.9975 4.10601 16.9982 4.10601C17.9989 4.10601 18.8101 4.91721 18.8101 5.91787Z" fill="#F4F4F5"/>
<path d="M15.3791 3.47826C15.3791 4.47893 14.5679 5.29013 13.5672 5.29013C12.5665 5.29013 11.7553 4.47893 11.7553 3.47826C11.7553 2.47759 12.5665 1.66639 13.5672 1.66639C14.5679 1.66639 15.3791 2.47759 15.3791 3.47826Z" fill="#F4F4F5"/>
<path d="M11.6581 1.81187C11.6581 2.81253 10.8469 3.62374 9.84627 3.62374C8.8456 3.62374 8.0344 2.81253 8.0344 1.81187C8.0344 0.811201 8.8456 0 9.84627 0C10.8469 0 11.6581 0.811201 11.6581 1.81187Z" fill="#F4F4F5"/>
<path d="M29.7686 17.9999C28.9002 17.9999 28.1543 17.8869 27.5309 17.6607C26.9075 17.4388 26.4065 17.1401 26.028 16.7646C25.6495 16.3891 25.3867 15.9731 25.2398 15.5165L27.4173 15.0109C27.5153 15.2029 27.6578 15.3928 27.8448 15.5805C28.0319 15.7725 28.2835 15.9304 28.5996 16.0542C28.9203 16.1822 29.3233 16.2462 29.8087 16.2462C30.4944 16.2462 31.0622 16.0862 31.512 15.7661C31.9617 15.4504 32.1866 14.9298 32.1866 14.2044V12.3418H32.0664C31.9417 12.5808 31.7591 12.8261 31.5187 13.0779C31.2826 13.3296 30.9687 13.5408 30.5768 13.7115C30.1894 13.8822 29.7018 13.9676 29.114 13.9676C28.3258 13.9676 27.611 13.7905 26.9698 13.4363C26.333 13.0779 25.8253 12.5445 25.4468 11.8362C25.0728 11.1236 24.8857 10.2317 24.8857 9.1607C24.8857 8.08113 25.0728 7.17012 25.4468 6.42765C25.8253 5.68091 26.3352 5.11552 26.9765 4.73149C27.6177 4.34318 28.3325 4.14903 29.1207 4.14903C29.7218 4.14903 30.2161 4.24717 30.6035 4.44346C30.9954 4.63548 31.3071 4.86803 31.5387 5.14113C31.7703 5.40995 31.9462 5.66384 32.0664 5.9028H32.2V4.27704H34.5846V14.2684C34.5846 15.109 34.3753 15.8045 33.9567 16.355C33.5381 16.9054 32.9659 17.3172 32.2401 17.5903C31.5142 17.8634 30.6904 17.9999 29.7686 17.9999ZM29.7886 12.1498C30.3007 12.1498 30.7371 12.0303 31.0978 11.7914C31.4585 11.5524 31.7324 11.2089 31.9194 10.7609C32.1065 10.3128 32.2 9.77516 32.2 9.1479C32.2 8.52918 32.1065 7.98726 31.9194 7.52215C31.7369 7.05704 31.4652 6.69647 31.1045 6.44045C30.7483 6.18016 30.3096 6.05001 29.7886 6.05001C29.2498 6.05001 28.8 6.18442 28.4393 6.45325C28.0786 6.72207 27.807 7.09118 27.6244 7.56055C27.4418 8.02566 27.3505 8.55478 27.3505 9.1479C27.3505 9.74956 27.4418 10.2765 27.6244 10.7289C27.8114 11.1769 28.0853 11.5268 28.446 11.7785C28.8112 12.026 29.2587 12.1498 29.7886 12.1498Z" fill="#F4F4F5"/>
<path d="M40.5382 14.3004C39.5362 14.3004 38.6679 14.0892 37.9331 13.6667C37.1983 13.2443 36.6283 12.6533 36.2231 11.8938C35.8223 11.1342 35.6219 10.2467 35.6219 9.23111C35.6219 8.21555 35.8223 7.32586 36.2231 6.56206C36.6283 5.79825 37.1983 5.20513 37.9331 4.78269C38.6679 4.36025 39.5362 4.14903 40.5382 4.14903C41.5401 4.14903 42.4085 4.36025 43.1432 4.78269C43.878 5.20513 44.4458 5.79825 44.8466 6.56206C45.2518 7.32586 45.4544 8.21555 45.4544 9.23111C45.4544 10.2467 45.2518 11.1342 44.8466 11.8938C44.4458 12.6533 43.878 13.2443 43.1432 13.6667C42.4085 14.0892 41.5401 14.3004 40.5382 14.3004ZM40.5515 12.4442C41.0948 12.4442 41.549 12.3013 41.9142 12.0154C42.2793 11.7252 42.551 11.3369 42.7291 10.8505C42.9117 10.364 43.003 9.8221 43.003 9.22471C43.003 8.62305 42.9117 8.079 42.7291 7.59256C42.551 7.10184 42.2793 6.71141 41.9142 6.42125C41.549 6.13108 41.0948 5.986 40.5515 5.986C39.9949 5.986 39.5318 6.13108 39.1622 6.42125C38.797 6.71141 38.5231 7.10184 38.3406 7.59256C38.1624 8.079 38.0734 8.62305 38.0734 9.22471C38.0734 9.8221 38.1624 10.364 38.3406 10.8505C38.5231 11.3369 38.797 11.7252 39.1622 12.0154C39.5318 12.3013 39.9949 12.4442 40.5515 12.4442Z" fill="#F4F4F5"/>
<path d="M46.5067 14.1084V4.27704H48.8513V5.9156H48.9582C49.1452 5.34808 49.4658 4.9107 49.9201 4.60347C50.3787 4.29198 50.902 4.13623 51.4898 4.13623C51.6234 4.13623 51.7725 4.14263 51.9373 4.15543C52.1065 4.16397 52.2468 4.1789 52.3581 4.20024V6.33164C52.2557 6.2975 52.0932 6.26763 51.8705 6.24203C51.6523 6.21216 51.4408 6.19722 51.2359 6.19722C50.7951 6.19722 50.3988 6.28897 50.047 6.47245C49.6996 6.65167 49.4258 6.90129 49.2254 7.22132C49.025 7.54135 48.9248 7.91045 48.9248 8.32862V14.1084H46.5067Z" fill="#F4F4F5"/>
<path d="M57.5652 17.9871C56.6969 17.9871 55.951 17.8741 55.3275 17.6479C54.7041 17.426 54.2031 17.1273 53.8246 16.7518C53.4461 16.3763 53.1834 15.9603 53.0364 15.5037L55.214 14.9981C55.3119 15.1901 55.4544 15.38 55.6415 15.5677C55.8285 15.7597 56.0801 15.9176 56.3963 16.0414C56.7169 16.1694 57.1199 16.2334 57.6053 16.2334C58.2911 16.2334 58.8589 16.0734 59.3086 15.7533C59.7584 15.4376 59.9833 14.917 59.9833 14.1916V12.329H59.863C59.7383 12.568 59.5558 12.8133 59.3153 13.0651C59.0793 13.3168 58.7653 13.528 58.3735 13.6987C57.986 13.8694 57.4984 13.9548 56.9106 13.9548C56.1224 13.9548 55.4077 13.7777 54.7664 13.4235C54.1296 13.0651 53.622 12.5317 53.2435 11.8234C52.8694 11.1108 52.6824 10.2189 52.6824 9.1479C52.6824 8.06833 52.8694 7.15731 53.2435 6.41484C53.622 5.66811 54.1319 5.10272 54.7731 4.71868C55.4144 4.33038 56.1291 4.13623 56.9173 4.13623C57.5185 4.13623 58.0128 4.23437 58.4002 4.43066C58.792 4.62268 59.1038 4.85523 59.3353 5.12832C59.5669 5.39715 59.7428 5.65104 59.863 5.89H59.9966V4.26424H62.3813V14.2556C62.3813 15.0962 62.172 15.7917 61.7534 16.3422C61.3348 16.8926 60.7626 17.3044 60.0367 17.5775C59.3108 17.8506 58.487 17.9871 57.5652 17.9871ZM57.5853 12.137C58.0974 12.137 58.5338 12.0175 58.8945 11.7785C59.2552 11.5396 59.529 11.1961 59.7161 10.7481C59.9031 10.3 59.9966 9.76236 59.9966 9.1351C59.9966 8.51638 59.9031 7.97446 59.7161 7.50935C59.5335 7.04424 59.2619 6.68367 58.9012 6.42765C58.5449 6.16735 58.1063 6.03721 57.5853 6.03721C57.0464 6.03721 56.5967 6.17162 56.236 6.44045C55.8753 6.70927 55.6036 7.07837 55.421 7.54775C55.2385 8.01286 55.1472 8.54198 55.1472 9.1351C55.1472 9.73676 55.2385 10.2637 55.421 10.7161C55.6081 11.1641 55.8819 11.514 56.2426 11.7657C56.6078 12.0132 57.0553 12.137 57.5853 12.137Z" fill="#F4F4F5"/>
<path d="M68.4426 14.3004C67.4407 14.3004 66.5723 14.0892 65.8376 13.6667C65.1028 13.2443 64.5328 12.6533 64.1276 11.8938C63.7268 11.1342 63.5264 10.2467 63.5264 9.23111C63.5264 8.21555 63.7268 7.32586 64.1276 6.56206C64.5328 5.79825 65.1028 5.20513 65.8376 4.78269C66.5723 4.36025 67.4407 4.14903 68.4426 4.14903C69.4446 4.14903 70.313 4.36025 71.0477 4.78269C71.7825 5.20513 72.3503 5.79825 72.751 6.56206C73.1563 7.32586 73.3589 8.21555 73.3589 9.23111C73.3589 10.2467 73.1563 11.1342 72.751 11.8938C72.3503 12.6533 71.7825 13.2443 71.0477 13.6667C70.313 14.0892 69.4446 14.3004 68.4426 14.3004ZM68.456 12.4442C68.9993 12.4442 69.4535 12.3013 69.8187 12.0154C70.1838 11.7252 70.4555 11.3369 70.6336 10.8505C70.8162 10.364 70.9074 9.8221 70.9074 9.22471C70.9074 8.62305 70.8162 8.079 70.6336 7.59256C70.4555 7.10184 70.1838 6.71141 69.8187 6.42125C69.4535 6.13108 68.9993 5.986 68.456 5.986C67.8994 5.986 67.4362 6.13108 67.0666 6.42125C66.7015 6.71141 66.4276 7.10184 66.245 7.59256C66.0669 8.079 65.9778 8.62305 65.9778 9.22471C65.9778 9.8221 66.0669 10.364 66.245 10.8505C66.4276 11.3369 66.7015 11.7252 67.0666 12.0154C67.4362 12.3013 67.8994 12.4442 68.456 12.4442Z" fill="#F4F4F5"/>
<path d="M80.6819 14.5H77.3857V4.31816H80.7863C81.7839 4.31816 82.6407 4.522 83.3566 4.92967C84.0725 5.33402 84.6211 5.9157 85.0022 6.67469C85.3867 7.43038 85.5789 8.33686 85.5789 9.39415C85.5789 10.4548 85.385 11.3662 84.9972 12.1285C84.6128 12.8908 84.056 13.4775 83.3268 13.8885C82.5976 14.2961 81.716 14.5 80.6819 14.5ZM78.922 13.1576H80.5974C81.373 13.1576 82.0176 13.0118 82.5313 12.7201C83.0451 12.4252 83.4295 11.9993 83.6847 11.4424C83.94 10.8823 84.0676 10.1996 84.0676 9.39415C84.0676 8.59539 83.94 7.91759 83.6847 7.36077C83.4329 6.80396 83.0567 6.38137 82.5562 6.09302C82.0557 5.80467 81.4343 5.66049 80.6919 5.66049H78.922V13.1576Z" fill="url(#paint0_linear_3265_516)"/>
<path d="M95.9753 9.40907C95.9753 10.4962 95.7765 11.4308 95.3787 12.213C94.981 12.9919 94.4358 13.5918 93.7431 14.0128C93.0537 14.4304 92.2698 14.6392 91.3915 14.6392C90.5099 14.6392 89.7227 14.4304 89.03 14.0128C88.3406 13.5918 87.7971 12.9903 87.3993 12.2081C87.0016 11.4259 86.8027 10.4929 86.8027 9.40907C86.8027 8.32195 87.0016 7.38895 87.3993 6.61006C87.7971 5.82787 88.3406 5.22796 89.03 4.81035C89.7227 4.38942 90.5099 4.17896 91.3915 4.17896C92.2698 4.17896 93.0537 4.38942 93.7431 4.81035C94.4358 5.22796 94.981 5.82787 95.3787 6.61006C95.7765 7.38895 95.9753 8.32195 95.9753 9.40907ZM94.454 9.40907C94.454 8.58047 94.3198 7.88279 94.0513 7.31603C93.7862 6.74595 93.4216 6.31508 92.9576 6.02342C92.4969 5.72843 91.9748 5.58094 91.3915 5.58094C90.8049 5.58094 90.2812 5.72843 89.8205 6.02342C89.3598 6.31508 88.9952 6.74595 88.7267 7.31603C88.4616 7.88279 88.329 8.58047 88.329 9.40907C88.329 10.2377 88.4616 10.937 88.7267 11.5071C88.9952 12.0738 89.3598 12.5047 89.8205 12.7997C90.2812 13.0914 90.8049 13.2372 91.3915 13.2372C91.9748 13.2372 92.4969 13.0914 92.9576 12.7997C93.4216 12.5047 93.7862 12.0738 94.0513 11.5071C94.3198 10.937 94.454 10.2377 94.454 9.40907Z" fill="url(#paint1_linear_3265_516)"/>
<path d="M105.989 7.62924H104.438C104.378 7.2978 104.267 7.00613 104.105 6.75424C103.942 6.50235 103.743 6.28857 103.508 6.1129C103.273 5.93724 103.009 5.80467 102.718 5.71518C102.429 5.62569 102.123 5.58094 101.798 5.58094C101.211 5.58094 100.686 5.72843 100.222 6.02342C99.7612 6.3184 99.3966 6.75093 99.1281 7.321C98.863 7.89108 98.7304 8.5871 98.7304 9.40907C98.7304 10.2377 98.863 10.937 99.1281 11.5071C99.3966 12.0772 99.7628 12.508 100.227 12.7997C100.691 13.0914 101.213 13.2372 101.793 13.2372C102.114 13.2372 102.419 13.1941 102.708 13.1079C102.999 13.0184 103.263 12.8875 103.498 12.7152C103.733 12.5428 103.932 12.3324 104.095 12.0838C104.26 11.8319 104.375 11.5435 104.438 11.2187L105.989 11.2237C105.906 11.7242 105.745 12.1849 105.507 12.6058C105.271 13.0234 104.968 13.3847 104.597 13.6896C104.229 13.9912 103.808 14.2249 103.334 14.3906C102.86 14.5563 102.343 14.6392 101.783 14.6392C100.901 14.6392 100.116 14.4304 99.4264 14.0128C98.737 13.5918 98.1934 12.9903 97.7957 12.2081C97.4013 11.4259 97.2041 10.4929 97.2041 9.40907C97.2041 8.32195 97.403 7.38895 97.8007 6.61006C98.1984 5.82787 98.742 5.22796 99.4314 4.81035C100.121 4.38942 100.905 4.17896 101.783 4.17896C102.323 4.17896 102.827 4.25684 103.294 4.41262C103.765 4.56508 104.188 4.79046 104.562 5.08876C104.937 5.38374 105.246 5.74501 105.492 6.17256C105.737 6.59681 105.903 7.08236 105.989 7.62924Z" fill="url(#paint2_linear_3265_516)"/>
<path d="M113.022 6.99288C112.969 6.52223 112.75 6.15765 112.366 5.89913C111.981 5.63729 111.497 5.50637 110.914 5.50637C110.496 5.50637 110.135 5.57266 109.83 5.70523C109.525 5.83449 109.288 6.01347 109.119 6.24217C108.954 6.46754 108.871 6.72441 108.871 7.01276C108.871 7.25471 108.927 7.46352 109.04 7.63918C109.156 7.81485 109.307 7.96234 109.492 8.08165C109.681 8.19766 109.883 8.29543 110.099 8.37498C110.314 8.45121 110.521 8.51418 110.72 8.5639L111.714 8.82242C112.039 8.90197 112.372 9.00968 112.714 9.14557C113.055 9.28146 113.372 9.46044 113.663 9.68251C113.955 9.90457 114.19 10.1797 114.369 10.5078C114.552 10.8359 114.643 11.2287 114.643 11.6861C114.643 12.2628 114.494 12.7748 114.195 13.2223C113.9 13.6697 113.471 14.0227 112.908 14.2812C112.348 14.5398 111.67 14.669 110.874 14.669C110.112 14.669 109.452 14.548 108.896 14.3061C108.339 14.0641 107.903 13.7211 107.588 13.277C107.273 12.8295 107.099 12.2992 107.066 11.6861H108.607C108.637 12.054 108.756 12.3605 108.965 12.6058C109.177 12.8478 109.447 13.0284 109.776 13.1477C110.107 13.2637 110.47 13.3217 110.864 13.3217C111.299 13.3217 111.685 13.2538 112.023 13.1179C112.364 12.9787 112.633 12.7864 112.828 12.5412C113.024 12.2926 113.121 12.0026 113.121 11.6711C113.121 11.3695 113.035 11.1226 112.863 10.9304C112.694 10.7381 112.464 10.5791 112.172 10.4531C111.884 10.3272 111.557 10.2161 111.192 10.12L109.989 9.79188C109.174 9.56982 108.528 9.24335 108.05 8.81248C107.576 8.38161 107.339 7.81153 107.339 7.10225C107.339 6.5156 107.499 6.00353 107.817 5.56603C108.135 5.12853 108.566 4.7888 109.109 4.54685C109.653 4.30159 110.266 4.17896 110.949 4.17896C111.638 4.17896 112.246 4.29993 112.773 4.54188C113.304 4.78383 113.721 5.11693 114.026 5.54117C114.331 5.9621 114.49 6.446 114.504 6.99288H113.022Z" fill="url(#paint3_linear_3265_516)"/>
<defs>
<linearGradient id="paint0_linear_3265_516" x1="77.6628" y1="7.39389" x2="120.917" y2="7.68077" gradientUnits="userSpaceOnUse">
<stop offset="0.328344" stop-color="#9F724E"/>
<stop offset="0.509615" stop-color="#DEBA92"/>
<stop offset="0.982204" stop-color="#32150C"/>
</linearGradient>
<linearGradient id="paint1_linear_3265_516" x1="77.6628" y1="7.39389" x2="120.917" y2="7.68077" gradientUnits="userSpaceOnUse">
<stop offset="0.328344" stop-color="#9F724E"/>
<stop offset="0.509615" stop-color="#DEBA92"/>
<stop offset="0.982204" stop-color="#32150C"/>
</linearGradient>
<linearGradient id="paint2_linear_3265_516" x1="77.6628" y1="7.39389" x2="120.917" y2="7.68077" gradientUnits="userSpaceOnUse">
<stop offset="0.328344" stop-color="#9F724E"/>
<stop offset="0.509615" stop-color="#DEBA92"/>
<stop offset="0.982204" stop-color="#32150C"/>
</linearGradient>
<linearGradient id="paint3_linear_3265_516" x1="77.6628" y1="7.39389" x2="120.917" y2="7.68077" gradientUnits="userSpaceOnUse">
<stop offset="0.328344" stop-color="#9F724E"/>
<stop offset="0.509615" stop-color="#DEBA92"/>
<stop offset="0.982204" stop-color="#32150C"/>
</linearGradient>
</defs>
</svg>
