<svg width="158" height="170" viewBox="0 0 158 170" fill="none" xmlns="http://www.w3.org/2000/svg">
<path d="M137.951 27.5951L99.4739 5.44813C86.8844 -1.81604 71.4583 -1.81604 58.8688 5.44813L20.214 27.5951C7.8019 34.8593 0 48.3247 0 62.6759V107.147C0 121.676 7.8019 134.964 20.214 142.228L58.6916 164.551C71.281 171.816 86.7079 171.816 99.2964 164.551L137.774 142.228C150.363 134.964 157.988 121.676 157.988 107.147V62.6759C158.343 48.3247 150.541 34.8593 137.951 27.5951ZM79.083 124.51C57.2731 124.51 39.5414 106.793 39.5414 85C39.5414 63.2074 57.2731 45.4898 79.083 45.4898C100.893 45.4898 118.802 63.2074 118.802 85C118.802 106.793 101.07 124.51 79.083 124.51Z" fill="currentColor"/>
</svg>
