<svg width="39" height="40" viewBox="0 0 39 40" fill="none" xmlns="http://www.w3.org/2000/svg">
<path
    fill-rule="evenodd"
    clip-rule="evenodd"
    d="M18.2222 0.0107703C18.5386 -0.0205056 21.0593 0.0224566 21.4252 0.0615515C22.9119 0.233553 24.2387 0.518303 25.4852 0.932644C32.5531 3.27046 37.7648 9.58092 38.8248 17.0908C38.9811 18.1894 39 18.5154 39 20.0049C39 21.4936 38.9811 21.8186 38.8248 22.917C38.2911 26.6931 36.7017 30.2351 34.2354 33.1396C33.0766 34.5078 31.6126 35.8225 30.2288 36.7451L30.0708 36.8505L26.9839 32.0537C25.2837 29.4149 21.8219 24.0393 19.2905 20.1025C16.7591 16.1657 14.6422 12.8956 14.585 12.833C14.3835 12.6072 14.2532 12.5752 13.4767 12.5752C12.8172 12.5752 12.7551 12.5829 12.5988 12.6611C12.5074 12.712 12.3779 12.8194 12.317 12.9014L12.1989 13.0537L12.1799 28.7334L12.2599 28.9092C12.3169 29.0222 12.4011 29.1201 12.515 29.1943L12.6921 29.3076H13.351C13.9263 29.3076 14.0327 29.2959 14.1546 29.2334C14.3148 29.1474 14.3907 29.0695 14.4898 28.8779C14.5584 28.745 14.5622 28.5175 14.5736 22.8857C14.5812 19.6825 14.5965 17.0555 14.6117 17.0361C14.6269 17.0361 16.3977 19.7033 18.5479 22.9639L22.4555 28.8935L25.5728 33.2138C27.2883 35.5908 28.7187 37.5576 28.7492 37.581C28.7943 37.62 28.7291 37.6675 28.395 37.8427C26.2067 38.9882 23.9871 39.653 21.3681 39.9502C20.7772 40.0166 18.2228 40.0166 17.6319 39.9502C16.1147 39.7781 14.7804 39.4934 13.5148 39.0751C6.4469 36.7373 1.23516 30.4269 0.175195 22.917C0.0189232 21.8186 8.01328e-06 21.4936 0 20.0049C0 18.5154 0.0188903 18.1894 0.175195 17.0908C0.617456 13.944 1.78852 10.9736 3.61816 8.3545C6.90437 3.64359 12.0926 0.57762 17.6319 0.0654577C17.8714 0.0459603 18.1376 0.0186689 18.2222 0.0107703ZM25.4167 12.0283C24.8191 12.0283 24.7612 12.0364 24.6054 12.1182C24.4226 12.2197 24.2875 12.3916 24.2265 12.6104C24.2036 12.7003 24.1884 14.5588 24.1884 17.8623V22.9717L26.6106 26.7705L26.6221 19.7412C26.6297 14.8432 26.6221 12.669 26.5916 12.5674C26.5381 12.3799 26.3879 12.2002 26.205 12.1065C26.0796 12.0365 25.9797 12.0283 25.4167 12.0283Z"
    fill="currentColor"
  />
</svg>
