<svg width="300" height="300" viewBox="0 0 300 300" fill="none" xmlns="http://www.w3.org/2000/svg">
<rect width="300" height="300" fill="#714B67"/>
<path d="M150 225C135.166 225 120.666 220.601 108.332 212.36C95.9986 204.119 86.3856 192.406 80.7091 178.701C75.0325 164.997 73.5472 149.917 76.4411 135.368C79.335 120.82 86.4781 107.456 96.967 96.967C107.456 86.4781 120.82 79.335 135.368 76.4411C149.917 73.5472 164.997 75.0325 178.701 80.7091C192.406 86.3856 204.119 95.9986 212.36 108.332C220.601 120.666 225 135.166 225 150C225 169.891 217.098 188.968 203.033 203.033C188.968 217.098 169.891 225 150 225ZM150 194C158.702 194 167.209 191.419 174.445 186.585C181.681 181.75 187.32 174.878 190.651 166.838C193.981 158.798 194.852 149.951 193.155 141.416C191.457 132.881 187.266 125.041 181.113 118.887C174.959 112.734 167.119 108.543 158.584 106.845C150.049 105.148 141.202 106.019 133.162 109.349C125.122 112.68 118.25 118.319 113.415 125.555C108.581 132.791 106 141.298 106 150C106 161.67 110.636 172.861 118.887 181.113C127.139 189.364 138.331 194 150 194Z" fill="white"/>
</svg>
