<svg width="300" height="300" viewBox="0 0 300 300" fill="none" xmlns="http://www.w3.org/2000/svg">
<rect width="300" height="300" fill="white"/>
<path d="M115.27 237.189L118.529 216.543L111.27 216.375H76.6105L100.697 64.0302C100.772 63.5703 101.015 63.1414 101.37 62.8369C101.725 62.5324 102.18 62.3646 102.654 62.3646H161.095C180.496 62.3646 193.886 66.3918 200.876 74.3406C204.153 78.0696 206.24 81.9663 207.25 86.2546C208.309 90.7541 208.328 96.13 207.293 102.687L207.219 103.165V107.367L210.496 109.219C213.256 110.679 215.449 112.351 217.131 114.265C219.935 117.453 221.748 121.505 222.514 126.309C223.306 131.25 223.044 137.13 221.748 143.786C220.253 151.442 217.835 158.111 214.571 163.568C211.568 168.595 207.742 172.766 203.2 175.997C198.864 179.068 193.711 181.398 187.886 182.89C182.241 184.356 175.805 185.096 168.746 185.096H164.198C160.945 185.096 157.787 186.264 155.307 188.359C152.821 190.497 151.176 193.418 150.671 196.612L150.329 198.47L144.572 234.858L144.31 236.195C144.242 236.617 144.123 236.829 143.949 236.972C143.793 237.102 143.569 237.189 143.351 237.189H115.27Z" fill="#253B80"/>
<path d="M213.599 103.65C213.424 104.762 213.225 105.9 213 107.068C205.293 146.539 178.926 160.174 145.251 160.174H128.105C123.986 160.174 120.516 163.157 119.874 167.209L111.096 222.745L108.61 238.488C108.192 241.148 110.248 243.547 112.94 243.547H143.351C146.952 243.547 150.011 240.936 150.578 237.394L150.877 235.853L156.603 199.607L156.97 197.619C157.531 194.064 160.596 191.454 164.198 191.454H168.746C198.209 191.454 221.274 179.521 228.016 144.991C230.832 130.566 229.374 118.522 221.922 110.051C219.667 107.497 216.869 105.378 213.599 103.65Z" fill="#179BD7"/>
<path d="M205.537 100.443C204.359 100.101 203.144 99.7904 201.898 99.5107C200.646 99.2373 199.363 98.9949 198.042 98.7836C193.419 98.0378 188.353 97.6836 182.927 97.6836H137.121C135.993 97.6836 134.921 97.9384 133.962 98.3983C131.85 99.4113 130.28 101.406 129.9 103.849L120.155 165.413L119.874 167.209C120.516 163.157 123.986 160.174 128.105 160.174H145.251C178.926 160.174 205.293 146.532 213 107.068C213.231 105.9 213.424 104.762 213.599 103.65C211.648 102.618 209.537 101.736 207.263 100.984C206.702 100.797 206.123 100.617 205.537 100.443Z" fill="#222D65"/>
<path d="M129.9 103.849C130.28 101.406 131.849 99.4109 133.961 98.4041C134.927 97.9442 135.992 97.6894 137.12 97.6894H182.926C188.353 97.6894 193.418 98.0436 198.041 98.7894C199.362 99.0007 200.645 99.2431 201.898 99.5166C203.144 99.7962 204.359 100.107 205.536 100.449C206.122 100.623 206.701 100.803 207.268 100.983C209.543 101.735 211.655 102.624 213.605 103.649C215.898 89.0631 213.586 79.1318 205.68 70.1388C196.963 60.2385 181.232 56 161.101 56H102.66C98.5477 56 95.04 58.9831 94.4045 63.0415L70.0622 216.953C69.5825 219.998 71.9376 222.745 75.0154 222.745L111.096 222.745L120.155 165.413L129.9 103.849Z" fill="#253B80"/>
</svg>
