<svg width="300" height="300" viewBox="0 0 300 300" fill="none" xmlns="http://www.w3.org/2000/svg">
<rect width="300" height="300" transform="translate(0.333984)" fill="#6772E5"/>
<path fill-rule="evenodd" clip-rule="evenodd" d="M136.499 111.852C136.499 103.803 143.196 100.689 154.017 100.689C171.925 101.076 189.499 105.624 205.347 113.972V65.3869C189.005 58.9639 171.575 55.7621 154.017 55.9577C112.308 55.9577 84.334 77.8065 84.334 114.29C84.334 171.37 162.711 162.1 162.711 186.704C162.711 196.327 154.487 199.312 142.914 199.312C125.849 199.312 103.808 192.25 86.5193 182.85V232.07C104.319 239.816 123.508 243.857 142.92 243.949C185.786 243.949 215.334 222.77 215.334 185.652C215.334 124.048 136.499 135.052 136.499 111.863V111.852Z" fill="white"/>
</svg>
