<svg width="38" height="38" viewBox="0 0 38 38" fill="none" xmlns="http://www.w3.org/2000/svg">
<path fill-rule="evenodd" clip-rule="evenodd" d="M19 0C29.4934 0 38 8.50697 38 19C37.9996 29.4927 29.4932 38 19 38C8.50682 38 0.000371839 29.4927 0 19C0 8.50697 8.50659 0 19 0ZM28.1121 9.17251C27.3198 9.19012 26.0874 9.61407 20.2243 12.0621C18.1643 12.9251 14.0613 14.7047 7.89878 17.3818C6.91421 17.7864 6.38709 18.1727 6.33333 18.5597C6.24532 19.2992 7.29962 19.5297 8.61961 19.9522C9.71095 20.3043 11.1556 20.7105 11.9128 20.7283C12.5995 20.7459 13.3567 20.4619 14.2019 19.8806C19.9498 15.9948 22.9079 14.0218 23.1103 13.9803C23.2508 13.9452 23.4273 13.9115 23.5505 14.0161C23.6738 14.1218 23.6754 14.3348 23.6578 14.3876C23.5458 14.833 18.1506 19.7564 17.8307 20.076C16.6335 21.3088 15.2766 22.0654 17.3713 23.439C19.1846 24.6365 20.2237 25.3943 22.0896 26.6094C23.2691 27.3842 24.2029 28.2998 25.4351 28.1945C25.9985 28.1417 26.5802 27.6135 26.8795 26.0287C27.5838 22.295 28.9561 14.1758 29.2731 10.8292C29.3083 10.5474 29.2753 10.177 29.2401 10.0009C29.2049 9.82489 29.1511 9.59623 28.9402 9.42019C28.6761 9.20886 28.2882 9.17251 28.1121 9.17251Z" fill="#5EB5F7"/>
</svg>
