<svg width="300" height="300" viewBox="0 0 300 300" fill="none" xmlns="http://www.w3.org/2000/svg">
<rect width="300" height="300" fill="url(#paint0_linear_74_12)"/>
<path fill-rule="evenodd" clip-rule="evenodd" d="M69.7496 146.068C111.885 127.78 139.936 115.628 154.021 109.732C194.11 93.0079 202.537 90.1203 207.955 90C209.159 90 211.807 90.2406 213.613 91.6844C215.058 92.8876 215.419 94.4518 215.66 95.6549C215.9 96.8581 216.141 99.3848 215.9 101.31C213.733 124.17 204.343 179.636 199.528 205.144C197.481 215.972 193.508 219.582 189.656 219.943C181.229 220.665 174.848 214.408 166.782 209.114C154.021 200.812 146.918 195.639 134.518 187.457C120.192 178.072 129.462 172.899 137.648 164.477C139.815 162.311 176.774 128.622 177.497 125.614C177.617 125.253 177.617 123.809 176.774 123.087C175.932 122.365 174.728 122.606 173.765 122.847C172.44 123.087 152.215 136.563 112.848 163.153C107.07 167.123 101.893 169.049 97.198 168.928C92.0213 168.808 82.1495 166.041 74.6855 163.634C65.6564 160.747 58.4331 159.183 59.0351 154.129C59.3962 151.482 63.0079 148.835 69.7496 146.068Z" fill="white"/>
<defs>
<linearGradient id="paint0_linear_74_12" x1="150" y1="0" x2="150" y2="300" gradientUnits="userSpaceOnUse">
<stop stop-color="#2AABEE"/>
<stop offset="1" stop-color="#229ED9"/>
</linearGradient>
</defs>
</svg>
