<svg width="15" height="13" viewBox="0 0 15 13" fill="none" xmlns="http://www.w3.org/2000/svg">
<path d="M13.7212 0.605939C13.7212 0.605939 15.1088 0.0865112 14.9932 1.34798C14.9546 1.86742 14.6077 3.68541 14.3379 5.65184L13.4128 11.4769C13.4128 11.4769 13.3358 12.3302 12.6419 12.4786C11.9481 12.627 10.9074 11.9592 10.7147 11.8108C10.5605 11.6995 7.82386 10.0299 6.86022 9.21364C6.5904 8.99102 6.28204 8.54579 6.89875 8.02636L10.946 4.31617C11.4085 3.87094 11.871 2.83208 9.94379 4.09355L4.54754 7.61826C4.54754 7.61826 3.93082 7.98926 2.7745 7.65536L0.269079 6.91331C0.269079 6.91331 -0.655997 6.35678 0.92434 5.80022C4.77882 4.05642 9.51983 2.27552 13.7212 0.605939Z" fill="white"/>
</svg>
