<svg width="15" height="15" viewBox="0 0 15 15" fill="none" xmlns="http://www.w3.org/2000/svg">
<path d="M10.0902 5C10.2532 5 10.4132 5.037 10.5532 5.108C10.6932 5.178 10.8092 5.28 10.8882 5.401C10.9642 5.51919 11.0029 5.65752 10.9992 5.798C10.9927 5.93926 10.9435 6.07523 10.8582 6.188L8.26818 9.642C8.18058 9.75458 8.06747 9.84472 7.93818 9.905C7.80096 9.96872 7.65148 10.0017 7.50018 10.0017C7.34888 10.0017 7.19941 9.96872 7.06218 9.905C6.93289 9.84472 6.81978 9.75458 6.73218 9.642L4.14218 6.187C4.05651 6.07434 4.007 5.93837 4.00018 5.797C3.99699 5.65676 4.03601 5.5188 4.11218 5.401C4.19584 5.27531 4.31147 5.17418 4.44718 5.108C4.58718 5.038 4.74718 5 4.91018 5H10.0902Z" fill="url(#paint0_linear_668_118)"/>
<defs>
<linearGradient id="paint0_linear_668_118" x1="13.6124" y1="7.00069" x2="-24.442" y2="12.0656" gradientUnits="userSpaceOnUse">
<stop offset="0.0177956" stop-color="#27110A"/>
<stop offset="0.387433" stop-color="#DEBA92"/>
<stop offset="0.671656" stop-color="#9F724E"/>
</linearGradient>
</defs>
</svg>
