<svg width="300" height="300" viewBox="0 0 300 300" fill="none" xmlns="http://www.w3.org/2000/svg">
<rect width="300" height="300" transform="translate(0.333984)" fill="#0070F0"/>
<path fill-rule="evenodd" clip-rule="evenodd" d="M107.656 149.809C107.76 111.352 139.252 80 178.826 80C218.014 80 250.446 111.456 249.995 150C249.995 188.544 218.014 220 178.826 220C139.702 220 107.761 189.089 107.656 150.192V202.278H82.4318L50 100.38H107.656V149.809ZM152.25 150C152.25 164.177 164.412 176.139 178.826 176.139C193.69 176.139 205.402 164.177 205.402 150C205.402 135.823 193.24 123.861 178.826 123.861C164.412 123.861 152.25 135.823 152.25 150Z" fill="white"/>
</svg>
