<svg width="274" height="274" viewBox="0 0 274 274" fill="none" xmlns="http://www.w3.org/2000/svg">
<g filter="url(#filter0_dddii_448_247)">
<rect x="32" y="16" width="210" height="210" rx="12" fill="#FAFAFA" shape-rendering="crispEdges"/>
<path d="M137.146 56H137.259L137.377 56.0095L137.49 56.0189L137.608 56.0378L137.721 56.0567L137.833 56.0851L137.946 56.1133L138.059 56.1464L138.168 56.1841L138.276 56.2265L138.384 56.2782L138.492 56.3299L138.596 56.3817L138.699 56.4428L138.803 56.5088L138.901 56.5795L138.996 56.6547L139.09 56.7348L139.184 56.8149L139.311 56.9374L139.4 57.0267L139.485 57.1163L139.565 57.2058L139.64 57.3L139.711 57.3988H139.715L167.144 86.6191L167.228 86.7084L167.308 86.8026L167.379 86.9016L167.449 87.0005L167.515 87.0993L167.576 87.203L167.633 87.3114L167.684 87.415L167.731 87.5235L167.774 87.6317L167.812 87.7448L167.845 87.8579L167.877 87.9663L167.901 88.084L167.92 88.1971L167.939 88.3102L167.948 88.428L167.958 88.5411L167.962 88.6588L167.958 88.7719V88.8472L167.967 88.9037L167.981 89.0262L167.991 89.1487L168 89.2713V89.3936L167.995 89.521L167.986 89.6481L167.972 89.7706L167.953 89.898L159.47 138.846L159.447 138.969L159.418 139.096L159.385 139.214L159.348 139.331L167.143 147.636L167.228 147.726L167.308 147.82L167.378 147.919L167.449 148.018L167.515 148.117L167.576 148.22L167.632 148.329L167.684 148.433L167.731 148.541L167.773 148.649L167.811 148.762L167.844 148.875L167.877 148.988L167.901 149.102L167.919 149.215L167.938 149.328L167.948 149.445L167.957 149.558L167.962 149.676L167.957 149.789L167.952 149.907L167.943 150.02L167.929 150.138L167.91 150.251L167.887 150.364L167.858 150.477L167.825 150.59L167.788 150.699L167.773 150.741L162.029 183.899L162.005 184.012L161.977 184.126L161.949 184.234L161.911 184.342L161.869 184.446L161.826 184.549L161.775 184.648L161.723 184.743L161.667 184.837L161.606 184.926L161.54 185.016L161.469 185.1L161.399 185.18L161.324 185.261L161.244 185.331L161.164 185.406L161.079 185.472L160.994 185.538L160.905 185.595L160.811 185.651L160.717 185.703L160.623 185.755L160.524 185.797L160.421 185.839L160.322 185.873L160.213 185.906L160.11 185.934L160.002 185.958L159.893 185.972L159.785 185.986L159.672 185.995L159.559 186L159.447 185.995L159.334 185.991L159.221 185.976L159.108 185.962L159.004 185.943L158.915 185.958L158.797 185.976L158.68 185.986L158.562 185.995L158.44 186L158.322 185.995L158.204 185.991L158.087 185.981L157.969 185.967L157.851 185.943L157.734 185.92L157.616 185.891L157.503 185.858L157.39 185.821L157.277 185.778L157.164 185.731L157.056 185.684L156.948 185.627L156.84 185.566L156.736 185.5L156.633 185.434L156.534 185.359L156.44 185.284L156.341 185.199L156.252 185.114L156.162 185.02L137.033 164.646L117.904 185.02L117.814 185.114L117.725 185.199L117.631 185.284L117.532 185.359L117.433 185.434L117.33 185.5L117.226 185.566L117.118 185.627L117.01 185.684L116.902 185.731L116.789 185.778L116.68 185.821L116.563 185.858L116.45 185.891L116.332 185.92L116.215 185.943L116.097 185.967L115.979 185.981L115.862 185.991L115.744 185.995L115.626 186L115.504 185.995L115.386 185.986L115.269 185.976L115.151 185.958L115.113 185.953L115.062 185.962L114.944 185.976L114.831 185.991L114.718 185.995L114.605 186L114.492 185.995L114.384 185.986L114.271 185.972L114.163 185.958L114.055 185.934L113.951 185.906L113.848 185.873L113.744 185.839L113.641 185.797L113.547 185.755L113.448 185.703L113.354 185.651L113.26 185.595L113.171 185.538L113.086 185.472L113.001 185.406L112.921 185.331L112.841 185.261L112.766 185.18L112.695 185.1L112.63 185.016L112.564 184.926L112.503 184.837L112.446 184.743L112.39 184.648L112.343 184.549L112.296 184.446L112.253 184.342L112.22 184.234L112.187 184.126L112.159 184.012L112.136 183.899L106.297 150.185L106.278 150.072L106.264 149.959L106.259 149.846V149.733V149.714V149.676V149.559L106.269 149.446L106.278 149.328L106.297 149.215L106.316 149.102L106.344 148.989L106.372 148.876L106.405 148.762L106.443 148.649L106.486 148.541L106.537 148.433L106.589 148.329L106.641 148.221L106.702 148.117L106.768 148.018L106.838 147.919L106.913 147.82L106.993 147.726L107.073 147.637L114.718 139.497L114.699 139.45L114.652 139.336L114.615 139.214L114.582 139.096L114.553 138.969L114.53 138.846L106.047 89.8982L106.028 89.7708L106.014 89.6483L106.005 89.5211L106 89.3938V89.2714L106.009 89.1489L106.019 89.0264L106.033 88.9039L106.057 88.786L106.08 88.6683L106.108 88.5504L106.141 88.4327L106.184 88.3196L106.226 88.2112L106.273 88.0981L106.32 87.9898L106.349 87.9381L106.372 87.858L106.405 87.745L106.443 87.6319L106.485 87.5236L106.537 87.4152L106.589 87.3116L106.64 87.2031L106.701 87.0995L106.767 87.0007L106.838 86.9017L106.913 86.8028L106.993 86.7086L107.073 86.6192L134.506 57.399L134.577 57.3002L134.652 57.206L134.732 57.1165L134.816 57.0269L134.906 56.9376L135.033 56.815L135.127 56.735L135.221 56.6549L135.32 56.5796L135.419 56.509L135.517 56.443L135.621 56.3818L135.724 56.3301L135.833 56.2784L135.941 56.2267L136.049 56.1842L136.162 56.1466L136.27 56.1134L136.383 56.0853L136.501 56.0569L136.614 56.038L136.727 56.0191L136.844 56.0096L136.957 56.0002H137.075H137.108H137.146L137.146 56ZM156.967 176.823L161.498 150.679L155.824 144.635L141.287 160.119L156.967 176.823ZM117.184 176.734L132.785 160.119L118.318 144.716L112.677 150.726L117.184 176.734ZM137.034 155.592L151.576 140.104L137.109 124.7L122.571 140.184L137.034 155.592ZM119.96 133.91L134.507 118.421V118.416L134.578 118.317L134.653 118.223L134.733 118.134L134.818 118.044L134.907 117.955L135.034 117.832L135.128 117.752L135.222 117.672L135.321 117.597L135.42 117.526L135.519 117.465L135.622 117.404L135.726 117.347L135.834 117.296L135.942 117.248L136.05 117.201L136.163 117.163L136.271 117.13L136.384 117.102L136.502 117.074L136.615 117.055L136.728 117.041L136.846 117.027L136.959 117.017H137.076H137.109H137.147H137.26L137.377 117.027L137.49 117.041L137.608 117.055L137.721 117.074L137.834 117.102L137.947 117.13L138.06 117.163L138.168 117.201L138.276 117.248L138.384 117.296L138.493 117.347L138.596 117.404L138.699 117.465L138.803 117.526L138.902 117.597L138.996 117.672L139.09 117.752L139.184 117.832L139.311 117.955L139.401 118.044L139.485 118.134L139.565 118.223L139.64 118.317L139.711 118.416L139.715 118.421L154.074 133.712L161.677 89.8461L137.109 63.6832L112.362 90.044L119.96 133.91ZM138.295 82.7236L138.911 82.7896L139.523 82.8837L140.12 83.0016L140.713 83.1382L141.291 83.303L141.865 83.4914L142.425 83.7034L142.976 83.9342L143.512 84.1887L144.039 84.4666L144.547 84.7634L145.05 85.079L145.535 85.4134L146.005 85.7669L146.457 86.1389L146.899 86.5299L147.323 86.9397L147.732 87.3637L148.123 87.8019L148.494 88.2588L148.847 88.7298L149.181 89.2149L149.496 89.7143L149.793 90.2277L150.07 90.7553L150.324 91.2923L150.555 91.8436L150.767 92.4041L150.955 92.9787L151.115 93.5582L151.256 94.1516L151.374 94.7499L151.468 95.3622L151.534 95.9793L151.571 96.6012L151.585 97.2323L151.571 97.8637L151.534 98.4902L151.468 99.1073L151.374 99.7149L151.256 100.313L151.115 100.907L150.955 101.491L150.767 102.061L150.555 102.621L150.324 103.172L150.07 103.709L149.793 104.237L149.496 104.751L149.181 105.25L148.847 105.735L148.494 106.206L148.123 106.663L147.732 107.101L147.323 107.525L146.899 107.935L146.457 108.326L146.005 108.698L145.535 109.051L145.05 109.386L144.547 109.701L144.039 109.998L143.512 110.276L142.976 110.53L142.425 110.761L141.865 110.973L141.291 111.162L140.713 111.326L140.12 111.468L139.523 111.581L138.911 111.675L138.295 111.741L137.674 111.779L137.043 111.793L136.413 111.779L135.787 111.741L135.171 111.675L134.564 111.581L133.962 111.468L133.374 111.326L132.79 111.162L132.221 110.973L131.661 110.761L131.111 110.53L130.574 110.276L130.047 109.998L129.535 109.701L129.036 109.386L128.551 109.051L128.081 108.698L127.624 108.326L127.187 107.935L126.763 107.525L126.354 107.101L125.964 106.663L125.592 106.206L125.239 105.735L124.905 105.25L124.585 104.751L124.293 104.237L124.016 103.709L123.762 103.172L123.531 102.621L123.319 102.061L123.131 101.491L122.967 100.907L122.826 100.313L122.713 99.7149L122.619 99.1073L122.553 98.4902L122.515 97.8637L122.501 97.2323L122.515 96.6012L122.553 95.9793L122.619 95.3622L122.713 94.7499L122.826 94.1516L122.967 93.5582L123.131 92.9787L123.319 92.4041L123.531 91.8436L123.762 91.2923L124.016 90.7553L124.293 90.2277L124.585 89.7143L124.905 89.2149L125.239 88.7298L125.592 88.2588L125.964 87.8019L126.354 87.3637L126.763 86.9397L127.187 86.5299L127.624 86.1389L128.081 85.7669L128.551 85.4134L129.036 85.079L129.535 84.7634L130.047 84.4666L130.574 84.1887L131.111 83.9342L131.661 83.7034L132.221 83.4914L132.79 83.303L133.374 83.1382L133.962 83.0016L134.564 82.8837L135.171 82.7896L135.787 82.7236L136.413 82.686L137.043 82.6717L137.674 82.686L138.295 82.7236ZM135.815 89.0028L135.223 89.1113L134.644 89.2666L134.084 89.455L133.538 89.6859L133.021 89.9543L132.517 90.2511L132.042 90.5855L131.59 90.9529L131.167 91.3487L130.772 91.7772L130.405 92.2249L130.071 92.7053L129.77 93.2045L129.506 93.7275L129.276 94.2693L129.083 94.8298L128.932 95.4093L128.824 96.0028L128.754 96.6104L128.73 97.2322L128.754 97.8541L128.824 98.4617L128.932 99.0552L129.083 99.6345L129.276 100.195L129.506 100.737L129.77 101.26L130.071 101.764L130.405 102.239L130.772 102.692L131.167 103.116L131.59 103.511L132.042 103.879L132.517 104.213L133.021 104.515L133.538 104.778L134.084 105.009L134.644 105.203L135.223 105.353L135.815 105.462L136.422 105.532L137.043 105.551L137.664 105.532L138.271 105.462L138.864 105.353L139.442 105.203L140.002 105.009L140.543 104.778L141.066 104.515L141.564 104.213L142.044 103.879L142.491 103.511L142.919 103.116L143.314 102.692L143.677 102.239L144.011 101.764L144.312 101.26L144.58 100.737L144.811 100.195L144.999 99.6345L145.154 99.0552L145.262 98.4617L145.328 97.8541L145.351 97.2322L145.328 96.6104L145.262 96.0028L145.154 95.4093L144.999 94.8298L144.811 94.2693L144.58 93.7275L144.312 93.2045L144.011 92.7053L143.677 92.2249L143.314 91.7772L142.919 91.3487L142.491 90.9529L142.044 90.5855L141.564 90.2511L141.066 89.9543L140.543 89.6859L140.002 89.455L139.442 89.2666L138.864 89.1113L138.271 89.0028L137.664 88.937L137.043 88.9135L136.422 88.937L135.815 89.0028Z" fill="#0086D8"/>
</g>
<defs>
<filter id="filter0_dddii_448_247" x="0" y="0" width="274" height="274" filterUnits="userSpaceOnUse" color-interpolation-filters="sRGB">
<feFlood flood-opacity="0" result="BackgroundImageFix"/>
<feColorMatrix in="SourceAlpha" type="matrix" values="0 0 0 0 0 0 0 0 0 0 0 0 0 0 0 0 0 0 127 0" result="hardAlpha"/>
<feOffset dy="16"/>
<feGaussianBlur stdDeviation="16"/>
<feComposite in2="hardAlpha" operator="out"/>
<feColorMatrix type="matrix" values="0 0 0 0 0 0 0 0 0 0 0 0 0 0 0 0 0 0 0.08 0"/>
<feBlend mode="normal" in2="BackgroundImageFix" result="effect1_dropShadow_448_247"/>
<feColorMatrix in="SourceAlpha" type="matrix" values="0 0 0 0 0 0 0 0 0 0 0 0 0 0 0 0 0 0 127 0" result="hardAlpha"/>
<feOffset dy="8"/>
<feGaussianBlur stdDeviation="8"/>
<feComposite in2="hardAlpha" operator="out"/>
<feColorMatrix type="matrix" values="0 0 0 0 0 0 0 0 0 0 0 0 0 0 0 0 0 0 0.08 0"/>
<feBlend mode="normal" in2="effect1_dropShadow_448_247" result="effect2_dropShadow_448_247"/>
<feColorMatrix in="SourceAlpha" type="matrix" values="0 0 0 0 0 0 0 0 0 0 0 0 0 0 0 0 0 0 127 0" result="hardAlpha"/>
<feMorphology radius="1" operator="dilate" in="SourceAlpha" result="effect3_dropShadow_448_247"/>
<feOffset/>
<feComposite in2="hardAlpha" operator="out"/>
<feColorMatrix type="matrix" values="0 0 0 0 0 0 0 0 0 0 0 0 0 0 0 0 0 0 0.08 0"/>
<feBlend mode="normal" in2="effect2_dropShadow_448_247" result="effect3_dropShadow_448_247"/>
<feBlend mode="normal" in="SourceGraphic" in2="effect3_dropShadow_448_247" result="shape"/>
<feColorMatrix in="SourceAlpha" type="matrix" values="0 0 0 0 0 0 0 0 0 0 0 0 0 0 0 0 0 0 127 0" result="hardAlpha"/>
<feMorphology radius="1.5" operator="erode" in="SourceAlpha" result="effect4_innerShadow_448_247"/>
<feOffset/>
<feComposite in2="hardAlpha" operator="arithmetic" k2="-1" k3="1"/>
<feColorMatrix type="matrix" values="0 0 0 0 0.894118 0 0 0 0 0.894118 0 0 0 0 0.905882 0 0 0 0.6 0"/>
<feBlend mode="normal" in2="shape" result="effect4_innerShadow_448_247"/>
<feColorMatrix in="SourceAlpha" type="matrix" values="0 0 0 0 0 0 0 0 0 0 0 0 0 0 0 0 0 0 127 0" result="hardAlpha"/>
<feMorphology radius="1" operator="erode" in="SourceAlpha" result="effect5_innerShadow_448_247"/>
<feOffset/>
<feComposite in2="hardAlpha" operator="arithmetic" k2="-1" k3="1"/>
<feColorMatrix type="matrix" values="0 0 0 0 1 0 0 0 0 1 0 0 0 0 1 0 0 0 1 0"/>
<feBlend mode="normal" in2="effect4_innerShadow_448_247" result="effect5_innerShadow_448_247"/>
</filter>
</defs>
</svg>
