<svg width="573" height="218" viewBox="0 0 573 218" fill="none" xmlns="http://www.w3.org/2000/svg">
<g filter="url(#filter0_ddd_511_557)">
<rect x="4" y="2" width="210" height="210" rx="12" fill="#FAFAFA"/>
<path d="M109.146 42H109.259L109.377 42.0095L109.49 42.0189L109.608 42.0378L109.721 42.0567L109.833 42.0851L109.946 42.1133L110.059 42.1464L110.168 42.1841L110.276 42.2265L110.384 42.2782L110.492 42.3299L110.596 42.3817L110.699 42.4428L110.803 42.5088L110.901 42.5795L110.996 42.6547L111.09 42.7348L111.184 42.8149L111.311 42.9374L111.4 43.0267L111.485 43.1163L111.565 43.2058L111.64 43.3L111.711 43.3988H111.715L139.144 72.6191L139.228 72.7084L139.308 72.8026L139.379 72.9016L139.449 73.0005L139.515 73.0993L139.576 73.203L139.633 73.3114L139.684 73.415L139.731 73.5235L139.774 73.6317L139.812 73.7448L139.845 73.8579L139.877 73.9663L139.901 74.084L139.92 74.1971L139.939 74.3102L139.948 74.428L139.958 74.5411L139.962 74.6588L139.958 74.7719V74.8472L139.967 74.9037L139.981 75.0262L139.991 75.1487L140 75.2713V75.3936L139.995 75.521L139.986 75.6481L139.972 75.7706L139.953 75.898L131.47 124.846L131.447 124.969L131.418 125.096L131.385 125.214L131.348 125.331L139.143 133.636L139.228 133.726L139.308 133.82L139.378 133.919L139.449 134.018L139.515 134.117L139.576 134.22L139.632 134.329L139.684 134.433L139.731 134.541L139.773 134.649L139.811 134.762L139.844 134.875L139.877 134.988L139.901 135.102L139.919 135.215L139.938 135.328L139.948 135.445L139.957 135.558L139.962 135.676L139.957 135.789L139.952 135.907L139.943 136.02L139.929 136.138L139.91 136.251L139.887 136.364L139.858 136.477L139.825 136.59L139.788 136.699L139.773 136.741L134.029 169.899L134.005 170.012L133.977 170.126L133.949 170.234L133.911 170.342L133.869 170.446L133.826 170.549L133.775 170.648L133.723 170.743L133.667 170.837L133.606 170.926L133.54 171.016L133.469 171.1L133.399 171.18L133.324 171.261L133.244 171.331L133.164 171.406L133.079 171.472L132.994 171.538L132.905 171.595L132.811 171.651L132.717 171.703L132.623 171.755L132.524 171.797L132.421 171.839L132.322 171.873L132.213 171.906L132.11 171.934L132.002 171.958L131.893 171.972L131.785 171.986L131.672 171.995L131.559 172L131.447 171.995L131.334 171.991L131.221 171.976L131.108 171.962L131.004 171.943L130.915 171.958L130.797 171.976L130.68 171.986L130.562 171.995L130.44 172L130.322 171.995L130.204 171.991L130.087 171.981L129.969 171.967L129.851 171.943L129.734 171.92L129.616 171.891L129.503 171.858L129.39 171.821L129.277 171.778L129.164 171.731L129.056 171.684L128.948 171.627L128.84 171.566L128.736 171.5L128.633 171.434L128.534 171.359L128.44 171.284L128.341 171.199L128.252 171.114L128.162 171.02L109.033 150.646L89.9038 171.02L89.8144 171.114L89.725 171.199L89.6309 171.284L89.532 171.359L89.4334 171.434L89.3299 171.5L89.2264 171.566L89.1181 171.627L89.01 171.684L88.9017 171.731L88.7887 171.778L88.6804 171.821L88.5629 171.858L88.4499 171.891L88.3324 171.92L88.2146 171.943L88.0971 171.967L87.9793 171.981L87.8618 171.991L87.744 171.995L87.6265 172L87.5041 171.995L87.3864 171.986L87.2688 171.976L87.1511 171.958L87.1135 171.953L87.0618 171.962L86.9441 171.976L86.8312 171.991L86.7182 171.995L86.6053 172L86.4924 171.995L86.3843 171.986L86.2713 171.972L86.163 171.958L86.0549 171.934L85.9514 171.906L85.8479 171.873L85.7443 171.839L85.6408 171.797L85.5467 171.755L85.448 171.703L85.3538 171.651L85.2598 171.595L85.1705 171.538L85.0857 171.472L85.0011 171.406L84.9211 171.331L84.8412 171.261L84.766 171.18L84.6955 171.1L84.6297 171.016L84.5638 170.926L84.5027 170.837L84.4465 170.743L84.39 170.648L84.343 170.549L84.2958 170.446L84.2534 170.342L84.2204 170.234L84.1875 170.126L84.1591 170.012L84.1356 169.899L78.2971 136.185L78.2782 136.072L78.2642 135.959L78.2593 135.846V135.733V135.714V135.676V135.559L78.2688 135.446L78.2782 135.328L78.2971 135.215L78.316 135.102L78.3441 134.989L78.3725 134.876L78.4054 134.762L78.4432 134.649L78.4856 134.541L78.5372 134.433L78.5889 134.329L78.6405 134.221L78.7016 134.117L78.7675 134.018L78.8381 133.919L78.9132 133.82L78.9932 133.726L79.0732 133.637L86.7182 125.497L86.6994 125.45L86.6523 125.336L86.6146 125.214L86.5816 125.096L86.5533 124.969L86.5298 124.846L78.0472 75.8982L78.0283 75.7708L78.0141 75.6483L78.0046 75.5211L78 75.3938V75.2714L78.0094 75.1489L78.0189 75.0264L78.033 74.9039L78.0566 74.786L78.0802 74.6683L78.1085 74.5504L78.1414 74.4327L78.1838 74.3196L78.2262 74.2112L78.2734 74.0981L78.3204 73.9898L78.3488 73.9381L78.3723 73.858L78.4052 73.745L78.443 73.6319L78.4854 73.5236L78.537 73.4152L78.5887 73.3116L78.6404 73.2031L78.7014 73.0995L78.7674 73.0007L78.8379 72.9017L78.9131 72.8028L78.993 72.7086L79.073 72.6192L106.506 43.399L106.577 43.3002L106.652 43.206L106.732 43.1165L106.816 43.0269L106.906 42.9376L107.033 42.815L107.127 42.735L107.221 42.6549L107.32 42.5796L107.419 42.509L107.517 42.443L107.621 42.3818L107.724 42.3301L107.833 42.2784L107.941 42.2267L108.049 42.1842L108.162 42.1466L108.27 42.1134L108.383 42.0853L108.501 42.0569L108.614 42.038L108.727 42.0191L108.844 42.0096L108.957 42.0002H109.075H109.108H109.146L109.146 42ZM128.967 162.823L133.498 136.679L127.824 130.635L113.287 146.119L128.967 162.823ZM89.1843 162.734L104.785 146.119L90.3183 130.716L84.6773 136.726L89.1843 162.734ZM109.034 141.592L123.576 126.104L109.109 110.7L94.5713 126.184L109.034 141.592ZM91.9604 119.91L106.507 104.421V104.416L106.578 104.317L106.653 104.223L106.733 104.134L106.818 104.044L106.907 103.955L107.034 103.832L107.128 103.752L107.222 103.672L107.321 103.597L107.42 103.526L107.519 103.465L107.622 103.404L107.726 103.347L107.834 103.296L107.942 103.248L108.05 103.201L108.163 103.163L108.271 103.13L108.384 103.102L108.502 103.074L108.615 103.055L108.728 103.041L108.846 103.027L108.959 103.017H109.076H109.109H109.147H109.26L109.377 103.027L109.49 103.041L109.608 103.055L109.721 103.074L109.834 103.102L109.947 103.13L110.06 103.163L110.168 103.201L110.276 103.248L110.384 103.296L110.493 103.347L110.596 103.404L110.699 103.465L110.803 103.526L110.902 103.597L110.996 103.672L111.09 103.752L111.184 103.832L111.311 103.955L111.401 104.044L111.485 104.134L111.565 104.223L111.64 104.317L111.711 104.416L111.715 104.421L126.074 119.712L133.677 75.8461L109.109 49.6832L84.3624 76.044L91.9604 119.91ZM110.295 68.7236L110.911 68.7896L111.523 68.8837L112.12 69.0016L112.713 69.1382L113.291 69.303L113.865 69.4914L114.425 69.7034L114.976 69.9342L115.512 70.1887L116.039 70.4666L116.547 70.7634L117.05 71.079L117.535 71.4134L118.005 71.7669L118.457 72.1389L118.899 72.5299L119.323 72.9397L119.732 73.3637L120.123 73.8019L120.494 74.2588L120.847 74.7298L121.181 75.2149L121.496 75.7143L121.793 76.2277L122.07 76.7553L122.324 77.2923L122.555 77.8436L122.767 78.4041L122.955 78.9787L123.115 79.5582L123.256 80.1516L123.374 80.7499L123.468 81.3622L123.534 81.9793L123.571 82.6012L123.585 83.2323L123.571 83.8637L123.534 84.4902L123.468 85.1073L123.374 85.7149L123.256 86.3131L123.115 86.9067L122.955 87.4906L122.767 88.0606L122.555 88.6211L122.324 89.1724L122.07 89.7094L121.793 90.2371L121.496 90.7506L121.181 91.2498L120.847 91.7349L120.494 92.2059L120.123 92.663L119.732 93.101L119.323 93.5251L118.899 93.9348L118.457 94.3259L118.005 94.6979L117.535 95.0513L117.05 95.3858L116.547 95.7013L116.039 95.9981L115.512 96.276L114.976 96.5305L114.425 96.7612L113.865 96.9733L113.291 97.1616L112.713 97.3264L112.12 97.4679L111.523 97.5809L110.911 97.6751L110.295 97.7411L109.674 97.7787L109.043 97.793L108.413 97.7787L107.787 97.7411L107.171 97.6751L106.564 97.5809L105.962 97.4679L105.374 97.3264L104.79 97.1616L104.221 96.9733L103.661 96.7612L103.111 96.5305L102.574 96.276L102.047 95.9981L101.535 95.7013L101.036 95.3858L100.551 95.0513L100.081 94.6979L99.6245 94.3259L99.1868 93.9348L98.7634 93.5251L98.3541 93.101L97.9637 92.663L97.5921 92.2059L97.2391 91.7349L96.9051 91.2498L96.585 90.7506L96.2934 90.2371L96.0159 89.7094L95.7617 89.1724L95.5312 88.6211L95.3194 88.0606L95.1313 87.4906L94.9668 86.9067L94.8255 86.3131L94.7126 85.7149L94.6185 85.1073L94.5526 84.4902L94.515 83.8637L94.5008 83.2323L94.515 82.6012L94.5526 81.9793L94.6185 81.3622L94.7126 80.7499L94.8255 80.1516L94.9668 79.5582L95.1313 78.9787L95.3194 78.4041L95.5312 77.8436L95.7617 77.2923L96.0159 76.7553L96.2934 76.2277L96.585 75.7143L96.9051 75.2149L97.2391 74.7298L97.5921 74.2588L97.9637 73.8019L98.3541 73.3637L98.7634 72.9397L99.1868 72.5299L99.6245 72.1389L100.081 71.7669L100.551 71.4134L101.036 71.079L101.535 70.7634L102.047 70.4666L102.574 70.1887L103.111 69.9342L103.661 69.7034L104.221 69.4914L104.79 69.303L105.374 69.1382L105.962 69.0016L106.564 68.8837L107.171 68.7896L107.787 68.7236L108.413 68.686L109.043 68.6717L109.674 68.686L110.295 68.7236ZM107.815 75.0028L107.223 75.1113L106.644 75.2666L106.084 75.455L105.538 75.6859L105.021 75.9543L104.517 76.2511L104.042 76.5855L103.59 76.9529L103.167 77.3487L102.772 77.7772L102.405 78.2249L102.071 78.7053L101.77 79.2045L101.506 79.7275L101.276 80.2693L101.083 80.8298L100.932 81.4093L100.824 82.0028L100.754 82.6104L100.73 83.2322L100.754 83.8541L100.824 84.4617L100.932 85.0552L101.083 85.6345L101.276 86.195L101.506 86.7369L101.77 87.2598L102.071 87.7638L102.405 88.2394L102.772 88.6917L103.167 89.1158L103.59 89.5114L104.042 89.8788L104.517 90.2132L105.021 90.5148L105.538 90.7784L106.084 91.0094L106.644 91.2025L107.223 91.3532L107.815 91.4617L108.422 91.5323L109.043 91.5512L109.664 91.5323L110.271 91.4617L110.864 91.3532L111.442 91.2025L112.002 91.0094L112.543 90.7784L113.066 90.5148L113.564 90.2132L114.044 89.8788L114.491 89.5114L114.919 89.1158L115.314 88.6917L115.677 88.2394L116.011 87.7638L116.312 87.2598L116.58 86.7369L116.811 86.195L116.999 85.6345L117.154 85.0552L117.262 84.4617L117.328 83.8541L117.351 83.2322L117.328 82.6104L117.262 82.0028L117.154 81.4093L116.999 80.8298L116.811 80.2693L116.58 79.7275L116.312 79.2045L116.011 78.7053L115.677 78.2249L115.314 77.7772L114.919 77.3487L114.491 76.9529L114.044 76.5855L113.564 76.2511L113.066 75.9543L112.543 75.6859L112.002 75.455L111.442 75.2666L110.864 75.1113L110.271 75.0028L109.664 74.937L109.043 74.9135L108.422 74.937L107.815 75.0028Z" fill="#0086D8"/>
</g>
<path opacity="0.7" d="M292.582 100.439C293.135 99.8536 294.032 99.8536 294.585 100.439C295.138 101.025 295.138 101.975 294.585 102.56L288.503 109L294.585 115.44C295.138 116.025 295.138 116.975 294.585 117.561C294.032 118.146 293.135 118.146 292.582 117.561L286.5 111.121L280.418 117.561C279.865 118.146 278.968 118.146 278.415 117.561C277.862 116.975 277.862 116.025 278.415 115.44L284.497 109L278.415 102.56C277.862 101.975 277.862 101.025 278.415 100.439C278.968 99.8536 279.865 99.8536 280.418 100.439L286.5 106.879L292.582 100.439Z" fill="#71717A"/>
<g filter="url(#filter1_ddd_511_557)">
<rect x="359" y="2" width="210" height="210" rx="12" fill="#FAFAFA"/>
<path d="M508.773 63.1022L479.55 46.1662C469.988 40.6113 458.272 40.6113 448.71 46.1662L419.352 63.1022C409.925 68.657 404 78.9541 404 89.9287V123.936C404 135.046 409.925 145.207 419.352 150.762L448.576 167.834C458.137 173.389 469.854 173.389 479.415 167.834L508.639 150.762C518.2 145.207 523.991 135.046 523.991 123.936V89.9287C524.261 78.9541 518.335 68.657 508.773 63.1022ZM464.063 137.214C447.499 137.214 434.031 123.665 434.031 107C434.031 90.335 447.499 76.7863 464.063 76.7863C480.627 76.7863 494.229 90.335 494.229 107C494.229 123.665 480.762 137.214 464.063 137.214Z" fill="#18181B"/>
</g>
<defs>
<filter id="filter0_ddd_511_557" x="0" y="0" width="218" height="218" filterUnits="userSpaceOnUse" color-interpolation-filters="sRGB">
<feFlood flood-opacity="0" result="BackgroundImageFix"/>
<feColorMatrix in="SourceAlpha" type="matrix" values="0 0 0 0 0 0 0 0 0 0 0 0 0 0 0 0 0 0 127 0" result="hardAlpha"/>
<feOffset dy="2"/>
<feGaussianBlur stdDeviation="2"/>
<feComposite in2="hardAlpha" operator="out"/>
<feColorMatrix type="matrix" values="0 0 0 0 0 0 0 0 0 0 0 0 0 0 0 0 0 0 0.04 0"/>
<feBlend mode="normal" in2="BackgroundImageFix" result="effect1_dropShadow_511_557"/>
<feColorMatrix in="SourceAlpha" type="matrix" values="0 0 0 0 0 0 0 0 0 0 0 0 0 0 0 0 0 0 127 0" result="hardAlpha"/>
<feMorphology radius="1" operator="erode" in="SourceAlpha" result="effect2_dropShadow_511_557"/>
<feOffset dy="1"/>
<feGaussianBlur stdDeviation="1"/>
<feComposite in2="hardAlpha" operator="out"/>
<feColorMatrix type="matrix" values="0 0 0 0 0 0 0 0 0 0 0 0 0 0 0 0 0 0 0.08 0"/>
<feBlend mode="normal" in2="effect1_dropShadow_511_557" result="effect2_dropShadow_511_557"/>
<feColorMatrix in="SourceAlpha" type="matrix" values="0 0 0 0 0 0 0 0 0 0 0 0 0 0 0 0 0 0 127 0" result="hardAlpha"/>
<feMorphology radius="1" operator="dilate" in="SourceAlpha" result="effect3_dropShadow_511_557"/>
<feOffset/>
<feComposite in2="hardAlpha" operator="out"/>
<feColorMatrix type="matrix" values="0 0 0 0 0 0 0 0 0 0 0 0 0 0 0 0 0 0 0.08 0"/>
<feBlend mode="normal" in2="effect2_dropShadow_511_557" result="effect3_dropShadow_511_557"/>
<feBlend mode="normal" in="SourceGraphic" in2="effect3_dropShadow_511_557" result="shape"/>
</filter>
<filter id="filter1_ddd_511_557" x="355" y="0" width="218" height="218" filterUnits="userSpaceOnUse" color-interpolation-filters="sRGB">
<feFlood flood-opacity="0" result="BackgroundImageFix"/>
<feColorMatrix in="SourceAlpha" type="matrix" values="0 0 0 0 0 0 0 0 0 0 0 0 0 0 0 0 0 0 127 0" result="hardAlpha"/>
<feOffset dy="2"/>
<feGaussianBlur stdDeviation="2"/>
<feComposite in2="hardAlpha" operator="out"/>
<feColorMatrix type="matrix" values="0 0 0 0 0 0 0 0 0 0 0 0 0 0 0 0 0 0 0.04 0"/>
<feBlend mode="normal" in2="BackgroundImageFix" result="effect1_dropShadow_511_557"/>
<feColorMatrix in="SourceAlpha" type="matrix" values="0 0 0 0 0 0 0 0 0 0 0 0 0 0 0 0 0 0 127 0" result="hardAlpha"/>
<feMorphology radius="1" operator="erode" in="SourceAlpha" result="effect2_dropShadow_511_557"/>
<feOffset dy="1"/>
<feGaussianBlur stdDeviation="1"/>
<feComposite in2="hardAlpha" operator="out"/>
<feColorMatrix type="matrix" values="0 0 0 0 0 0 0 0 0 0 0 0 0 0 0 0 0 0 0.08 0"/>
<feBlend mode="normal" in2="effect1_dropShadow_511_557" result="effect2_dropShadow_511_557"/>
<feColorMatrix in="SourceAlpha" type="matrix" values="0 0 0 0 0 0 0 0 0 0 0 0 0 0 0 0 0 0 127 0" result="hardAlpha"/>
<feMorphology radius="1" operator="dilate" in="SourceAlpha" result="effect3_dropShadow_511_557"/>
<feOffset/>
<feComposite in2="hardAlpha" operator="out"/>
<feColorMatrix type="matrix" values="0 0 0 0 0 0 0 0 0 0 0 0 0 0 0 0 0 0 0.08 0"/>
<feBlend mode="normal" in2="effect2_dropShadow_511_557" result="effect3_dropShadow_511_557"/>
<feBlend mode="normal" in="SourceGraphic" in2="effect3_dropShadow_511_557" result="shape"/>
</filter>
</defs>
</svg>
