<svg width="600" height="645" viewBox="0 0 600 645" fill="none" xmlns="http://www.w3.org/2000/svg">
<path d="M416.277 209.374L340.384 165.729C315.552 151.414 285.125 151.414 260.293 165.729L184.05 209.374C159.568 223.689 144.179 250.225 144.179 278.506V366.144C144.179 394.775 159.568 420.962 184.05 435.277L259.943 479.271C284.775 493.586 315.202 493.586 340.034 479.271L415.927 435.277C440.759 420.962 455.798 394.775 455.798 366.144V278.506C456.497 250.225 441.109 223.689 416.277 209.374Z" fill="white"/>
<path d="M238.433 112.953C238.433 145.224 212.272 171.386 180 171.386C147.729 171.386 121.567 145.224 121.567 112.953C121.567 80.6813 147.729 54.5201 180 54.5201C212.272 54.5201 238.433 80.6813 238.433 112.953Z" fill="white"/>
<path d="M128.562 191.63C128.562 223.902 102.401 250.063 70.1297 250.063C37.8581 250.063 11.6969 223.902 11.6969 191.63C11.6969 159.359 37.8581 133.198 70.1297 133.198C102.401 133.198 128.562 159.359 128.562 191.63Z" fill="white"/>
<path d="M116.865 322.5C116.865 354.771 90.7042 380.933 58.4327 380.933C26.1612 380.933 0 354.771 0 322.5C0 290.228 26.1612 264.067 58.4327 264.067C90.7042 264.067 116.865 290.228 116.865 322.5Z" fill="white"/>
<path d="M129.342 454.149C129.342 486.42 103.181 512.581 70.9092 512.581C38.6377 512.581 12.4765 486.42 12.4765 454.149C12.4765 421.877 38.6377 395.716 70.9092 395.716C103.181 395.716 129.342 421.877 129.342 454.149Z" fill="white"/>
<path d="M238.433 532.047C238.433 564.319 212.272 590.48 180 590.48C147.729 590.48 121.567 564.319 121.567 532.047C121.567 499.776 147.729 473.614 180 473.614C212.272 473.614 238.433 499.776 238.433 532.047Z" fill="white"/>
<path d="M358.433 586.567C358.433 618.839 332.271 645 300 645C267.728 645 241.567 618.839 241.567 586.567C241.567 554.296 267.728 528.135 300 528.135C332.271 528.135 358.433 554.296 358.433 586.567Z" fill="white"/>
<path d="M478.433 532.047C478.433 564.319 452.271 590.48 420 590.48C387.728 590.48 361.567 564.319 361.567 532.047C361.567 499.776 387.728 473.614 420 473.614C452.271 473.614 478.433 499.776 478.433 532.047Z" fill="white"/>
<path d="M588.303 453.37C588.303 485.641 562.141 511.802 529.87 511.802C497.598 511.802 471.437 485.641 471.437 453.37C471.437 421.098 497.598 394.937 529.87 394.937C562.141 394.937 588.303 421.098 588.303 453.37Z" fill="white"/>
<path d="M600 322.5C600 354.771 573.839 380.933 541.567 380.933C509.296 380.933 483.135 354.771 483.135 322.5C483.135 290.228 509.296 264.067 541.567 264.067C573.839 264.067 600 290.228 600 322.5Z" fill="white"/>
<path d="M589.082 190.851C589.082 223.123 562.921 249.284 530.65 249.284C498.378 249.284 472.217 223.123 472.217 190.851C472.217 158.58 498.378 132.419 530.65 132.419C562.921 132.419 589.082 158.58 589.082 190.851Z" fill="white"/>
<path d="M478.433 112.174C478.433 144.445 452.271 170.607 420 170.607C387.728 170.607 361.567 144.445 361.567 112.174C361.567 79.9024 387.728 53.7412 420 53.7412C452.271 53.7412 478.433 79.9024 478.433 112.174Z" fill="white"/>
<path d="M358.433 58.4327C358.433 90.7042 332.271 116.865 300 116.865C267.728 116.865 241.567 90.7042 241.567 58.4327C241.567 26.1612 267.728 0 300 0C332.271 0 358.433 26.1612 358.433 58.4327Z" fill="white"/>
</svg>
