<svg width="274" height="274" viewBox="0 0 274 274" fill="none" xmlns="http://www.w3.org/2000/svg">
<g filter="url(#filter0_dddii_450_330)">
<rect x="32" y="16" width="210" height="210" rx="12" fill="#FAFAFA" shape-rendering="crispEdges"/>
<g clip-path="url(#clip0_450_330)">
<mask id="mask0_450_330" style="mask-type:luminance" maskUnits="userSpaceOnUse" x="77" y="61" width="120" height="120">
<path d="M173 180.971H101.074C87.8288 180.971 77.0957 170.233 77.0957 156.99V85.0319C77.0957 71.7809 87.8288 61.043 101.074 61.043H173C186.245 61.043 196.978 71.7809 196.978 85.0319V156.99C196.969 170.233 186.236 180.971 173 180.971Z" fill="white"/>
</mask>
<g mask="url(#mask0_450_330)">
<path d="M196.969 61.043H77.0957V180.971H196.969V61.043Z" fill="#005BFF"/>
</g>
<mask id="mask1_450_330" style="mask-type:luminance" maskUnits="userSpaceOnUse" x="77" y="61" width="120" height="120">
<path d="M173 61.043H101.074C87.8288 61.043 77.0957 71.7809 77.0957 85.0319V156.99C77.0957 170.233 87.8288 180.971 101.074 180.971H173C186.236 180.971 196.969 170.233 196.978 156.99V85.0319C196.978 71.7809 186.245 61.043 173 61.043Z" fill="white"/>
</mask>
<g mask="url(#mask1_450_330)">
<path d="M210.232 163.793C201.123 171.99 190.623 184.088 177.433 183.612C173.882 181.218 179.497 176.551 181.297 174.531C187.046 168.08 192.718 161.192 198.306 154.173C218.41 128.92 211.829 142.997 210.232 163.793Z" fill="#F1117E"/>
<path d="M186.855 39.5932C177.882 60.1173 166.881 80.5058 151.358 96.9049C140.616 108.252 133.138 116.727 119.885 126.925C104.554 138.722 89.555 147.918 75.0336 160.427C67.3599 167.495 58.3127 173.34 48.5508 177.493C48.6106 178.289 49.431 189.806 49.4564 189.958C49.5917 189.882 52.3067 187.699 52.848 187.301C75.7583 171.36 102.101 160.648 124.527 143.577C152.123 120.354 175.237 91.6389 194.975 61.5434C212.938 36.4515 224.719 36.0288 186.855 39.5932Z" fill="#F1117E"/>
<path d="M99.0278 67.3899C93.674 73.0593 88.447 78.7371 83.2116 84.5249C80.3613 87.6896 77.7901 91.0997 74.9736 94.3151C69.9412 100.061 64.7311 105.738 58.7852 110.435C52.7547 115.19 46.2675 119.996 40.1186 124.6C40.1017 124.253 39.3743 108.125 39.3574 107.761C41.9625 103.344 44.5844 98.3429 46.5213 93.5451C47.6631 90.7104 48.6696 87.7319 49.8198 84.8972C52.0189 79.4394 54.903 74.447 59.1489 70.47C61.5171 68.2446 64.2405 66.6707 67.0401 65.173C75.4388 60.6713 83.829 56.0935 92.2446 51.6342C97.2602 48.9688 101.058 44.3233 105.532 40.8117L123.285 40.0078C115.225 49.1888 107.427 58.4967 99.0278 67.3899Z" fill="#F1117E"/>
<path d="M137.957 196.47C144.638 189.684 168.046 173.919 164.316 171.759C163.98 171.564 163.565 171.564 163.216 171.733C150.361 177.951 138.359 186.785 129.327 197.986C129.094 198.275 128.743 198.443 128.372 198.439C126.257 198.417 119.42 198.341 115.034 198.292C113.862 198.279 113.392 196.772 114.349 196.095C115.092 195.57 115.706 195.123 116.053 194.866C126.646 186.695 138.446 180.563 149.879 173.897C163.585 165.905 175.469 155.13 184.77 142.272C189.048 136.358 193.41 130.518 198.519 125.343C198.574 125.287 198.634 125.238 198.699 125.194C212.963 115.495 216.909 86.4907 236.585 76.2413C237.398 75.8178 238.367 76.408 238.359 77.3249C238.294 84.7863 228.438 90.8529 227.791 98.5093C227.785 98.5846 227.772 98.6595 227.752 98.7324C220.103 126.558 193.147 145.432 180.355 159.959C172.756 168.588 163.745 185.755 153.389 197.217C153.275 197.343 153.19 197.492 153.137 197.653C152.619 199.231 143.348 198.686 138.779 198.524C137.73 198.487 137.22 197.219 137.957 196.47Z" fill="#F1117E"/>
<path d="M43.5215 201.766C69.1683 184.061 99.8258 174.846 124.946 156.595C139.498 144.07 150.628 127.712 165.386 115.534C169.464 113.076 168.319 116.806 166.995 119.223C152.173 148.965 122.578 166.031 95.0012 182.345C75.1136 195.068 71.1524 205.674 43.5215 201.766Z" fill="#F1117E"/>
<path d="M220.189 79.7957C242.453 68.7366 236.675 57.0547 233.792 34.7344C222.157 43.0023 214.839 52.3513 205.952 63.2603C179.666 93.6936 170.354 138.232 134.734 161.009C116.444 171.653 101.661 186.792 86.0352 200.822C89.5673 199.579 109.377 201.653 110.377 196.202C115.049 188.301 120.147 182.03 128.732 178.307C144.837 169.848 158.734 157.836 172.865 146.498C192.254 127.31 192.27 91.1223 220.189 79.7957Z" fill="#F1117E"/>
<path d="M184.245 39.6703C170.095 65.3158 144.161 91.5256 117.936 111.151C107.724 118.793 95.8675 123.918 83.3239 126.22C73.754 127.976 69.5821 130.768 55.9055 142.262C51.1771 147.193 48.6313 151.771 44.5461 159.649C44.5377 159.378 43.4297 135.076 43.4297 135.076C54.3099 120.247 70.9454 113.816 83.5459 101.179C93.9362 90.3246 101.188 76.7128 110.772 65.1573C115.557 59.0721 130.726 45.3465 133.582 41.9628C133.616 41.9634 149.28 41.2526 149.28 41.2526C142.12 50.3261 134.827 58.9847 119.697 76.8979C117.877 79.0531 102.841 94.5409 97.3453 103.062C95.5559 105.836 94.3438 108.657 95.6941 109.71C97.1245 110.825 99.1387 108.971 102.396 106.935C121.087 95.2511 134.153 84.2223 149.289 65.3607C173.791 34.8279 155.01 37.5425 184.245 39.6703Z" fill="#F1117E"/>
</g>
<mask id="mask2_450_330" style="mask-type:luminance" maskUnits="userSpaceOnUse" x="77" y="61" width="120" height="120">
<path d="M173 61.043H101.074C87.8288 61.043 77.0957 71.7809 77.0957 85.0319V156.99C77.0957 170.233 87.8288 180.971 101.074 180.971H173C186.236 180.971 196.969 170.233 196.978 156.99V85.0319C196.978 71.7809 186.245 61.043 173 61.043Z" fill="white"/>
</mask>
<g mask="url(#mask2_450_330)">
<path d="M127.341 130.142L116.763 132.977L125.479 111.469C125.67 110.989 125.437 110.445 124.957 110.254C124.771 110.18 124.568 110.167 124.375 110.218L104.833 115.456C103.108 115.919 102.084 117.693 102.546 119.418C103.008 121.144 104.782 122.168 106.507 121.706L115.294 119.35L106.53 140.88C106.332 141.352 106.553 141.895 107.024 142.094C107.218 142.175 107.433 142.188 107.634 142.131L129.017 136.399C130.715 135.848 131.645 134.023 131.094 132.324C130.583 130.748 128.965 129.814 127.345 130.159L127.341 130.142ZM190.454 92.5036C188.729 92.9661 187.706 94.74 188.168 96.4657L190.975 106.946L170.502 98.0695C170.036 97.8595 169.487 98.0677 169.278 98.5347C169.189 98.7318 169.172 98.9537 169.23 99.162L175 120.706C175.462 122.431 177.235 123.455 178.96 122.993C180.685 122.531 181.709 120.757 181.247 119.031L178.44 108.551L198.914 117.436C199.389 117.639 199.939 117.417 200.141 116.942C200.223 116.75 200.238 116.536 200.184 116.335L194.414 94.7912C193.952 93.0655 192.179 92.0412 190.454 92.5036ZM151.126 124.399C143.985 126.313 137.633 123.979 136.73 120.61C135.828 117.24 140.162 112.041 147.304 110.127C154.445 108.212 160.798 110.546 161.7 113.916C162.603 117.285 158.285 122.48 151.126 124.399ZM145.632 103.886C135.292 106.658 128.513 114.892 130.492 122.282C132.471 129.671 142.457 133.412 152.798 130.64C163.139 127.868 169.917 119.633 167.938 112.244C165.959 104.854 155.973 101.113 145.632 103.886ZM89.6498 140.888C85.707 141.95 81.6502 139.613 80.5885 135.668C79.5272 131.724 81.863 127.665 85.8058 126.603C89.7486 125.541 93.8054 127.878 94.867 131.823L94.8693 131.831C95.9252 135.774 93.5895 139.827 89.6498 140.888ZM84.1534 120.366C76.7628 122.342 72.3727 129.938 74.3482 137.332C76.3235 144.727 83.9161 149.118 91.3067 147.142C98.6972 145.166 103.087 137.57 101.112 130.176C101.11 130.17 101.109 130.165 101.107 130.159C99.1287 122.771 91.5382 118.387 84.1534 120.366Z" fill="white"/>
</g>
</g>
</g>
<defs>
<filter id="filter0_dddii_450_330" x="0" y="0" width="274" height="274" filterUnits="userSpaceOnUse" color-interpolation-filters="sRGB">
<feFlood flood-opacity="0" result="BackgroundImageFix"/>
<feColorMatrix in="SourceAlpha" type="matrix" values="0 0 0 0 0 0 0 0 0 0 0 0 0 0 0 0 0 0 127 0" result="hardAlpha"/>
<feOffset dy="16"/>
<feGaussianBlur stdDeviation="16"/>
<feComposite in2="hardAlpha" operator="out"/>
<feColorMatrix type="matrix" values="0 0 0 0 0 0 0 0 0 0 0 0 0 0 0 0 0 0 0.08 0"/>
<feBlend mode="normal" in2="BackgroundImageFix" result="effect1_dropShadow_450_330"/>
<feColorMatrix in="SourceAlpha" type="matrix" values="0 0 0 0 0 0 0 0 0 0 0 0 0 0 0 0 0 0 127 0" result="hardAlpha"/>
<feOffset dy="8"/>
<feGaussianBlur stdDeviation="8"/>
<feComposite in2="hardAlpha" operator="out"/>
<feColorMatrix type="matrix" values="0 0 0 0 0 0 0 0 0 0 0 0 0 0 0 0 0 0 0.08 0"/>
<feBlend mode="normal" in2="effect1_dropShadow_450_330" result="effect2_dropShadow_450_330"/>
<feColorMatrix in="SourceAlpha" type="matrix" values="0 0 0 0 0 0 0 0 0 0 0 0 0 0 0 0 0 0 127 0" result="hardAlpha"/>
<feMorphology radius="1" operator="dilate" in="SourceAlpha" result="effect3_dropShadow_450_330"/>
<feOffset/>
<feComposite in2="hardAlpha" operator="out"/>
<feColorMatrix type="matrix" values="0 0 0 0 0 0 0 0 0 0 0 0 0 0 0 0 0 0 0.08 0"/>
<feBlend mode="normal" in2="effect2_dropShadow_450_330" result="effect3_dropShadow_450_330"/>
<feBlend mode="normal" in="SourceGraphic" in2="effect3_dropShadow_450_330" result="shape"/>
<feColorMatrix in="SourceAlpha" type="matrix" values="0 0 0 0 0 0 0 0 0 0 0 0 0 0 0 0 0 0 127 0" result="hardAlpha"/>
<feMorphology radius="1.5" operator="erode" in="SourceAlpha" result="effect4_innerShadow_450_330"/>
<feOffset/>
<feComposite in2="hardAlpha" operator="arithmetic" k2="-1" k3="1"/>
<feColorMatrix type="matrix" values="0 0 0 0 0.894118 0 0 0 0 0.894118 0 0 0 0 0.905882 0 0 0 0.6 0"/>
<feBlend mode="normal" in2="shape" result="effect4_innerShadow_450_330"/>
<feColorMatrix in="SourceAlpha" type="matrix" values="0 0 0 0 0 0 0 0 0 0 0 0 0 0 0 0 0 0 127 0" result="hardAlpha"/>
<feMorphology radius="1" operator="erode" in="SourceAlpha" result="effect5_innerShadow_450_330"/>
<feOffset/>
<feComposite in2="hardAlpha" operator="arithmetic" k2="-1" k3="1"/>
<feColorMatrix type="matrix" values="0 0 0 0 1 0 0 0 0 1 0 0 0 0 1 0 0 0 1 0"/>
<feBlend mode="normal" in2="effect4_innerShadow_450_330" result="effect5_innerShadow_450_330"/>
</filter>
<clipPath id="clip0_450_330">
<rect width="120" height="120" fill="white" transform="translate(77 61)"/>
</clipPath>
</defs>
</svg>
