<svg width="573" height="218" viewBox="0 0 573 218" fill="none" xmlns="http://www.w3.org/2000/svg">
<g filter="url(#filter0_ddd_511_602)">
<rect x="4" y="2" width="210" height="210" rx="12" fill="#FAFAFA"/>
<g clip-path="url(#clip0_511_602)">
<mask id="mask0_511_602" style="mask-type:luminance" maskUnits="userSpaceOnUse" x="49" y="47" width="120" height="120">
<path d="M145 166.971H73.0738C59.8288 166.971 49.0957 156.233 49.0957 142.99V71.0319C49.0957 57.7809 59.8288 47.043 73.0738 47.043H145C158.245 47.043 168.978 57.7809 168.978 71.0319V142.99C168.969 156.233 158.236 166.971 145 166.971Z" fill="white"/>
</mask>
<g mask="url(#mask0_511_602)">
<path d="M168.969 47.043H49.0957V166.971H168.969V47.043Z" fill="#005BFF"/>
</g>
<mask id="mask1_511_602" style="mask-type:luminance" maskUnits="userSpaceOnUse" x="49" y="47" width="120" height="120">
<path d="M145 47.043H73.0738C59.8288 47.043 49.0957 57.7809 49.0957 71.0319V142.99C49.0957 156.233 59.8288 166.971 73.0738 166.971H145C158.236 166.971 168.969 156.233 168.978 142.99V71.0319C168.978 57.7809 158.245 47.043 145 47.043Z" fill="white"/>
</mask>
<g mask="url(#mask1_511_602)">
<path d="M182.232 149.793C173.123 157.99 162.623 170.088 149.433 169.612C145.882 167.218 151.497 162.551 153.297 160.531C159.046 154.08 164.718 147.192 170.306 140.173C190.41 114.92 183.829 128.997 182.232 149.793Z" fill="#F1117E"/>
<path d="M158.855 25.5932C149.882 46.1173 138.881 66.5058 123.358 82.9049C112.616 94.2524 105.138 102.727 91.8847 112.925C76.5538 124.722 61.555 133.918 47.0336 146.427C39.3599 153.495 30.3127 159.34 20.5508 163.493C20.6106 164.289 21.431 175.806 21.4564 175.958C21.5917 175.882 24.3067 173.699 24.848 173.301C47.7583 157.36 74.1006 146.648 96.5275 129.577C124.123 106.354 147.237 77.6389 166.975 47.5434C184.938 22.4515 196.719 22.0288 158.855 25.5932Z" fill="#F1117E"/>
<path d="M71.0278 53.3899C65.674 59.0593 60.447 64.7371 55.2116 70.5249C52.3613 73.6896 49.7901 77.0997 46.9736 80.3151C41.9412 86.0606 36.7311 91.7384 30.7852 96.4347C24.7547 101.19 18.2675 105.996 12.1186 110.6C12.1017 110.253 11.3743 94.1246 11.3574 93.7608C13.9625 89.3438 16.5844 84.3429 18.5213 79.5451C19.6631 76.7104 20.6696 73.7319 21.8198 70.8972C24.0189 65.4394 26.903 60.447 31.1489 56.47C33.5171 54.2446 36.2405 52.6707 39.0401 51.173C47.4388 46.6713 55.829 42.0935 64.2446 37.6342C69.2602 34.9688 73.0577 30.3233 77.532 26.8117L95.2851 26.0078C87.2247 35.1888 79.4265 44.4967 71.0278 53.3899Z" fill="#F1117E"/>
<path d="M109.957 182.47C116.638 175.684 140.046 159.919 136.316 157.759C135.98 157.564 135.565 157.564 135.216 157.733C122.361 163.951 110.359 172.785 101.327 183.986C101.094 184.275 100.743 184.443 100.372 184.439C98.2573 184.417 91.42 184.341 87.0336 184.292C85.8616 184.279 85.392 182.772 86.349 182.095C87.0917 181.57 87.7063 181.123 88.053 180.866C98.6461 172.695 110.446 166.563 121.879 159.897C135.585 151.905 147.469 141.13 156.77 128.272C161.048 122.358 165.41 116.518 170.519 111.343C170.574 111.287 170.634 111.238 170.699 111.194C184.963 101.495 188.909 72.4907 208.585 62.2413C209.398 61.8178 210.367 62.408 210.359 63.3249C210.294 70.7863 200.438 76.8529 199.791 84.5093C199.785 84.5846 199.772 84.6595 199.752 84.7324C192.103 112.558 165.147 131.432 152.355 145.959C144.756 154.588 135.745 171.755 125.389 183.217C125.275 183.343 125.19 183.492 125.137 183.653C124.619 185.231 115.348 184.686 110.779 184.524C109.73 184.487 109.22 183.219 109.957 182.47Z" fill="#F1117E"/>
<path d="M15.5215 187.766C41.1683 170.061 71.8258 160.846 96.9464 142.595C111.498 130.07 122.628 113.712 137.386 101.534C141.464 99.0757 140.319 102.806 138.995 105.223C124.173 134.965 94.5778 152.031 67.0012 168.345C47.1136 181.068 43.1524 191.674 15.5215 187.766Z" fill="#F1117E"/>
<path d="M192.189 65.7957C214.453 54.7366 208.675 43.0547 205.792 20.7344C194.157 29.0023 186.839 38.3513 177.952 49.2603C151.666 79.6936 142.354 124.232 106.734 147.009C88.4445 157.653 73.6614 172.792 58.0352 186.822C61.5673 185.579 81.3772 187.653 82.3775 182.202C87.0486 174.301 92.1467 168.03 100.732 164.307C116.837 155.848 130.734 143.836 144.865 132.498C164.254 113.31 164.27 77.1223 192.189 65.7957Z" fill="#F1117E"/>
<path d="M156.245 25.6703C142.095 51.3158 116.161 77.5256 89.9359 97.1506C79.7238 104.793 67.8675 109.918 55.3239 112.22C45.754 113.976 41.5821 116.768 27.9055 128.262C23.1771 133.193 20.6313 137.771 16.5461 145.649C16.5377 145.378 15.4297 121.076 15.4297 121.076C26.3099 106.247 42.9454 99.8156 55.5459 87.179C65.9362 76.3246 73.188 62.7128 82.7718 51.1573C87.5571 45.0721 102.726 31.3465 105.582 27.9628C105.616 27.9634 121.28 27.2526 121.28 27.2526C114.12 36.3261 106.827 44.9847 91.6969 62.8979C89.8765 65.0531 74.8411 80.5409 69.3453 89.062C67.5559 91.8363 66.3438 94.6574 67.6941 95.71C69.1245 96.825 71.1387 94.9707 74.3959 92.9347C93.0869 81.2511 106.153 70.2223 121.289 51.3607C145.791 20.8279 127.01 23.5425 156.245 25.6703Z" fill="#F1117E"/>
</g>
<mask id="mask2_511_602" style="mask-type:luminance" maskUnits="userSpaceOnUse" x="49" y="47" width="120" height="120">
<path d="M145 47.043H73.0738C59.8288 47.043 49.0957 57.7809 49.0957 71.0319V142.99C49.0957 156.233 59.8288 166.971 73.0738 166.971H145C158.236 166.971 168.969 156.233 168.978 142.99V71.0319C168.978 57.7809 158.245 47.043 145 47.043Z" fill="white"/>
</mask>
<g mask="url(#mask2_511_602)">
<path d="M99.3406 116.142L88.7634 118.977L97.479 97.4695C97.6704 96.9894 97.4365 96.4454 96.9567 96.254C96.7715 96.1801 96.5677 96.1674 96.3747 96.2176L76.8328 101.456C75.1079 101.919 74.0841 103.693 74.5463 105.418C75.0085 107.144 76.7817 108.168 78.5066 107.706L87.2942 105.35L78.5301 126.88C78.3316 127.352 78.5529 127.895 79.0244 128.094C79.2177 128.175 79.4328 128.188 79.6344 128.131L101.017 122.399C102.715 121.848 103.645 120.023 103.094 118.324C102.583 116.748 100.965 115.814 99.3451 116.159L99.3406 116.142ZM162.454 78.5036C160.729 78.9661 159.706 80.74 160.168 82.4657L162.975 92.9463L142.502 84.0695C142.036 83.8595 141.487 84.0677 141.278 84.5347C141.189 84.7318 141.172 84.9537 141.23 85.162L147 106.706C147.462 108.431 149.235 109.455 150.96 108.993C152.685 108.531 153.709 106.757 153.247 105.031L150.44 94.5507L170.914 103.436C171.389 103.639 171.939 103.417 172.141 102.942C172.223 102.75 172.238 102.536 172.184 102.335L166.414 80.7912C165.952 79.0655 164.179 78.0412 162.454 78.5036ZM123.126 110.399C115.985 112.313 109.633 109.979 108.73 106.61C107.828 103.24 112.162 98.0411 119.304 96.1267C126.445 94.2123 132.798 96.5462 133.7 99.9159C134.603 103.285 130.285 108.48 123.126 110.399ZM117.632 89.8855C107.292 92.6575 100.513 100.892 102.492 108.282C104.471 115.671 114.457 119.412 124.798 116.64C135.139 113.868 141.917 105.633 139.938 98.2436C137.959 90.854 127.973 87.1135 117.632 89.8855ZM61.6498 126.888C57.707 127.95 53.6502 125.613 52.5885 121.668C51.5272 117.724 53.863 113.665 57.8058 112.603C61.7486 111.541 65.8054 113.878 66.867 117.823L66.8693 117.831C67.9252 121.774 65.5895 125.827 61.6498 126.888ZM56.1534 106.366C48.7628 108.342 44.3727 115.938 46.3482 123.332C48.3235 130.727 55.9161 135.118 63.3067 133.142C70.6972 131.166 75.0874 123.57 73.1119 116.176C73.1103 116.17 73.1088 116.165 73.1073 116.159C71.1287 108.771 63.5382 104.387 56.1534 106.366Z" fill="white"/>
</g>
</g>
</g>
<path opacity="0.7" d="M292.582 100.439C293.135 99.8536 294.032 99.8536 294.585 100.439C295.138 101.025 295.138 101.975 294.585 102.56L288.503 109L294.585 115.44C295.138 116.025 295.138 116.975 294.585 117.561C294.032 118.146 293.135 118.146 292.582 117.561L286.5 111.121L280.418 117.561C279.865 118.146 278.968 118.146 278.415 117.561C277.862 116.975 277.862 116.025 278.415 115.44L284.497 109L278.415 102.56C277.862 101.975 277.862 101.025 278.415 100.439C278.968 99.8536 279.865 99.8536 280.418 100.439L286.5 106.879L292.582 100.439Z" fill="#71717A"/>
<g filter="url(#filter1_ddd_511_602)">
<rect x="359" y="2" width="210" height="210" rx="12" fill="#FAFAFA"/>
<path d="M508.773 63.1022L479.55 46.1662C469.988 40.6113 458.272 40.6113 448.71 46.1662L419.352 63.1022C409.925 68.657 404 78.9541 404 89.9287V123.936C404 135.046 409.925 145.207 419.352 150.762L448.576 167.834C458.137 173.389 469.854 173.389 479.415 167.834L508.639 150.762C518.2 145.207 523.991 135.046 523.991 123.936V89.9287C524.261 78.9541 518.335 68.657 508.773 63.1022ZM464.063 137.214C447.499 137.214 434.031 123.665 434.031 107C434.031 90.335 447.499 76.7863 464.063 76.7863C480.627 76.7863 494.229 90.335 494.229 107C494.229 123.665 480.762 137.214 464.063 137.214Z" fill="#18181B"/>
</g>
<defs>
<filter id="filter0_ddd_511_602" x="0" y="0" width="218" height="218" filterUnits="userSpaceOnUse" color-interpolation-filters="sRGB">
<feFlood flood-opacity="0" result="BackgroundImageFix"/>
<feColorMatrix in="SourceAlpha" type="matrix" values="0 0 0 0 0 0 0 0 0 0 0 0 0 0 0 0 0 0 127 0" result="hardAlpha"/>
<feOffset dy="2"/>
<feGaussianBlur stdDeviation="2"/>
<feComposite in2="hardAlpha" operator="out"/>
<feColorMatrix type="matrix" values="0 0 0 0 0 0 0 0 0 0 0 0 0 0 0 0 0 0 0.04 0"/>
<feBlend mode="normal" in2="BackgroundImageFix" result="effect1_dropShadow_511_602"/>
<feColorMatrix in="SourceAlpha" type="matrix" values="0 0 0 0 0 0 0 0 0 0 0 0 0 0 0 0 0 0 127 0" result="hardAlpha"/>
<feMorphology radius="1" operator="erode" in="SourceAlpha" result="effect2_dropShadow_511_602"/>
<feOffset dy="1"/>
<feGaussianBlur stdDeviation="1"/>
<feComposite in2="hardAlpha" operator="out"/>
<feColorMatrix type="matrix" values="0 0 0 0 0 0 0 0 0 0 0 0 0 0 0 0 0 0 0.08 0"/>
<feBlend mode="normal" in2="effect1_dropShadow_511_602" result="effect2_dropShadow_511_602"/>
<feColorMatrix in="SourceAlpha" type="matrix" values="0 0 0 0 0 0 0 0 0 0 0 0 0 0 0 0 0 0 127 0" result="hardAlpha"/>
<feMorphology radius="1" operator="dilate" in="SourceAlpha" result="effect3_dropShadow_511_602"/>
<feOffset/>
<feComposite in2="hardAlpha" operator="out"/>
<feColorMatrix type="matrix" values="0 0 0 0 0 0 0 0 0 0 0 0 0 0 0 0 0 0 0.08 0"/>
<feBlend mode="normal" in2="effect2_dropShadow_511_602" result="effect3_dropShadow_511_602"/>
<feBlend mode="normal" in="SourceGraphic" in2="effect3_dropShadow_511_602" result="shape"/>
</filter>
<filter id="filter1_ddd_511_602" x="355" y="0" width="218" height="218" filterUnits="userSpaceOnUse" color-interpolation-filters="sRGB">
<feFlood flood-opacity="0" result="BackgroundImageFix"/>
<feColorMatrix in="SourceAlpha" type="matrix" values="0 0 0 0 0 0 0 0 0 0 0 0 0 0 0 0 0 0 127 0" result="hardAlpha"/>
<feOffset dy="2"/>
<feGaussianBlur stdDeviation="2"/>
<feComposite in2="hardAlpha" operator="out"/>
<feColorMatrix type="matrix" values="0 0 0 0 0 0 0 0 0 0 0 0 0 0 0 0 0 0 0.04 0"/>
<feBlend mode="normal" in2="BackgroundImageFix" result="effect1_dropShadow_511_602"/>
<feColorMatrix in="SourceAlpha" type="matrix" values="0 0 0 0 0 0 0 0 0 0 0 0 0 0 0 0 0 0 127 0" result="hardAlpha"/>
<feMorphology radius="1" operator="erode" in="SourceAlpha" result="effect2_dropShadow_511_602"/>
<feOffset dy="1"/>
<feGaussianBlur stdDeviation="1"/>
<feComposite in2="hardAlpha" operator="out"/>
<feColorMatrix type="matrix" values="0 0 0 0 0 0 0 0 0 0 0 0 0 0 0 0 0 0 0.08 0"/>
<feBlend mode="normal" in2="effect1_dropShadow_511_602" result="effect2_dropShadow_511_602"/>
<feColorMatrix in="SourceAlpha" type="matrix" values="0 0 0 0 0 0 0 0 0 0 0 0 0 0 0 0 0 0 127 0" result="hardAlpha"/>
<feMorphology radius="1" operator="dilate" in="SourceAlpha" result="effect3_dropShadow_511_602"/>
<feOffset/>
<feComposite in2="hardAlpha" operator="out"/>
<feColorMatrix type="matrix" values="0 0 0 0 0 0 0 0 0 0 0 0 0 0 0 0 0 0 0.08 0"/>
<feBlend mode="normal" in2="effect2_dropShadow_511_602" result="effect3_dropShadow_511_602"/>
<feBlend mode="normal" in="SourceGraphic" in2="effect3_dropShadow_511_602" result="shape"/>
</filter>
<clipPath id="clip0_511_602">
<rect width="120" height="120" fill="white" transform="translate(49 47)"/>
</clipPath>
</defs>
</svg>
