<svg width="573" height="218" viewBox="0 0 573 218" fill="none" xmlns="http://www.w3.org/2000/svg">
<g filter="url(#filter0_ddd_511_539)">
<rect x="4" y="2" width="210" height="210" rx="12" fill="#FAFAFA"/>
<path d="M103.277 64L41 150H115.059L177 64H103.277Z" fill="#333339"/>
</g>
<path opacity="0.7" d="M292.582 100.439C293.135 99.8536 294.032 99.8536 294.585 100.439C295.138 101.025 295.138 101.975 294.585 102.56L288.503 109L294.585 115.44C295.138 116.025 295.138 116.975 294.585 117.561C294.032 118.146 293.135 118.146 292.582 117.561L286.5 111.121L280.418 117.561C279.865 118.146 278.968 118.146 278.415 117.561C277.862 116.975 277.862 116.025 278.415 115.44L284.497 109L278.415 102.56C277.862 101.975 277.862 101.025 278.415 100.439C278.968 99.8536 279.865 99.8536 280.418 100.439L286.5 106.879L292.582 100.439Z" fill="#71717A"/>
<g filter="url(#filter1_ddd_511_539)">
<rect x="359" y="2" width="210" height="210" rx="12" fill="#FAFAFA"/>
<path d="M508.773 63.1022L479.55 46.1662C469.988 40.6113 458.272 40.6113 448.71 46.1662L419.352 63.1022C409.925 68.657 404 78.9541 404 89.9287V123.936C404 135.046 409.925 145.207 419.352 150.762L448.576 167.834C458.137 173.389 469.854 173.389 479.415 167.834L508.639 150.762C518.2 145.207 523.991 135.046 523.991 123.936V89.9287C524.261 78.9541 518.335 68.657 508.773 63.1022ZM464.063 137.214C447.499 137.214 434.031 123.665 434.031 107C434.031 90.335 447.499 76.7863 464.063 76.7863C480.627 76.7863 494.229 90.335 494.229 107C494.229 123.665 480.762 137.214 464.063 137.214Z" fill="#18181B"/>
</g>
<defs>
<filter id="filter0_ddd_511_539" x="0" y="0" width="218" height="218" filterUnits="userSpaceOnUse" color-interpolation-filters="sRGB">
<feFlood flood-opacity="0" result="BackgroundImageFix"/>
<feColorMatrix in="SourceAlpha" type="matrix" values="0 0 0 0 0 0 0 0 0 0 0 0 0 0 0 0 0 0 127 0" result="hardAlpha"/>
<feOffset dy="2"/>
<feGaussianBlur stdDeviation="2"/>
<feComposite in2="hardAlpha" operator="out"/>
<feColorMatrix type="matrix" values="0 0 0 0 0 0 0 0 0 0 0 0 0 0 0 0 0 0 0.04 0"/>
<feBlend mode="normal" in2="BackgroundImageFix" result="effect1_dropShadow_511_539"/>
<feColorMatrix in="SourceAlpha" type="matrix" values="0 0 0 0 0 0 0 0 0 0 0 0 0 0 0 0 0 0 127 0" result="hardAlpha"/>
<feMorphology radius="1" operator="erode" in="SourceAlpha" result="effect2_dropShadow_511_539"/>
<feOffset dy="1"/>
<feGaussianBlur stdDeviation="1"/>
<feComposite in2="hardAlpha" operator="out"/>
<feColorMatrix type="matrix" values="0 0 0 0 0 0 0 0 0 0 0 0 0 0 0 0 0 0 0.08 0"/>
<feBlend mode="normal" in2="effect1_dropShadow_511_539" result="effect2_dropShadow_511_539"/>
<feColorMatrix in="SourceAlpha" type="matrix" values="0 0 0 0 0 0 0 0 0 0 0 0 0 0 0 0 0 0 127 0" result="hardAlpha"/>
<feMorphology radius="1" operator="dilate" in="SourceAlpha" result="effect3_dropShadow_511_539"/>
<feOffset/>
<feComposite in2="hardAlpha" operator="out"/>
<feColorMatrix type="matrix" values="0 0 0 0 0 0 0 0 0 0 0 0 0 0 0 0 0 0 0.08 0"/>
<feBlend mode="normal" in2="effect2_dropShadow_511_539" result="effect3_dropShadow_511_539"/>
<feBlend mode="normal" in="SourceGraphic" in2="effect3_dropShadow_511_539" result="shape"/>
</filter>
<filter id="filter1_ddd_511_539" x="355" y="0" width="218" height="218" filterUnits="userSpaceOnUse" color-interpolation-filters="sRGB">
<feFlood flood-opacity="0" result="BackgroundImageFix"/>
<feColorMatrix in="SourceAlpha" type="matrix" values="0 0 0 0 0 0 0 0 0 0 0 0 0 0 0 0 0 0 127 0" result="hardAlpha"/>
<feOffset dy="2"/>
<feGaussianBlur stdDeviation="2"/>
<feComposite in2="hardAlpha" operator="out"/>
<feColorMatrix type="matrix" values="0 0 0 0 0 0 0 0 0 0 0 0 0 0 0 0 0 0 0.04 0"/>
<feBlend mode="normal" in2="BackgroundImageFix" result="effect1_dropShadow_511_539"/>
<feColorMatrix in="SourceAlpha" type="matrix" values="0 0 0 0 0 0 0 0 0 0 0 0 0 0 0 0 0 0 127 0" result="hardAlpha"/>
<feMorphology radius="1" operator="erode" in="SourceAlpha" result="effect2_dropShadow_511_539"/>
<feOffset dy="1"/>
<feGaussianBlur stdDeviation="1"/>
<feComposite in2="hardAlpha" operator="out"/>
<feColorMatrix type="matrix" values="0 0 0 0 0 0 0 0 0 0 0 0 0 0 0 0 0 0 0.08 0"/>
<feBlend mode="normal" in2="effect1_dropShadow_511_539" result="effect2_dropShadow_511_539"/>
<feColorMatrix in="SourceAlpha" type="matrix" values="0 0 0 0 0 0 0 0 0 0 0 0 0 0 0 0 0 0 127 0" result="hardAlpha"/>
<feMorphology radius="1" operator="dilate" in="SourceAlpha" result="effect3_dropShadow_511_539"/>
<feOffset/>
<feComposite in2="hardAlpha" operator="out"/>
<feColorMatrix type="matrix" values="0 0 0 0 0 0 0 0 0 0 0 0 0 0 0 0 0 0 0.08 0"/>
<feBlend mode="normal" in2="effect2_dropShadow_511_539" result="effect3_dropShadow_511_539"/>
<feBlend mode="normal" in="SourceGraphic" in2="effect3_dropShadow_511_539" result="shape"/>
</filter>
</defs>
</svg>
