<svg width="274" height="274" viewBox="0 0 274 274" fill="none" xmlns="http://www.w3.org/2000/svg">
<g filter="url(#filter0_dddii_450_301)">
<rect x="32" y="16" width="210" height="210" rx="12" fill="#FAFAFA" shape-rendering="crispEdges"/>
<g clip-path="url(#clip0_450_301)">
<path d="M141.219 181C108.128 181 81.2285 154.197 81.2285 121.101C81.2285 88.0043 108.128 61 141.219 61C174.31 61 201.209 88.0043 201.209 121.115C201.209 154.212 174.31 181 141.219 181Z" fill="#FF5226"/>
<path d="M131.931 69.123L65 173.569H95.6864L134.35 113.367L133.4 112.935L122.686 156.012L145.381 160.016L168.709 130.693L167.442 130.059L159.565 163.357L209.014 153.938L198.92 137.332L181.093 141.408L183.195 143.828L191.49 109.046L172.15 96.113L146.85 127.956L148.102 128.59L158.499 86.8667L131.931 69.123Z" fill="#FFDD00"/>
<path d="M131.931 69.123L65 173.569H95.6864L134.35 113.367L133.4 112.935L122.686 156.012L145.381 160.016L168.709 130.693L167.442 130.059L159.565 163.357L179.437 159.57L191.504 109.032L172.165 96.0986L146.85 127.956L148.102 128.59L158.499 86.8667L131.931 69.123Z" fill="#FFDD00"/>
</g>
</g>
<defs>
<filter id="filter0_dddii_450_301" x="0" y="0" width="274" height="274" filterUnits="userSpaceOnUse" color-interpolation-filters="sRGB">
<feFlood flood-opacity="0" result="BackgroundImageFix"/>
<feColorMatrix in="SourceAlpha" type="matrix" values="0 0 0 0 0 0 0 0 0 0 0 0 0 0 0 0 0 0 127 0" result="hardAlpha"/>
<feOffset dy="16"/>
<feGaussianBlur stdDeviation="16"/>
<feComposite in2="hardAlpha" operator="out"/>
<feColorMatrix type="matrix" values="0 0 0 0 0 0 0 0 0 0 0 0 0 0 0 0 0 0 0.08 0"/>
<feBlend mode="normal" in2="BackgroundImageFix" result="effect1_dropShadow_450_301"/>
<feColorMatrix in="SourceAlpha" type="matrix" values="0 0 0 0 0 0 0 0 0 0 0 0 0 0 0 0 0 0 127 0" result="hardAlpha"/>
<feOffset dy="8"/>
<feGaussianBlur stdDeviation="8"/>
<feComposite in2="hardAlpha" operator="out"/>
<feColorMatrix type="matrix" values="0 0 0 0 0 0 0 0 0 0 0 0 0 0 0 0 0 0 0.08 0"/>
<feBlend mode="normal" in2="effect1_dropShadow_450_301" result="effect2_dropShadow_450_301"/>
<feColorMatrix in="SourceAlpha" type="matrix" values="0 0 0 0 0 0 0 0 0 0 0 0 0 0 0 0 0 0 127 0" result="hardAlpha"/>
<feMorphology radius="1" operator="dilate" in="SourceAlpha" result="effect3_dropShadow_450_301"/>
<feOffset/>
<feComposite in2="hardAlpha" operator="out"/>
<feColorMatrix type="matrix" values="0 0 0 0 0 0 0 0 0 0 0 0 0 0 0 0 0 0 0.08 0"/>
<feBlend mode="normal" in2="effect2_dropShadow_450_301" result="effect3_dropShadow_450_301"/>
<feBlend mode="normal" in="SourceGraphic" in2="effect3_dropShadow_450_301" result="shape"/>
<feColorMatrix in="SourceAlpha" type="matrix" values="0 0 0 0 0 0 0 0 0 0 0 0 0 0 0 0 0 0 127 0" result="hardAlpha"/>
<feMorphology radius="1.5" operator="erode" in="SourceAlpha" result="effect4_innerShadow_450_301"/>
<feOffset/>
<feComposite in2="hardAlpha" operator="arithmetic" k2="-1" k3="1"/>
<feColorMatrix type="matrix" values="0 0 0 0 0.894118 0 0 0 0 0.894118 0 0 0 0 0.905882 0 0 0 0.6 0"/>
<feBlend mode="normal" in2="shape" result="effect4_innerShadow_450_301"/>
<feColorMatrix in="SourceAlpha" type="matrix" values="0 0 0 0 0 0 0 0 0 0 0 0 0 0 0 0 0 0 127 0" result="hardAlpha"/>
<feMorphology radius="1" operator="erode" in="SourceAlpha" result="effect5_innerShadow_450_301"/>
<feOffset/>
<feComposite in2="hardAlpha" operator="arithmetic" k2="-1" k3="1"/>
<feColorMatrix type="matrix" values="0 0 0 0 1 0 0 0 0 1 0 0 0 0 1 0 0 0 1 0"/>
<feBlend mode="normal" in2="effect4_innerShadow_450_301" result="effect5_innerShadow_450_301"/>
</filter>
<clipPath id="clip0_450_301">
<rect width="144" height="120" fill="white" transform="translate(65 61)"/>
</clipPath>
</defs>
</svg>
