<svg width="300" height="145" viewBox="0 0 300 145" fill="none" xmlns="http://www.w3.org/2000/svg">
<path d="M155.669 125.71C149.871 125.327 143.186 124.319 137.913 122.806C136.925 122.522 132.835 121.033 131.795 120.56C113.438 112.133 100.649 93.7362 100.649 72.3936C100.649 43.1203 124.68 19.276 154.237 19.276C183.532 19.276 207.401 42.7135 207.812 71.6558H227.171C226.761 32.1392 194.212 0.113495 154.237 0.113495C114.025 0.113495 81.2941 32.5317 81.2941 72.3936C81.2941 99.8746 96.8887 123.776 119.722 135.986C123.845 138.147 129.762 140.375 131.771 140.985C138.28 142.905 146.268 144.182 153.379 144.716C155.793 144.896 164.225 144.991 166.683 145H300V125.89H166.907C165.136 125.89 157.401 125.823 155.669 125.71ZM166.907 95.7035C165.499 95.7035 158.136 95.6562 156.776 95.5427C154.471 95.3488 151.131 95.0083 148.984 94.5212C146.559 93.8781 144.283 93.0268 143.257 92.4688C136.066 88.6145 131.165 81.0763 131.165 72.3936C131.165 59.7621 141.487 49.5188 154.237 49.5188C166.721 49.5188 176.871 59.3601 177.276 71.6558H195.877C195.486 49.1925 177.009 31.0893 154.237 31.0893C131.213 31.0893 112.55 49.5802 112.55 72.3936C112.55 88.4821 121.855 102.376 135.408 109.182C137.493 110.392 141.415 111.66 142.532 111.948C146.359 112.946 151.498 113.627 155.669 113.93C157.21 114.057 164.759 114.114 166.353 114.123V114.152H299.995V95.7035H166.907ZM69.3644 144.929H49.8759V19.3185H21.3972V0H69.3644V144.929ZM0 28.9707V47.5467H21.3972V144.929H40.1222V28.9707H0Z" fill="#D91920"/>
</svg>
