<svg width="85" height="177" viewBox="0 0 85 177" fill="none" xmlns="http://www.w3.org/2000/svg">
<path d="M42.7007 0H42.8555L43.017 0.0128698L43.1718 0.0257397L43.333 0.0514793L43.4878 0.077219L43.6426 0.115828L43.7974 0.154195L43.9523 0.199361L44.1007 0.250597L44.249 0.30839L44.3974 0.37881L44.5457 0.44923L44.6875 0.51965L44.8294 0.602939L44.9716 0.692785L45.1068 0.788945L45.2358 0.891418L45.365 1.00045L45.4939 1.10948L45.668 1.2763L45.7906 1.39795L45.9066 1.51985L46.0162 1.64175L46.1193 1.76997L46.216 1.90449H46.2224L83.8261 41.689L83.9421 41.8107L84.0518 41.9389L84.1482 42.0737L84.2449 42.2084L84.3353 42.343L84.419 42.484L84.4962 42.6317L84.567 42.7728L84.6318 42.9204L84.6899 43.0678L84.7416 43.2217L84.7868 43.3757L84.832 43.5233L84.8642 43.6836L84.8901 43.8376L84.916 43.9915L84.9289 44.152L84.9419 44.306L84.9482 44.4662L84.9419 44.6202V44.7227L84.9548 44.7996L84.9741 44.9665L84.9871 45.1333L85 45.3001V45.4667L84.9937 45.6401L84.9807 45.8132L84.9612 45.98L84.9353 46.1534L73.306 112.798L73.2737 112.965L73.2349 113.138L73.1897 113.299L73.1379 113.459L83.8256 124.766L83.9416 124.888L84.0513 125.017L84.1477 125.151L84.2444 125.286L84.3348 125.421L84.4186 125.562L84.4957 125.709L84.5665 125.85L84.6313 125.998L84.6894 126.145L84.7412 126.299L84.7863 126.453L84.8315 126.607L84.8637 126.761L84.8896 126.915L84.9155 127.069L84.9285 127.229L84.9414 127.383L84.9477 127.544L84.9414 127.698L84.9348 127.858L84.9219 128.012L84.9026 128.173L84.8767 128.327L84.8445 128.48L84.8056 128.634L84.7604 128.788L84.7087 128.936L84.6894 128.994L76.8139 174.14L76.7817 174.294L76.7428 174.448L76.7042 174.595L76.6525 174.743L76.5944 174.884L76.5362 175.025L76.4654 175.16L76.3946 175.288L76.3172 175.416L76.2334 175.538L76.1433 175.66L76.0466 175.775L75.9499 175.884L75.8469 175.993L75.7372 176.089L75.6276 176.192L75.5116 176.282L75.3956 176.371L75.273 176.448L75.1441 176.525L75.0149 176.595L74.8859 176.666L74.7506 176.724L74.6088 176.781L74.4732 176.827L74.3248 176.872L74.1829 176.91L74.0346 176.942L73.8862 176.961L73.7379 176.981L73.5831 176.994L73.4283 177L73.2735 176.994L73.1186 176.987L72.9638 176.968L72.809 176.949L72.6671 176.923L72.5445 176.942L72.3831 176.968L72.2219 176.981L72.0608 176.994L71.893 177L71.7316 176.994L71.5704 176.987L71.409 176.974L71.2478 176.955L71.0864 176.923L70.9252 176.891L70.7638 176.852L70.609 176.807L70.4542 176.756L70.2993 176.698L70.1445 176.634L69.9963 176.569L69.8478 176.493L69.6996 176.409L69.5577 176.32L69.4158 176.23L69.2803 176.128L69.1514 176.025L69.0158 175.909L68.8935 175.794L68.7709 175.666L42.5452 147.926L16.3197 175.666L16.1971 175.794L16.0745 175.909L15.9456 176.025L15.8101 176.128L15.6748 176.23L15.5329 176.32L15.391 176.409L15.2425 176.493L15.0943 176.569L14.9458 176.634L14.791 176.698L14.6425 176.756L14.4814 176.807L14.3265 176.852L14.1654 176.891L14.0039 176.923L13.8428 176.955L13.6814 176.974L13.5202 176.987L13.3588 176.994L13.1976 177L13.0298 176.994L12.8684 176.981L12.7072 176.968L12.5458 176.942L12.4943 176.936L12.4235 176.949L12.2621 176.968L12.1072 176.987L11.9524 176.994L11.7976 177L11.6428 176.994L11.4945 176.981L11.3397 176.961L11.1912 176.942L11.043 176.91L10.9011 176.872L10.7592 176.827L10.6171 176.781L10.4752 176.724L10.3463 176.666L10.211 176.595L10.0818 176.525L9.95289 176.448L9.83055 176.371L9.71431 176.282L9.59831 176.192L9.48867 176.089L9.37902 175.993L9.27597 175.884L9.17927 175.775L9.08916 175.66L8.99881 175.538L8.91504 175.416L8.83787 175.288L8.76046 175.16L8.69599 175.025L8.63128 174.884L8.57316 174.743L8.52798 174.595L8.48281 174.448L8.44398 174.294L8.41175 174.14L0.407326 128.237L0.381439 128.083L0.362146 127.929L0.355552 127.775V127.621V127.595V127.544V127.384L0.368495 127.23L0.381439 127.069L0.407326 126.915L0.433212 126.762L0.471792 126.608L0.510622 126.454L0.555802 126.3L0.607569 126.146L0.665692 125.998L0.736508 125.851L0.807324 125.71L0.878146 125.562L0.961905 125.421L1.05226 125.286L1.14896 125.152L1.25202 125.017L1.36166 124.889L1.47131 124.767L11.9524 113.684L11.9265 113.62L11.8621 113.466L11.8103 113.299L11.7651 113.138L11.7263 112.965L11.694 112.798L0.0647109 46.1536L0.0388241 45.9803L0.0192928 45.8134L0.00634946 45.6403L0 45.4669V45.3003L0.0129434 45.1335L0.0258808 44.9667L0.0451736 44.7999L0.0776542 44.6394L0.10989 44.4791L0.148715 44.3186L0.193894 44.1583L0.252011 44.0044L0.310134 43.8567L0.374845 43.7028L0.439317 43.5554L0.478141 43.485L0.510378 43.3759L0.555557 43.222L0.607325 43.068L0.665448 42.9206L0.736264 42.773L0.807079 42.6319L0.877901 42.4843L0.961661 42.3432L1.05201 42.2087L1.14872 42.0739L1.25177 41.9391L1.36142 41.8109L1.47107 41.6893L39.0809 1.90473L39.1776 1.77021L39.2807 1.642L39.3903 1.5201L39.5063 1.3982L39.6289 1.27654L39.803 1.10972L39.9322 1.00069L40.0612 0.891661L40.1965 0.789188L40.332 0.693028L40.4675 0.603182L40.6094 0.519893L40.7513 0.449473L40.8995 0.379053L41.048 0.308633L41.1962 0.25084L41.351 0.199604L41.4995 0.154438L41.6543 0.116071L41.8155 0.0774618L41.9703 0.0517222L42.1252 0.0259825L42.2866 0.0131127L42.4414 0.000242827H42.6026H42.648H42.6995L42.7007 0ZM69.8747 164.506L76.0862 128.909L68.3074 120.681L48.3769 141.763L69.8747 164.506ZM15.3334 164.384L36.7217 141.763L16.888 120.79L9.15436 128.974L15.3334 164.384ZM42.5462 135.599L62.4832 114.511L42.6494 93.5379L22.7187 114.62L42.5462 135.599ZM19.1392 106.077L39.0827 84.9885V84.9819L39.1794 84.8474L39.2824 84.7189L39.3921 84.5973L39.508 84.4754L39.6306 84.3535L39.8048 84.1867L39.9339 84.0779L40.0629 83.9688L40.1982 83.8664L40.3337 83.7702L40.4692 83.6869L40.6111 83.6036L40.753 83.5267L40.9012 83.4562L41.0497 83.3921L41.1979 83.3278L41.3527 83.2763L41.5012 83.2314L41.656 83.1928L41.8172 83.1544L41.972 83.1287L42.1269 83.1092L42.2883 83.0901L42.4431 83.0772H42.6043H42.6497H42.7012H42.856L43.0175 83.0901L43.1723 83.1092L43.3335 83.1287L43.4883 83.1544L43.6431 83.1928L43.7979 83.2314L43.9528 83.2763L44.1012 83.3278L44.2495 83.3921L44.3979 83.4562L44.5462 83.5267L44.688 83.6036L44.8299 83.6869L44.972 83.7702L45.1073 83.8664L45.2363 83.9688L45.3655 84.0779L45.4944 84.1867L45.6685 84.3535L45.7911 84.4754L45.9071 84.5973L46.0167 84.7189L46.1198 84.8474L46.2165 84.9819L46.2228 84.9885L65.9084 105.807L76.3316 46.0827L42.6497 10.461L8.72261 46.3523L19.1392 106.077ZM44.2748 36.3852L45.1198 36.475L45.9584 36.6033L46.7774 36.7638L47.5901 36.9498L48.3833 37.1741L49.1701 37.4306L49.9376 37.7193L50.6925 38.0335L51.4277 38.38L52.1503 38.7583L52.8468 39.1624L53.5369 39.5922L54.2011 40.0475L54.8461 40.5288L55.4654 41.0353L56.0717 41.5676L56.6524 42.1256L57.2134 42.7028L57.7486 43.2995L58.2583 43.9216L58.7421 44.5629L59.2002 45.2234L59.6322 45.9033L60.0385 46.6024L60.419 47.3207L60.7675 48.0518L61.0834 48.8024L61.3738 49.5656L61.6317 50.348L61.851 51.1369L62.0446 51.9448L62.2058 52.7595L62.3347 53.5931L62.4251 54.4333L62.4766 55.2801L62.4962 56.1394L62.4766 56.999L62.4251 57.8521L62.3347 58.6923L62.2058 59.5196L62.0446 60.334L61.851 61.1421L61.6317 61.9372L61.3738 62.7132L61.0834 63.4764L60.7675 64.227L60.419 64.9582L60.0385 65.6767L59.6322 66.3758L59.2002 67.0555L58.7421 67.716L58.2583 68.3573L57.7486 68.9796L57.2134 69.576L56.6524 70.1535L56.0717 70.7112L55.4654 71.2437L54.8461 71.7503L54.2011 72.2313L53.5369 72.6869L52.8468 73.1164L52.1503 73.5205L51.4277 73.8988L50.6925 74.2453L49.9376 74.5595L49.1701 74.8483L48.3833 75.1047L47.5901 75.3291L46.7774 75.5216L45.9584 75.6756L45.1198 75.8038L44.2748 75.8936L43.4236 75.9449L42.5591 75.9643L41.6949 75.9449L40.837 75.8936L39.9921 75.8038L39.1601 75.6756L38.3344 75.5216L37.5283 75.3291L36.7286 75.1047L35.9481 74.8483L35.1806 74.5595L34.4257 74.2453L33.6904 73.8988L32.9681 73.5205L32.2651 73.1164L31.5813 72.6869L30.9171 72.2313L30.2721 71.7503L29.6465 71.2437L29.0465 70.7112L28.466 70.1535L27.9048 69.576L27.3696 68.9796L26.8601 68.3573L26.3761 67.716L25.9183 67.0555L25.4794 66.3758L25.0797 65.6767L24.6992 64.9582L24.3507 64.227L24.0347 63.4764L23.7444 62.7132L23.4865 61.9372L23.2609 61.1421L23.0672 60.334L22.9124 59.5196L22.7835 58.6923L22.6931 57.8521L22.6416 56.999L22.622 56.1394L22.6416 55.2801L22.6931 54.4333L22.7835 53.5931L22.9124 52.7595L23.0672 51.9448L23.2609 51.1369L23.4865 50.348L23.7444 49.5656L24.0347 48.8024L24.3507 48.0518L24.6992 47.3207L25.0797 46.6024L25.4794 45.9033L25.9183 45.2234L26.3761 44.5629L26.8601 43.9216L27.3696 43.2995L27.9048 42.7028L28.466 42.1256L29.0465 41.5676L29.6465 41.0353L30.2721 40.5288L30.9171 40.0475L31.5813 39.5922L32.2651 39.1624L32.9681 38.7583L33.6904 38.38L34.4257 38.0335L35.1806 37.7193L35.9481 37.4306L36.7286 37.1741L37.5283 36.9498L38.3344 36.7638L39.1601 36.6033L39.9921 36.475L40.837 36.3852L41.6949 36.334L42.5591 36.3145L43.4236 36.334L44.2748 36.3852ZM40.8756 44.9347L40.0631 45.0823L39.2697 45.2938L38.5022 45.5502L37.754 45.8647L37.0443 46.2301L36.3542 46.6342L35.7029 47.0895L35.0836 47.5897L34.5032 48.1286L33.9613 48.7121L33.4582 49.3216L33.0003 49.9757L32.5876 50.6554L32.2265 51.3674L31.9102 52.1051L31.646 52.8683L31.4394 53.6572L31.2909 54.4654L31.1945 55.2927L31.162 56.1392L31.1945 56.9859L31.2909 57.8132L31.4394 58.6214L31.646 59.4101L31.9102 60.1733L32.2265 60.911L32.5876 61.6229L33.0003 62.3092L33.4582 62.9568L33.9613 63.5726L34.5032 64.15L35.0836 64.6886L35.7029 65.1889L36.3542 65.6441L37.0443 66.0548L37.754 66.4137L38.5022 66.7281L39.2697 66.9911L40.0631 67.1963L40.8756 67.3439L41.7078 67.4401L42.5591 67.4658L43.4106 67.4401L44.2426 67.3439L45.0551 67.1963L45.8485 66.9911L46.616 66.7281L47.3579 66.4137L48.0739 66.0548L48.7577 65.6441L49.4153 65.1889L50.0282 64.6886L50.6153 64.15L51.1569 63.5726L51.6534 62.9568L52.1115 62.3092L52.5242 61.6229L52.8917 60.911L53.208 60.1733L53.4658 59.4101L53.6785 58.6214L53.827 57.8132L53.9171 56.9859L53.9496 56.1392L53.9171 55.2927L53.827 54.4654L53.6785 53.6572L53.4658 52.8683L53.208 52.1051L52.8917 51.3674L52.5242 50.6554L52.1115 49.9757L51.6534 49.3216L51.1569 48.7121L50.6153 48.1286L50.0282 47.5897L49.4153 47.0895L48.7577 46.6342L48.0739 46.2301L47.3579 45.8647L46.616 45.5502L45.8485 45.2938L45.0551 45.0823L44.2426 44.9347L43.4106 44.845L42.5591 44.813L41.7078 44.845L40.8756 44.9347Z" fill="#0086D8"/>
</svg>
