<svg width="300" height="208" viewBox="0 0 300 208" fill="none" xmlns="http://www.w3.org/2000/svg">
<path fill-rule="evenodd" clip-rule="evenodd" d="M86.2251 103.55C86.3807 46.5054 133.477 0 192.659 0C251.265 0 299.767 46.6593 299.093 103.833C299.093 161.008 251.265 207.667 192.659 207.667C134.149 207.667 86.3817 161.816 86.2251 104.118V181.38H48.5018L0 30.2299H86.2251V103.55ZM152.914 103.833C152.914 124.863 171.103 142.607 192.659 142.607C214.889 142.607 232.404 124.863 232.404 103.833C232.404 82.8038 214.215 65.0604 192.659 65.0604C171.103 65.0604 152.914 82.8038 152.914 103.833Z" fill="#0070F0"/>
</svg>
